<svg width="2913" height="626" viewBox="0 0 2913 626" fill="none" xmlns="http://www.w3.org/2000/svg">
<path d="M180.671 625.054C178.489 625.054 176.308 624.898 174.126 624.586C172.256 624.586 170.231 624.431 168.049 624.119C166.179 610.719 164.777 597.318 163.842 583.917C162.907 570.829 162.284 558.363 161.972 546.521C147.013 553.377 131.587 556.805 115.694 556.805C95.7487 556.805 76.8944 551.351 59.1309 540.444C41.6791 529.536 27.4995 512.863 16.5921 490.425C5.68465 467.987 0.230948 439.784 0.230948 405.815C0.230948 372.781 5.37301 344.266 15.6571 320.27C25.9413 296.274 39.3418 276.484 55.8587 260.902C72.3756 245.32 90.295 233.79 109.617 226.31C128.938 218.831 147.637 215.091 165.712 215.091C181.917 215.091 196.72 217.896 210.121 223.506C223.521 228.803 234.117 236.439 241.908 246.411C250.011 256.072 254.062 267.759 254.062 281.471C254.062 292.69 250.945 303.285 244.713 313.258C238.48 323.23 228.975 331.333 216.198 337.566C203.42 343.487 187.215 346.448 167.582 346.448C170.698 337.41 172.88 329.307 174.126 322.14C175.373 314.972 175.996 308.739 175.996 303.441C175.996 291.599 173.503 283.652 168.517 279.601C163.53 275.238 157.765 273.056 151.221 273.056C138.443 273.056 126.913 278.822 116.629 290.352C106.344 301.883 98.2418 316.998 92.3206 335.696C86.3995 354.083 83.4389 373.872 83.4389 395.064C83.4389 425.293 89.36 448.977 101.202 466.117C113.045 483.258 127.848 491.828 145.611 491.828C152.467 491.828 159.635 490.425 167.114 487.621V487.153C167.114 463.78 169.14 445.238 173.191 431.525C177.554 417.502 183.008 407.529 189.552 401.608C196.408 395.687 203.42 392.726 210.588 392.726C218.379 392.726 225.703 395.375 232.559 400.673C239.726 405.971 245.648 412.827 250.322 421.241C254.997 429.344 257.334 438.226 257.334 447.887C257.334 456.612 254.841 465.494 249.855 474.532C245.18 483.258 237.077 491.205 225.547 498.372C224.924 500.865 224.456 503.358 224.144 505.852C223.833 508.345 223.677 510.838 223.677 513.331C223.677 521.745 225.391 531.25 228.819 541.846C232.559 552.442 238.324 567.245 246.115 586.255C244.245 593.422 239.882 599.967 233.026 605.888C226.482 611.809 218.535 616.484 209.186 619.912C200.148 623.34 190.643 625.054 180.671 625.054ZM454.69 556.337C443.783 556.337 434.277 552.753 426.175 545.586C418.072 538.418 414.021 526.731 414.021 510.526C414.021 508.968 414.021 507.41 414.021 505.852C414.021 504.293 414.177 502.735 414.488 501.177C405.139 519.875 394.543 533.743 382.701 542.781C371.17 551.507 359.484 555.87 347.642 555.87C336.734 555.87 326.45 552.13 316.789 544.651C307.128 536.86 299.337 525.485 293.416 510.526C287.495 495.567 284.534 477.492 284.534 456.301C284.534 434.486 287.495 415.008 293.416 397.868C299.649 380.728 307.752 366.237 317.724 354.394C327.697 342.552 338.604 333.67 350.446 327.749C362.289 321.516 373.819 318.4 385.038 318.4C397.504 318.4 408.723 322.296 418.695 330.087C428.668 337.566 435.524 349.564 439.264 366.081C440.199 360.783 440.822 355.953 441.134 351.59C441.757 347.227 442.068 344.266 442.068 342.708C442.38 334.294 446.587 328.061 454.69 324.01C463.104 319.958 472.298 317.933 482.27 317.933C490.996 317.933 499.254 319.647 507.045 323.075C514.836 326.503 520.134 332.268 522.939 340.371L523.874 343.175C520.134 351.59 516.395 361.718 512.655 373.56C508.915 385.403 505.487 397.868 502.371 410.957C499.254 423.734 496.761 436.356 494.891 448.821C493.022 460.975 492.087 471.727 492.087 481.076C492.087 491.36 493.177 498.528 495.359 502.579C497.54 506.319 500.189 508.189 503.306 508.189C508.604 508.189 513.434 504.449 517.797 496.97L521.537 498.84C521.537 509.435 518.109 519.096 511.253 527.822C504.397 536.548 495.826 543.56 485.542 548.858C475.258 553.844 464.974 556.337 454.69 556.337ZM378.494 496.97C386.597 496.97 395.478 489.802 405.139 475.467C415.112 460.82 423.682 439.94 430.849 412.827C431.473 410.022 432.096 407.373 432.719 404.88C433.343 402.075 433.81 399.426 434.122 396.933C429.135 385.403 423.838 377.3 418.228 372.625C412.93 367.639 407.632 365.146 402.334 365.146C394.543 365.146 387.22 369.353 380.364 377.768C373.819 385.87 368.366 396.154 364.003 408.62C359.951 421.085 357.926 433.551 357.926 446.017C357.926 463.157 359.795 475.934 363.535 484.348C367.586 492.763 372.573 496.97 378.494 496.97Z" fill="#171717"/>
<path d="M1014.4 555.87C1004.43 555.87 994.926 553.688 985.888 549.325C977.162 544.651 969.994 537.483 964.385 527.822C959.087 518.161 956.438 505.852 956.438 490.893C956.438 482.79 957.217 472.194 958.775 459.106C960.334 446.017 962.359 431.681 964.852 416.099C967.657 400.517 970.462 384.935 973.267 369.353C967.034 369.665 960.957 370.288 955.036 371.223C949.426 372.158 943.817 373.249 938.207 374.495L937.272 371.223C943.505 363.744 950.049 357.355 956.906 352.057C963.762 346.759 970.929 342.396 978.409 338.968C982.46 318.4 985.888 300.637 988.693 285.678C991.498 270.407 992.9 261.37 992.9 258.565C992.9 253.267 996.951 248.904 1005.05 245.476C1013.47 242.048 1022.82 240.334 1033.1 240.334C1042.14 240.334 1050.55 242.048 1058.34 245.476C1066.45 248.904 1071.9 254.67 1074.71 262.772C1072.84 264.642 1070.19 271.654 1066.76 283.808C1063.33 295.65 1059.75 310.142 1056.01 327.282C1061.93 327.593 1068.01 327.905 1074.24 328.217C1080.47 328.528 1086.86 328.996 1093.4 329.619C1094.03 331.489 1094.49 333.515 1094.81 335.696C1095.12 337.878 1095.27 340.215 1095.27 342.708C1095.27 347.383 1094.49 352.525 1092.94 358.134C1091.69 363.432 1090.13 368.262 1088.26 372.625C1080.78 372.002 1073.77 371.379 1067.23 370.756C1060.68 369.821 1054.29 369.197 1048.06 368.886C1045.57 382.286 1043.23 395.687 1041.05 409.087C1039.18 422.488 1037.62 434.642 1036.37 445.549C1035.44 456.457 1034.97 465.027 1034.97 471.26C1034.97 484.348 1037.31 493.074 1041.98 497.437C1046.97 501.8 1052.89 503.982 1059.75 503.982C1065.98 503.982 1071.59 502.735 1076.58 500.242C1081.56 497.749 1085.15 494.788 1087.33 491.36L1092 492.763C1090.13 505.54 1085.15 516.759 1077.04 526.42C1068.94 535.769 1059.28 543.093 1048.06 548.39C1036.84 553.377 1025.62 555.87 1014.4 555.87ZM1167.51 555.87C1156.3 555.87 1146.32 551.351 1137.6 542.313C1128.87 532.964 1124.51 519.875 1124.51 503.047C1124.51 494.944 1125.44 485.751 1127.31 475.467C1129.18 465.183 1131.36 454.743 1133.86 444.147C1136.35 433.239 1138.53 423.111 1140.4 413.762C1142.27 404.101 1143.21 396.154 1143.21 389.921C1143.21 383.377 1141.96 378.235 1139.47 374.495C1137.29 370.444 1134.32 368.418 1130.59 368.418C1124.66 368.418 1118.59 372.47 1112.35 380.572L1109.55 378.702C1109.24 373.716 1110.33 367.795 1112.82 360.939C1115.31 354.083 1119.21 347.538 1124.51 341.306C1129.81 334.761 1136.51 329.307 1144.61 324.944C1153.02 320.582 1162.84 318.4 1174.06 318.4C1190.58 318.4 1202.57 323.23 1210.05 332.891C1217.53 342.241 1221.27 353.615 1221.27 367.016C1221.27 369.197 1221.12 371.535 1220.81 374.028C1220.81 376.209 1220.65 378.391 1220.34 380.572C1231.56 360.316 1243.24 344.889 1255.4 334.294C1267.86 323.386 1279.39 317.933 1289.99 317.933C1299.96 317.933 1307.29 321.828 1311.96 329.619C1316.63 337.41 1318.97 346.759 1318.97 357.667C1318.97 367.639 1316.95 377.767 1312.89 388.052C1309.16 398.336 1303.39 406.906 1295.6 413.762C1288.12 420.306 1278.93 423.423 1268.02 423.111L1266.15 422.176C1265.84 414.074 1263.19 407.685 1258.2 403.01C1253.22 398.336 1247.61 395.998 1241.37 395.998C1232.96 395.998 1225.01 400.206 1217.53 408.62C1210.37 417.034 1206.78 429.188 1206.78 445.082C1206.78 454.743 1207.87 465.183 1210.05 476.402C1212.24 487.621 1213.33 497.126 1213.33 504.917C1213.33 514.266 1211.14 522.836 1206.78 530.627C1202.42 538.418 1196.81 544.651 1189.95 549.325C1183.1 553.688 1175.62 555.87 1167.51 555.87ZM1425.63 557.272C1402.26 557.272 1382.94 552.598 1367.67 543.248C1352.4 533.899 1341.02 521.589 1333.54 506.319C1326.38 490.737 1322.79 474.22 1322.79 456.768C1322.79 440.251 1325.75 423.734 1331.67 407.217C1337.91 390.701 1346.79 375.742 1358.32 362.341C1370.16 348.629 1384.5 337.722 1401.33 329.619C1418.15 321.205 1437.48 316.998 1459.29 316.998C1482.66 316.998 1501.83 321.828 1516.79 331.489C1532.06 340.838 1543.28 353.304 1550.44 368.886C1557.92 384.468 1561.66 401.141 1561.66 418.904C1561.66 435.109 1558.7 451.47 1552.78 467.987C1546.86 484.193 1537.98 499.151 1526.14 512.863C1514.61 526.264 1500.43 537.016 1483.6 545.118C1466.77 553.221 1447.45 557.272 1425.63 557.272ZM1438.25 517.538C1446.67 517.538 1453.68 513.175 1459.29 504.449C1464.9 495.723 1469.11 484.66 1471.91 471.26C1474.72 457.547 1476.12 443.679 1476.12 429.656C1476.12 417.19 1474.87 405.503 1472.38 394.596C1470.2 383.377 1466.77 374.339 1462.09 367.483C1457.42 360.316 1451.34 356.732 1443.86 356.732C1435.76 356.732 1428.75 361.095 1422.83 369.821C1417.22 378.547 1413.01 389.61 1410.21 403.01C1407.4 416.411 1406 430.279 1406 444.614C1406 457.08 1407.09 468.922 1409.27 480.141C1411.77 491.049 1415.35 500.086 1420.02 507.254C1424.7 514.11 1430.78 517.538 1438.25 517.538ZM1643.65 555.402C1632.12 555.402 1621.68 550.884 1612.33 541.846C1602.98 532.497 1598.3 519.564 1598.3 503.047C1598.3 494.944 1599.4 485.751 1601.58 475.467C1603.76 465.183 1606.1 454.743 1608.59 444.147C1611.39 433.551 1613.89 423.579 1616.07 414.229C1618.25 404.88 1619.34 397.245 1619.34 391.324C1619.34 385.091 1618.09 380.261 1615.6 376.833C1613.11 373.093 1609.84 371.223 1605.78 371.223C1600.49 371.223 1594.72 374.339 1588.49 380.572L1585.68 378.702C1585.37 373.716 1586.46 367.795 1588.96 360.939C1591.45 354.083 1595.19 347.538 1600.17 341.306C1605.47 334.761 1612.17 329.307 1620.28 324.944C1628.38 320.582 1638.04 318.4 1649.26 318.4C1665.77 318.4 1677.93 323.23 1685.72 332.891C1693.82 342.241 1697.87 353.771 1697.87 367.483C1697.87 372.47 1697.41 377.3 1696.47 381.975C1703.02 372.314 1711.12 362.653 1720.78 352.992C1730.44 343.02 1741.04 334.761 1752.57 328.217C1764.41 321.672 1776.56 318.4 1789.03 318.4C1803.68 318.4 1813.65 323.075 1818.95 332.424C1824.24 341.773 1826.89 353.46 1826.89 367.483C1826.89 380.572 1825.49 394.596 1822.69 409.555C1819.88 424.514 1817.08 439.005 1814.27 453.029C1811.47 466.741 1810.06 478.271 1810.06 487.621C1810.06 500.086 1813.65 506.319 1820.82 506.319C1824.56 506.319 1827.83 505.228 1830.63 503.047C1833.44 500.554 1835.31 498.216 1836.24 496.035L1839.51 497.437C1839.51 508.968 1836.24 519.096 1829.7 527.822C1823.46 536.548 1815.52 543.404 1805.86 548.39C1796.2 553.065 1786.38 555.402 1776.41 555.402C1764.25 555.402 1753.5 551.195 1744.15 542.781C1734.8 534.367 1730.13 520.655 1730.13 501.644C1730.13 490.425 1731.53 478.271 1734.34 465.183C1737.45 452.094 1740.41 439.472 1743.22 427.318C1746.02 415.164 1747.42 405.192 1747.42 397.401C1747.42 392.726 1746.49 389.142 1744.62 386.649C1743.06 383.844 1740.1 382.442 1735.74 382.442C1728.57 382.442 1720.62 385.714 1711.9 392.259C1703.48 398.803 1696.16 407.529 1689.93 418.437C1684.01 429.344 1681.05 441.342 1681.05 454.431C1681.05 462.845 1681.98 470.948 1683.85 478.739C1686.03 486.53 1687.12 494.944 1687.12 503.982C1687.12 520.81 1682.76 533.588 1674.03 542.313C1665.31 551.039 1655.18 555.402 1643.65 555.402ZM1966.13 557.272C1942.76 557.272 1923.44 552.598 1908.17 543.248C1892.9 533.899 1881.52 521.589 1874.04 506.319C1866.88 490.737 1863.29 474.22 1863.29 456.768C1863.29 440.251 1866.25 423.734 1872.17 407.217C1878.41 390.701 1887.29 375.742 1898.82 362.341C1910.66 348.629 1925 337.722 1941.83 329.619C1958.65 321.205 1977.98 316.998 1999.79 316.998C2023.16 316.998 2042.33 321.828 2057.29 331.489C2072.56 340.838 2083.78 353.304 2090.95 368.886C2098.43 384.468 2102.16 401.141 2102.16 418.904C2102.16 435.109 2099.2 451.47 2093.28 467.987C2087.36 484.193 2078.48 499.151 2066.64 512.863C2055.11 526.264 2040.93 537.016 2024.1 545.118C2007.27 553.221 1987.95 557.272 1966.13 557.272ZM1978.76 517.538C1987.17 517.538 1994.18 513.175 1999.79 504.449C2005.4 495.723 2009.61 484.66 2012.41 471.26C2015.22 457.547 2016.62 443.679 2016.62 429.656C2016.62 417.19 2015.37 405.503 2012.88 394.596C2010.7 383.377 2007.27 374.339 2002.6 367.483C1997.92 360.316 1991.84 356.732 1984.36 356.732C1976.26 356.732 1969.25 361.095 1963.33 369.821C1957.72 378.547 1953.51 389.61 1950.71 403.01C1947.9 416.411 1946.5 430.279 1946.5 444.614C1946.5 457.08 1947.59 468.922 1949.77 480.141C1952.27 491.049 1955.85 500.086 1960.52 507.254C1965.2 514.11 1971.28 517.538 1978.76 517.538ZM2181.77 555.87C2170.55 555.87 2160.42 551.351 2151.38 542.313C2142.66 532.964 2138.29 520.187 2138.29 503.982C2138.29 495.879 2139.39 486.686 2141.57 476.402C2143.75 465.806 2146.09 455.054 2148.58 444.147C2151.38 433.239 2153.88 422.955 2156.06 413.294C2158.24 403.634 2159.33 395.531 2159.33 388.987C2159.33 383.689 2158.08 379.482 2155.59 376.365C2153.1 372.937 2149.83 371.223 2145.77 371.223C2140.48 371.223 2134.71 374.339 2128.48 380.572L2125.67 378.702C2125.36 373.716 2126.45 367.795 2128.95 360.939C2131.44 354.083 2135.49 347.538 2141.1 341.306C2146.71 334.761 2154.03 329.307 2163.07 324.944C2172.11 320.582 2182.86 318.4 2195.32 318.4C2209.35 318.4 2219.79 323.386 2226.64 333.359C2233.81 343.02 2237.4 354.706 2237.4 368.418C2237.4 369.976 2237.4 371.691 2237.4 373.56C2237.4 375.119 2237.24 376.677 2236.93 378.235C2242.85 368.574 2249.71 359.225 2257.5 350.187C2265.6 341.15 2274.64 333.67 2284.61 327.749C2294.89 321.516 2305.96 318.4 2317.8 318.4C2333.07 318.4 2343.67 323.386 2349.59 333.359C2355.51 343.02 2358.47 354.083 2358.47 366.548C2358.47 369.042 2358.31 371.535 2358 374.028C2358 376.209 2357.84 378.391 2357.53 380.572C2364.08 370.911 2371.25 361.406 2379.04 352.057C2387.14 342.396 2396.33 334.45 2406.62 328.217C2416.9 321.672 2428.74 318.4 2442.14 318.4C2458.66 318.4 2469.88 323.23 2475.8 332.891C2482.03 342.552 2485.15 353.927 2485.15 367.016C2485.15 378.547 2483.75 391.791 2480.94 406.75C2478.14 421.397 2475.33 435.888 2472.53 450.224C2469.72 464.559 2468.32 476.713 2468.32 486.686C2468.32 492.607 2469.1 497.437 2470.66 501.177C2472.53 504.917 2475.49 506.787 2479.54 506.787C2482.97 506.787 2486.08 505.852 2488.89 503.982C2492.01 501.8 2494.19 499.307 2495.43 496.502L2499.17 497.905C2499.17 509.435 2495.9 519.564 2489.36 528.29C2482.81 537.016 2474.55 543.872 2464.58 548.858C2454.61 553.533 2444.64 555.87 2434.66 555.87C2422.51 555.87 2411.76 551.819 2402.41 543.716C2393.37 535.613 2388.85 522.213 2388.85 503.514C2388.85 491.984 2390.26 479.518 2393.06 466.117C2396.18 452.717 2399.14 439.784 2401.94 427.318C2405.06 414.541 2406.62 404.101 2406.62 395.998C2406.62 384.468 2402.57 378.702 2394.46 378.702C2388.54 378.702 2382.62 381.196 2376.7 386.182C2371.09 390.856 2365.95 397.245 2361.27 405.348C2356.91 413.139 2353.33 421.397 2350.52 430.123C2347.72 438.849 2346.31 447.263 2346.31 455.366C2346.31 462.845 2347.09 471.104 2348.65 480.141C2350.52 488.867 2351.46 497.281 2351.46 505.384C2351.46 521.589 2346.94 534.055 2337.9 542.781C2328.86 551.507 2318.27 555.87 2306.11 555.87C2294.89 555.87 2284.77 552.13 2275.73 544.651C2267 537.171 2262.64 525.952 2262.64 510.994C2262.64 504.138 2263.57 495.879 2265.44 486.218C2267.31 476.246 2269.34 465.962 2271.52 455.366C2274.01 444.458 2276.2 434.019 2278.06 424.046C2279.93 414.074 2280.87 405.348 2280.87 397.868C2280.87 391.947 2279.93 387.273 2278.06 383.844C2276.51 380.416 2273.23 378.702 2268.25 378.702C2261.08 378.702 2254.22 382.286 2247.68 389.454C2241.14 396.622 2235.53 405.348 2230.85 415.632C2226.18 425.604 2223.06 435.265 2221.5 444.614C2221.19 446.796 2220.88 448.51 2220.57 449.756C2220.57 451.003 2220.57 451.626 2220.57 451.626C2220.57 461.287 2221.66 470.169 2223.84 478.271C2226.02 486.062 2227.11 494.165 2227.11 502.579C2227.11 517.85 2222.44 530.627 2213.09 540.911C2204.05 550.884 2193.61 555.87 2181.77 555.87ZM2610.39 303.909C2597.92 303.909 2587.64 300.169 2579.54 292.69C2571.75 284.899 2567.85 275.238 2567.85 263.707C2567.85 251.242 2572.52 240.49 2581.87 231.452C2591.22 222.415 2602.6 217.896 2616 217.896C2628.46 217.896 2638.59 221.792 2646.38 229.583C2654.49 237.374 2658.54 247.034 2658.54 258.565C2658.54 271.031 2653.86 281.782 2644.51 290.82C2635.16 299.546 2623.79 303.909 2610.39 303.909ZM2577.67 555.87C2565.51 555.87 2554.61 551.663 2544.94 543.248C2535.28 534.522 2530.45 520.655 2530.45 501.644C2530.45 490.737 2531.86 480.609 2534.66 471.26C2537.78 461.599 2541.2 452.249 2544.94 443.212C2549 434.174 2552.42 425.448 2555.23 417.034C2558.35 408.308 2559.9 399.738 2559.9 391.324C2559.9 383.844 2558.66 378.547 2556.16 375.43C2553.67 372.002 2550.71 370.288 2547.28 370.288C2541.98 370.288 2536.84 373.716 2531.86 380.572L2528.58 378.702C2529.83 366.237 2533.73 355.641 2540.27 346.915C2547.13 337.878 2555.38 330.866 2565.05 325.879C2575.02 320.893 2584.83 318.4 2594.5 318.4C2606.34 318.4 2616.62 322.296 2625.35 330.087C2634.07 337.566 2638.44 349.876 2638.44 367.016C2638.44 377.3 2636.88 388.207 2633.76 399.738C2630.96 410.957 2627.53 422.176 2623.48 433.395C2619.74 444.614 2616.31 455.054 2613.19 464.715C2610.39 474.376 2608.99 482.634 2608.99 489.49C2608.99 495.412 2610.08 499.619 2612.26 502.112C2614.75 504.605 2617.4 505.852 2620.21 505.852C2623.01 505.852 2625.66 505.072 2628.15 503.514C2630.96 501.644 2632.98 499.619 2634.23 497.437L2637.5 498.372C2637.5 509.903 2634.39 520.031 2628.15 528.757C2622.23 537.171 2614.75 543.872 2605.71 548.858C2596.68 553.533 2587.33 555.87 2577.67 555.87ZM2842.85 556.337C2831.94 556.337 2822.44 552.753 2814.34 545.586C2806.23 538.418 2802.18 526.731 2802.18 510.526C2802.18 508.968 2802.18 507.41 2802.18 505.852C2802.18 504.293 2802.34 502.735 2802.65 501.177C2793.3 519.875 2782.71 533.743 2770.86 542.781C2759.33 551.507 2747.65 555.87 2735.8 555.87C2724.9 555.87 2714.61 552.13 2704.95 544.651C2695.29 536.86 2687.5 525.485 2681.58 510.526C2675.66 495.567 2672.7 477.492 2672.7 456.301C2672.7 434.486 2675.66 415.008 2681.58 397.868C2687.81 380.728 2695.91 366.237 2705.89 354.394C2715.86 342.552 2726.77 333.67 2738.61 327.749C2750.45 321.516 2761.98 318.4 2773.2 318.4C2785.67 318.4 2796.88 322.296 2806.86 330.087C2816.83 337.566 2823.69 349.564 2827.43 366.081C2828.36 360.783 2828.98 355.953 2829.3 351.59C2829.92 347.227 2830.23 344.266 2830.23 342.708C2830.54 334.294 2834.75 328.061 2842.85 324.01C2851.27 319.958 2860.46 317.933 2870.43 317.933C2879.16 317.933 2887.42 319.647 2895.21 323.075C2903 326.503 2908.3 332.268 2911.1 340.371L2912.04 343.175C2908.3 351.59 2904.56 361.718 2900.82 373.56C2897.08 385.403 2893.65 397.868 2890.53 410.957C2887.42 423.734 2884.92 436.356 2883.05 448.821C2881.18 460.975 2880.25 471.727 2880.25 481.076C2880.25 491.36 2881.34 498.528 2883.52 502.579C2885.7 506.319 2888.35 508.189 2891.47 508.189C2896.77 508.189 2901.6 504.449 2905.96 496.97L2909.7 498.84C2909.7 509.435 2906.27 519.096 2899.41 527.822C2892.56 536.548 2883.99 543.56 2873.7 548.858C2863.42 553.844 2853.14 556.337 2842.85 556.337ZM2766.66 496.97C2774.76 496.97 2783.64 489.802 2793.3 475.467C2803.27 460.82 2811.84 439.94 2819.01 412.827C2819.63 410.022 2820.26 407.373 2820.88 404.88C2821.5 402.075 2821.97 399.426 2822.28 396.933C2817.3 385.403 2812 377.3 2806.39 372.625C2801.09 367.639 2795.79 365.146 2790.5 365.146C2782.71 365.146 2775.38 369.353 2768.53 377.768C2761.98 385.87 2756.53 396.154 2752.16 408.62C2748.11 421.085 2746.09 433.551 2746.09 446.017C2746.09 463.157 2747.96 475.934 2751.7 484.348C2755.75 492.763 2760.73 496.97 2766.66 496.97Z" fill="#171717"/>
<path d="M1020.6 202.096C1014.39 202.096 1008.82 199.813 1003.89 195.246C998.959 190.497 996.493 182.552 996.493 171.41C996.493 164.104 997.498 155.976 999.507 147.026C1001.7 138.076 1004.26 128.852 1007.18 119.353C1010.28 109.673 1013.39 100.357 1016.49 91.4074C1019.6 82.4573 1022.16 74.3292 1024.17 67.023C1026.17 59.7168 1027.18 53.9632 1027.18 49.7622C1027.18 44.8305 1025.26 42.3647 1021.43 42.3647C1016.86 42.3647 1012.57 45.0132 1008.55 50.3102C1004.53 55.4245 1000.06 62.6393 995.124 71.9547L993.48 71.4067C993.48 56.977 997.315 44.4652 1004.99 33.8713C1012.66 23.0946 1022.98 14.7839 1035.95 8.93893C1049.1 3.09399 1063.71 0.171523 1079.78 0.171523C1096.04 0.171523 1109.19 3.00267 1119.24 8.66496C1129.47 14.1446 1136.95 21.3594 1141.7 30.3095C1146.64 39.0769 1149.1 48.4836 1149.1 58.5296C1149.1 67.1143 1147.46 75.6991 1144.17 84.2839C1141.06 92.686 1136.5 100.357 1130.47 107.298C1124.63 114.239 1117.68 119.81 1109.65 124.011C1101.61 128.212 1092.75 130.313 1083.07 130.313C1073.03 130.313 1062.61 127.756 1051.84 122.641C1049.46 131.591 1047.36 140.724 1045.54 150.039C1043.71 159.172 1042.8 168.579 1042.8 178.26C1042.8 183.009 1043.07 187.758 1043.62 192.507C1040.51 195.612 1036.86 197.986 1032.66 199.63C1028.64 201.274 1024.62 202.096 1020.6 202.096ZM1064.44 102.915C1071.75 102.915 1078.14 100.905 1083.62 96.887C1089.1 92.686 1093.3 87.4803 1096.22 81.2701C1099.33 74.8772 1100.88 68.4843 1100.88 62.0914C1100.88 54.6025 1098.41 47.9356 1093.48 42.0907C1088.73 36.2458 1080.88 33.3233 1069.92 33.3233C1068.46 33.3233 1066.72 33.4146 1064.71 33.5973C1062.89 33.7799 1060.97 34.0539 1058.96 34.4192C1060.42 38.9856 1061.34 43.5519 1061.7 48.1183C1062.25 52.502 1062.52 56.7944 1062.52 60.9954C1062.52 68.3016 1061.98 75.3338 1060.88 82.092C1059.78 88.8502 1058.5 95.5171 1057.04 102.093C1059.6 102.641 1062.07 102.915 1064.44 102.915ZM1253.81 202.37C1247.42 202.37 1241.85 200.269 1237.1 196.068C1232.35 191.867 1229.97 185.018 1229.97 175.52C1229.97 174.606 1229.97 173.693 1229.97 172.78C1229.97 171.867 1230.06 170.953 1230.25 170.04C1224.77 180.999 1218.56 189.127 1211.62 194.424C1204.86 199.539 1198.01 202.096 1191.07 202.096C1184.67 202.096 1178.65 199.904 1172.98 195.52C1167.32 190.954 1162.76 184.287 1159.29 175.52C1155.82 166.752 1154.08 156.158 1154.08 143.738C1154.08 130.952 1155.82 119.536 1159.29 109.49C1162.94 99.4442 1167.69 90.9507 1173.53 84.0099C1179.38 77.069 1185.77 71.8634 1192.71 68.3929C1199.65 64.7398 1206.41 62.9133 1212.99 62.9133C1220.29 62.9133 1226.87 65.1965 1232.71 69.7628C1238.56 74.1465 1242.58 81.1787 1244.77 90.8594C1245.32 87.7543 1245.68 84.9231 1245.86 82.366C1246.23 79.8088 1246.41 78.0736 1246.41 77.1603C1246.59 72.2287 1249.06 68.5756 1253.81 66.2011C1258.74 63.8266 1264.13 62.6393 1269.97 62.6393C1275.09 62.6393 1279.93 63.6439 1284.5 65.6531C1289.06 67.6623 1292.17 71.0414 1293.81 75.7904L1294.36 77.4343C1292.17 82.366 1289.97 88.3023 1287.78 95.2431C1285.59 102.184 1283.58 109.49 1281.76 117.162C1279.93 124.65 1278.47 132.048 1277.37 139.354C1276.28 146.478 1275.73 152.779 1275.73 158.259C1275.73 164.286 1276.37 168.488 1277.65 170.862C1278.92 173.054 1280.48 174.15 1282.3 174.15C1285.41 174.15 1288.24 171.958 1290.8 167.574L1292.99 168.67C1292.99 174.88 1290.98 180.543 1286.96 185.657C1282.94 190.771 1277.92 194.881 1271.89 197.986C1265.86 200.909 1259.84 202.37 1253.81 202.37ZM1209.15 167.574C1213.9 167.574 1219.1 163.373 1224.77 154.971C1230.61 146.386 1235.64 134.149 1239.84 118.258C1240.2 116.614 1240.57 115.061 1240.93 113.6C1241.3 111.956 1241.57 110.403 1241.75 108.942C1238.83 102.184 1235.73 97.435 1232.44 94.6952C1229.33 91.7727 1226.23 90.3115 1223.12 90.3115C1218.56 90.3115 1214.26 92.7773 1210.25 97.709C1206.41 102.458 1203.21 108.486 1200.66 115.792C1198.28 123.098 1197.1 130.404 1197.1 137.71C1197.1 147.756 1198.19 155.245 1200.38 160.177C1202.76 165.108 1205.68 167.574 1209.15 167.574ZM1340.79 202.096C1334.21 202.096 1328.36 199.447 1323.25 194.15C1318.14 188.671 1315.58 180.999 1315.58 171.136C1315.58 166.387 1316.13 160.999 1317.22 154.971C1318.32 148.944 1319.6 142.825 1321.06 136.614C1322.52 130.221 1323.8 124.285 1324.89 118.806C1325.99 113.143 1326.54 108.486 1326.54 104.832C1326.54 100.997 1325.81 97.9829 1324.35 95.7911C1323.07 93.4166 1321.33 92.2293 1319.14 92.2293C1315.67 92.2293 1312.11 94.6038 1308.46 99.3528L1306.81 98.2569C1306.63 95.3344 1307.27 91.864 1308.73 87.8456C1310.19 83.8272 1312.47 79.9915 1315.58 76.3384C1318.68 72.5027 1322.61 69.3062 1327.36 66.749C1332.29 64.1919 1338.05 62.9133 1344.62 62.9133C1354.3 62.9133 1361.33 65.7444 1365.72 71.4067C1370.1 76.8864 1372.29 83.5532 1372.29 91.4074C1372.29 92.686 1372.2 94.0559 1372.02 95.5171C1372.02 96.7957 1371.93 98.0743 1371.75 99.3528C1378.32 87.4803 1385.17 78.4389 1392.29 72.2287C1399.6 65.8358 1406.36 62.6393 1412.57 62.6393C1418.41 62.6393 1422.71 64.9225 1425.45 69.4889C1428.19 74.0552 1429.56 79.5348 1429.56 85.9277C1429.56 91.7727 1428.37 97.709 1425.99 103.737C1423.8 109.764 1420.42 114.787 1415.86 118.806C1411.47 122.641 1406.08 124.468 1399.69 124.285L1398.6 123.737C1398.41 118.988 1396.86 115.244 1393.94 112.504C1391.02 109.764 1387.73 108.394 1384.07 108.394C1379.14 108.394 1374.49 110.86 1370.1 115.792C1365.9 120.723 1363.8 127.847 1363.8 137.162C1363.8 142.825 1364.44 148.944 1365.72 155.519C1367 162.095 1367.64 167.666 1367.64 172.232C1367.64 177.712 1366.36 182.735 1363.8 187.301C1361.24 191.867 1357.95 195.52 1353.94 198.26C1349.92 200.817 1345.53 202.096 1340.79 202.096ZM1533.94 202.37C1527.55 202.37 1521.98 200.269 1517.23 196.068C1512.48 191.867 1510.11 185.018 1510.11 175.52C1510.11 174.606 1510.11 173.693 1510.11 172.78C1510.11 171.867 1510.2 170.953 1510.38 170.04C1504.9 180.999 1498.69 189.127 1491.75 194.424C1484.99 199.539 1478.14 202.096 1471.2 202.096C1464.81 202.096 1458.78 199.904 1453.12 195.52C1447.46 190.954 1442.89 184.287 1439.42 175.52C1435.95 166.752 1434.22 156.158 1434.22 143.738C1434.22 130.952 1435.95 119.536 1439.42 109.49C1443.07 99.4442 1447.82 90.9507 1453.67 84.0099C1459.51 77.069 1465.91 71.8634 1472.85 68.3929C1479.79 64.7398 1486.55 62.9133 1493.12 62.9133C1500.43 62.9133 1507 65.1965 1512.85 69.7628C1518.69 74.1465 1522.71 81.1787 1524.9 90.8594C1525.45 87.7543 1525.82 84.9231 1526 82.366C1526.36 79.8088 1526.55 78.0736 1526.55 77.1603C1526.73 72.2287 1529.2 68.5756 1533.94 66.2011C1538.88 63.8266 1544.26 62.6393 1550.11 62.6393C1555.22 62.6393 1560.06 63.6439 1564.63 65.6531C1569.2 67.6623 1572.3 71.0414 1573.95 75.7904L1574.49 77.4343C1572.3 82.366 1570.11 88.3023 1567.92 95.2431C1565.73 102.184 1563.72 109.49 1561.89 117.162C1560.06 124.65 1558.6 132.048 1557.51 139.354C1556.41 146.478 1555.86 152.779 1555.86 158.259C1555.86 164.286 1556.5 168.488 1557.78 170.862C1559.06 173.054 1560.61 174.15 1562.44 174.15C1565.54 174.15 1568.37 171.958 1570.93 167.574L1573.12 168.67C1573.12 174.88 1571.11 180.543 1567.1 185.657C1563.08 190.771 1558.05 194.881 1552.03 197.986C1546 200.909 1539.97 202.37 1533.94 202.37ZM1489.29 167.574C1494.03 167.574 1499.24 163.373 1504.9 154.971C1510.75 146.386 1515.77 134.149 1519.97 118.258C1520.34 116.614 1520.7 115.061 1521.07 113.6C1521.43 111.956 1521.71 110.403 1521.89 108.942C1518.97 102.184 1515.86 97.435 1512.57 94.6952C1509.47 91.7727 1506.36 90.3115 1503.26 90.3115C1498.69 90.3115 1494.4 92.7773 1490.38 97.709C1486.55 102.458 1483.35 108.486 1480.79 115.792C1478.42 123.098 1477.23 130.404 1477.23 137.71C1477.23 147.756 1478.33 155.245 1480.52 160.177C1482.89 165.108 1485.82 167.574 1489.29 167.574ZM1639.57 54.4199C1632.26 54.4199 1626.24 52.228 1621.49 47.8443C1616.92 43.278 1614.64 37.6157 1614.64 30.8575C1614.64 23.5513 1617.38 17.2497 1622.86 11.9527C1628.34 6.65575 1635 4.00726 1642.86 4.00726C1650.16 4.00726 1656.1 6.29045 1660.67 10.8568C1665.42 15.4232 1667.79 21.0854 1667.79 27.8437C1667.79 35.1498 1665.05 41.4514 1659.57 46.7484C1654.09 51.8627 1647.43 54.4199 1639.57 54.4199ZM1620.39 202.096C1613.27 202.096 1606.88 199.63 1601.21 194.698C1595.55 189.584 1592.72 181.456 1592.72 170.314C1592.72 163.921 1593.54 157.985 1595.19 152.505C1597.01 146.843 1599.02 141.363 1601.21 136.066C1603.59 130.769 1605.6 125.655 1607.24 120.723C1609.07 115.609 1609.98 110.586 1609.98 105.654C1609.98 101.271 1609.25 98.1656 1607.79 96.339C1606.33 94.3299 1604.59 93.3253 1602.58 93.3253C1599.48 93.3253 1596.46 95.3345 1593.54 99.3528L1591.62 98.2569C1592.35 90.9507 1594.64 84.7405 1598.47 79.6262C1602.49 74.3292 1607.33 70.2195 1612.99 67.297C1618.84 64.3745 1624.59 62.9133 1630.26 62.9133C1637.2 62.9133 1643.22 65.1965 1648.34 69.7628C1653.45 74.1465 1656.01 81.3614 1656.01 91.4074C1656.01 97.435 1655.1 103.828 1653.27 110.586C1651.63 117.162 1649.62 123.737 1647.24 130.313C1645.05 136.888 1643.04 143.007 1641.21 148.67C1639.57 154.332 1638.75 159.172 1638.75 163.191C1638.75 166.661 1639.39 169.127 1640.67 170.588C1642.13 172.049 1643.68 172.78 1645.32 172.78C1646.97 172.78 1648.52 172.323 1649.98 171.41C1651.63 170.314 1652.81 169.127 1653.54 167.848L1655.46 168.396C1655.46 175.154 1653.64 181.091 1649.98 186.205C1646.51 191.137 1642.13 195.064 1636.83 197.986C1631.53 200.726 1626.05 202.096 1620.39 202.096ZM1720.79 203.466C1709.47 203.466 1700.06 201.913 1692.57 198.808C1685.08 195.703 1679.51 191.776 1675.86 187.027C1672.21 182.095 1670.38 177.164 1670.38 172.232C1670.38 165.291 1673.49 159.172 1679.7 153.875C1685.91 148.396 1694.31 145.656 1704.9 145.656C1704.9 154.971 1706.09 162.46 1708.46 168.122C1710.84 173.602 1713.85 177.529 1717.51 179.903C1721.34 182.278 1724.99 183.465 1728.47 183.465C1732.67 183.465 1736.14 182.278 1738.88 179.903C1741.8 177.346 1743.26 174.241 1743.26 170.588C1743.26 165.474 1740.61 160.999 1735.31 157.163C1730.02 153.327 1723.17 149.035 1714.77 144.286C1710.56 141.729 1706 138.806 1701.07 135.518C1696.14 132.048 1691.93 127.938 1688.46 123.189C1684.99 118.258 1683.26 112.413 1683.26 105.654C1683.26 98.5309 1685.27 92.2293 1689.29 86.7497C1693.49 81.2701 1698.97 76.7037 1705.72 73.0506C1712.48 69.2149 1719.79 66.3837 1727.64 64.5572C1735.5 62.548 1743.17 61.5434 1750.66 61.5434C1764.72 61.5434 1775.32 64.3745 1782.44 70.0368C1789.56 75.6991 1793.12 81.7267 1793.12 88.1196C1793.12 93.5992 1790.38 98.5309 1784.91 102.915C1779.43 107.298 1771.02 109.49 1759.7 109.49C1759.88 100.175 1757.96 93.4166 1753.95 89.2155C1749.93 84.8318 1745.63 82.64 1741.07 82.64C1737.78 82.64 1735.04 83.6446 1732.85 85.6538C1730.66 87.663 1729.56 90.5854 1729.56 94.4212C1729.56 98.8049 1730.93 102.641 1733.67 105.928C1736.59 109.034 1740.15 111.865 1744.36 114.422C1748.74 116.796 1753.21 119.08 1757.78 121.271C1763.99 124.194 1769.84 127.299 1775.32 130.587C1780.8 133.875 1785.27 137.619 1788.74 141.82C1792.21 146.021 1793.95 151.135 1793.95 157.163C1793.95 165.382 1790.57 173.054 1783.81 180.177C1777.23 187.118 1768.38 192.781 1757.23 197.164C1746.09 201.365 1733.94 203.466 1720.79 203.466ZM1869.6 202.918C1855.9 202.918 1844.57 200.178 1835.62 194.698C1826.67 189.219 1820.01 182.004 1815.62 173.054C1811.42 163.921 1809.32 154.24 1809.32 144.012C1809.32 134.331 1811.06 124.65 1814.53 114.97C1818.18 105.289 1823.39 96.5217 1830.14 88.6676C1837.09 80.6308 1845.49 74.2379 1855.35 69.4889C1865.21 64.5572 1876.54 62.0914 1889.32 62.0914C1903.02 62.0914 1914.26 64.9225 1923.02 70.5848C1931.97 76.0644 1938.55 83.3706 1942.75 92.5033C1947.13 101.636 1949.33 111.408 1949.33 121.819C1949.33 131.317 1947.59 140.907 1944.12 150.587C1940.65 160.085 1935.44 168.853 1928.5 176.89C1921.75 184.744 1913.43 191.045 1903.57 195.794C1893.71 200.543 1882.38 202.918 1869.6 202.918ZM1877 179.629C1881.93 179.629 1886.04 177.072 1889.32 171.958C1892.61 166.844 1895.08 160.359 1896.72 152.505C1898.37 144.468 1899.19 136.34 1899.19 128.121C1899.19 120.815 1898.46 113.965 1897 107.572C1895.72 100.997 1893.71 95.6998 1890.97 91.6814C1888.23 87.4803 1884.67 85.3798 1880.28 85.3798C1875.53 85.3798 1871.42 87.9369 1867.95 93.0513C1864.67 98.1656 1862.2 104.65 1860.56 112.504C1858.91 120.358 1858.09 128.486 1858.09 136.888C1858.09 144.194 1858.73 151.135 1860.01 157.711C1861.47 164.104 1863.57 169.401 1866.31 173.602C1869.05 177.62 1872.61 179.629 1877 179.629ZM2053.73 202.096C2047.16 202.096 2040.95 199.813 2035.1 195.246C2029.44 190.68 2024.78 184.013 2021.13 175.246C2017.66 166.478 2015.92 155.884 2015.92 143.464C2015.92 130.678 2017.75 119.262 2021.4 109.216C2025.06 99.1702 2029.8 90.6768 2035.65 83.7359C2041.68 76.6124 2048.16 71.2241 2055.1 67.571C2062.23 63.9179 2069.17 62.0914 2075.93 62.0914C2083.41 62.0914 2090.08 64.4659 2095.93 69.2149C2101.77 73.7812 2105.79 80.9961 2107.98 90.8594C2109.62 81.7267 2110.99 73.0506 2112.09 64.8312C2113.37 56.4291 2114.01 49.0316 2114.01 42.6387C2114.01 34.2366 2112.91 28.1176 2110.72 24.2819V22.638C2114.92 17.889 2119.49 14.4186 2124.42 12.2267C2129.53 9.85221 2134.37 8.66496 2138.94 8.66496C2144.97 8.66496 2150.08 10.5828 2154.28 14.4186C2158.48 18.0717 2160.59 23.3686 2160.59 30.3095C2160.59 34.1452 2159.95 39.8075 2158.67 47.2963C2157.39 54.7852 2155.84 63.3699 2154.01 73.0506C2152.18 82.5486 2150.27 92.412 2148.26 102.641C2146.43 112.687 2144.88 122.367 2143.6 131.683C2142.32 140.815 2141.68 148.761 2141.68 155.519C2141.68 161.181 2142.23 165.748 2143.32 169.218C2144.6 172.506 2146.61 174.15 2149.35 174.15C2151.36 174.15 2153.37 173.511 2155.38 172.232C2157.57 170.771 2159.03 169.127 2159.76 167.3L2161.68 168.67C2161.68 174.698 2159.76 180.269 2155.93 185.383C2152.09 190.315 2147.25 194.333 2141.41 197.438C2135.56 200.543 2129.53 202.096 2123.32 202.096C2116.57 202.096 2111.18 200.269 2107.16 196.616C2103.32 192.781 2100.58 187.94 2098.94 182.095C2097.3 176.25 2096.38 170.223 2096.2 164.012C2090.54 177.164 2083.87 186.844 2076.2 193.055C2068.71 199.082 2061.22 202.096 2053.73 202.096ZM2072.09 167.3C2076.84 167.3 2082.14 163.008 2087.98 154.423C2093.83 145.838 2098.94 133.327 2103.32 116.888L2104.97 108.394C2102.04 101.636 2098.85 96.887 2095.38 94.1472C2092.09 91.2247 2088.89 89.7635 2085.79 89.7635C2081.22 89.7635 2076.93 92.3207 2072.91 97.435C2068.89 102.367 2065.61 108.76 2063.05 116.614C2060.67 124.285 2059.49 132.413 2059.49 140.998C2059.49 149.217 2060.67 155.702 2063.05 160.451C2065.42 165.017 2068.44 167.3 2072.09 167.3ZM2273.75 202.37C2267.36 202.37 2261.78 200.269 2257.04 196.068C2252.29 191.867 2249.91 185.018 2249.91 175.52C2249.91 174.606 2249.91 173.693 2249.91 172.78C2249.91 171.867 2250 170.953 2250.19 170.04C2244.71 180.999 2238.5 189.127 2231.56 194.424C2224.8 199.539 2217.95 202.096 2211.01 202.096C2204.61 202.096 2198.59 199.904 2192.92 195.52C2187.26 190.954 2182.7 184.287 2179.22 175.52C2175.75 166.752 2174.02 156.158 2174.02 143.738C2174.02 130.952 2175.75 119.536 2179.22 109.49C2182.88 99.4442 2187.63 90.9507 2193.47 84.0099C2199.32 77.069 2205.71 71.8634 2212.65 68.3929C2219.59 64.7398 2226.35 62.9133 2232.93 62.9133C2240.23 62.9133 2246.81 65.1965 2252.65 69.7628C2258.5 74.1465 2262.52 81.1787 2264.71 90.8594C2265.25 87.7543 2265.62 84.9231 2265.8 82.366C2266.17 79.8088 2266.35 78.0736 2266.35 77.1603C2266.53 72.2287 2269 68.5756 2273.75 66.2011C2278.68 63.8266 2284.07 62.6393 2289.91 62.6393C2295.03 62.6393 2299.87 63.6439 2304.43 65.6531C2309 67.6623 2312.11 71.0414 2313.75 75.7904L2314.3 77.4343C2312.11 82.366 2309.91 88.3023 2307.72 95.2431C2305.53 102.184 2303.52 109.49 2301.69 117.162C2299.87 124.65 2298.41 132.048 2297.31 139.354C2296.21 146.478 2295.67 152.779 2295.67 158.259C2295.67 164.286 2296.31 168.488 2297.58 170.862C2298.86 173.054 2300.42 174.15 2302.24 174.15C2305.35 174.15 2308.18 171.958 2310.74 167.574L2312.93 168.67C2312.93 174.88 2310.92 180.543 2306.9 185.657C2302.88 190.771 2297.86 194.881 2291.83 197.986C2285.8 200.909 2279.78 202.37 2273.75 202.37ZM2229.09 167.574C2233.84 167.574 2239.04 163.373 2244.71 154.971C2250.55 146.386 2255.57 134.149 2259.78 118.258C2260.14 116.614 2260.51 115.061 2260.87 113.6C2261.24 111.956 2261.51 110.403 2261.69 108.942C2258.77 102.184 2255.67 97.435 2252.38 94.6952C2249.27 91.7727 2246.17 90.3115 2243.06 90.3115C2238.5 90.3115 2234.2 92.7773 2230.19 97.709C2226.35 102.458 2223.15 108.486 2220.6 115.792C2218.22 123.098 2217.03 130.404 2217.03 137.71C2217.03 147.756 2218.13 155.245 2220.32 160.177C2222.7 165.108 2225.62 167.574 2229.09 167.574Z" fill="#171717"/>
<path fill-rule="evenodd" clip-rule="evenodd" d="M758.854 194.834C787.259 122.673 860.6 61.4732 962.245 14.8781C966.274 14.7958 970.282 14.7994 974.263 14.8887C832.36 131.184 843.278 186.582 863.689 290.142C866.073 302.237 868.586 314.99 871.001 328.573C890.875 440.377 732.619 544.122 583.062 570.129C600.334 563.732 634.877 544.967 672.572 517.664C739.973 468.845 750.785 431.077 757.884 406.282C759.951 399.06 761.704 392.938 764.448 387.965C768.581 380.476 773.116 374.416 777.562 368.478C797.463 341.892 815.548 317.733 787.467 178.603C786.274 175.819 783.413 173.241 781.518 185.205C779.624 197.168 781.617 276.436 782.851 314.574C779.184 318.96 771.379 325.598 769.497 317.066C767.615 308.535 761.814 232.671 759.148 195.806C759.053 195.485 758.955 195.16 758.854 194.834ZM571.547 571.683C570.946 571.871 570.345 572.057 569.742 572.242C570.394 572.148 571.045 572.053 571.697 571.957C571.633 571.874 571.582 571.783 571.547 571.683Z" fill="#DD211C"/>
<path d="M962.245 14.8781L962.206 12.9688L961.809 12.9769L961.449 13.1421L962.245 14.8781ZM758.854 194.834L757.077 194.134L756.831 194.758L757.03 195.399L758.854 194.834ZM974.263 14.8887L975.473 16.3657L979.464 13.0952L974.305 12.9795L974.263 14.8887ZM863.689 290.142L861.815 290.511L863.689 290.142ZM871.001 328.573L869.12 328.907L871.001 328.573ZM583.062 570.129L582.398 568.338L583.389 572.01L583.062 570.129ZM672.572 517.664L673.693 519.21L672.572 517.664ZM757.884 406.282L759.72 406.808L757.884 406.282ZM764.448 387.965L762.776 387.042L764.448 387.965ZM777.562 368.478L779.09 369.622L777.562 368.478ZM787.467 178.603L789.339 178.225L789.3 178.032L789.223 177.851L787.467 178.603ZM781.518 185.205L783.405 185.503L781.518 185.205ZM782.851 314.574L784.316 315.799L784.783 315.241L784.759 314.513L782.851 314.574ZM769.497 317.066L771.362 316.655L769.497 317.066ZM759.148 195.806L761.053 195.668L761.038 195.463L760.98 195.265L759.148 195.806ZM571.547 571.683L573.345 571.04L572.727 569.311L570.975 569.86L571.547 571.683ZM569.742 572.242L569.183 570.415L570.013 574.132L569.742 572.242ZM571.697 571.957L571.977 573.846L575.226 573.366L573.201 570.78L571.697 571.957ZM961.449 13.1421C859.624 59.8202 785.747 121.298 757.077 194.134L760.631 195.533C788.77 124.047 861.577 63.1262 963.041 16.6141L961.449 13.1421ZM974.305 12.9795C970.298 12.8896 966.262 12.886 962.206 12.9688L962.284 16.7874C966.286 16.7057 970.267 16.7092 974.22 16.7979L974.305 12.9795ZM865.563 289.773C855.337 237.891 847.641 198.639 859.937 157.842C872.226 117.066 904.607 74.4433 975.473 16.3657L973.052 13.4116C902.015 71.6292 868.904 114.853 856.28 156.74C843.662 198.606 851.63 238.833 861.815 290.511L865.563 289.773ZM872.881 328.238C870.463 314.635 867.946 301.866 865.563 289.773L861.815 290.511C864.2 302.608 866.71 315.344 869.12 328.907L872.881 328.238ZM583.389 572.01C658.439 558.959 735.69 526.408 791.736 483.035C847.708 439.72 883.006 385.2 872.881 328.238L869.12 328.907C878.869 383.749 844.976 437.004 789.399 480.014C733.897 522.966 657.241 555.291 582.734 568.247L583.389 572.01ZM671.452 516.117C633.827 543.369 599.443 562.025 582.398 568.338L583.725 571.92C601.226 565.438 635.927 546.564 673.693 519.21L671.452 516.117ZM756.048 405.756C752.508 418.121 748.091 433.534 736.236 451.929C724.373 470.336 705 491.817 671.452 516.117L673.693 519.21C707.545 494.691 727.278 472.879 739.446 453.998C751.622 435.106 756.161 419.238 759.72 406.808L756.048 405.756ZM762.776 387.042C759.906 392.243 758.098 398.596 756.048 405.756L759.72 406.808C761.805 399.523 763.502 393.632 766.12 388.887L762.776 387.042ZM776.033 367.334C771.593 373.264 766.981 379.422 762.776 387.042L766.12 388.887C770.18 381.529 774.64 375.568 779.09 369.622L776.033 367.334ZM785.596 178.981C799.625 248.494 802.071 289.064 798.614 315.497C795.179 341.76 785.92 354.125 776.033 367.334L779.09 369.622C789.104 356.245 798.838 343.238 802.401 315.992C805.942 288.917 803.39 247.842 789.339 178.225L785.596 178.981ZM783.405 185.503C783.868 182.575 784.376 180.648 784.855 179.437C785.376 178.121 785.715 178.035 785.549 178.11C785.083 178.323 784.79 177.974 784.979 178.156C785.182 178.35 785.461 178.77 785.712 179.355L789.223 177.851C788.877 177.044 788.351 176.097 787.622 175.399C786.881 174.688 785.53 173.92 783.963 174.636C782.695 175.215 781.889 176.553 781.304 178.031C780.677 179.615 780.116 181.852 779.632 184.906L783.405 185.503ZM784.759 314.513C784.143 295.45 783.336 266.11 782.921 240.044C782.713 227.009 782.603 214.804 782.663 205.114C782.724 195.352 782.959 188.32 783.405 185.503L779.632 184.906C779.131 188.071 778.904 195.434 778.844 205.091C778.784 214.821 778.894 227.059 779.102 240.104C779.518 266.198 780.325 295.56 780.942 314.636L784.759 314.513ZM767.632 317.478C768.162 319.878 769.222 321.739 771.031 322.613C772.811 323.472 774.72 323.083 776.261 322.418C779.328 321.094 782.431 318.053 784.316 315.799L781.386 313.349C779.603 315.482 776.97 317.952 774.748 318.911C773.644 319.387 773.019 319.331 772.692 319.173C772.394 319.029 771.773 318.521 771.362 316.655L767.632 317.478ZM757.243 195.943C758.576 214.38 760.694 242.569 762.713 267.217C763.723 279.541 764.709 290.986 765.56 299.886C766.404 308.714 767.13 315.202 767.632 317.478L771.362 316.655C770.923 314.665 770.218 308.471 769.362 299.523C768.513 290.647 767.529 279.223 766.52 266.905C764.502 242.273 762.385 214.097 761.053 195.668L757.243 195.943ZM757.03 195.399C757.129 195.717 757.224 196.034 757.316 196.346L760.98 195.265C760.882 194.936 760.782 194.603 760.678 194.268L757.03 195.399ZM570.975 569.86C570.379 570.047 569.782 570.232 569.183 570.415L570.301 574.068C570.908 573.882 571.513 573.694 572.118 573.505L570.975 569.86ZM570.013 574.132C570.667 574.038 571.322 573.943 571.977 573.846L571.418 570.068C570.769 570.164 570.12 570.258 569.471 570.351L570.013 574.132ZM573.201 570.78C573.264 570.86 573.312 570.95 573.345 571.04L569.748 572.325C569.852 572.616 570.002 572.889 570.194 573.134L573.201 570.78Z" fill="white"/>
<path fill-rule="evenodd" clip-rule="evenodd" d="M966.105 12.47C866.638 18.6225 674.296 58.914 631.415 161.002C608.087 216.539 620.935 259.768 633.797 303.046C655.486 376.023 677.215 449.137 525.596 581.635C541.155 579.46 556.069 576.055 570.291 571.596C569.008 567.957 586.791 552.736 634.4 523.014C754.744 447.885 742.745 399.581 727.638 380.303C704.266 336.906 704.55 329.258 706.091 287.662C706.831 267.696 707.861 239.907 706.703 196.587C706.157 176.156 718.031 189.706 720.29 198.577C720.802 200.251 721.08 208.249 721.475 219.605C722.418 246.665 724.023 292.792 731.037 317.835C737.265 329.95 739.926 324.682 742.925 318.746C743.394 317.818 743.87 316.874 744.37 315.978C743.948 287.685 743.656 224.419 745.862 197.697C748.001 171.795 754.394 184.41 757.6 194.75C786.478 121.383 861.807 59.347 966.105 12.47Z" fill="#F27127"/>
<path d="M631.415 161.002L629.654 160.262L631.415 161.002ZM966.105 12.47L966.888 14.2119L965.987 10.564L966.105 12.47ZM633.797 303.046L635.627 302.502L635.627 302.502L633.797 303.046ZM525.596 581.635L524.339 580.197L519.514 584.413L525.86 583.526L525.596 581.635ZM570.291 571.596L570.863 573.419L572.751 572.827L572.092 570.961L570.291 571.596ZM634.4 523.014L635.411 524.634L634.4 523.014ZM727.638 380.303L725.957 381.209L726.034 381.353L726.135 381.481L727.638 380.303ZM706.091 287.662L707.999 287.733L706.091 287.662ZM706.703 196.587L708.612 196.536L706.703 196.587ZM720.29 198.577L718.439 199.048L718.45 199.092L718.463 199.136L720.29 198.577ZM721.475 219.605L719.567 219.671L721.475 219.605ZM731.037 317.835L729.198 318.35L729.251 318.536L729.339 318.708L731.037 317.835ZM742.925 318.746L741.221 317.885L742.925 318.746ZM744.37 315.978L746.038 316.908L746.288 316.461L746.28 315.949L744.37 315.978ZM745.862 197.697L747.765 197.854L745.862 197.697ZM757.6 194.75L755.776 195.315L757.386 200.508L759.377 195.449L757.6 194.75ZM633.176 161.741C654.283 111.492 712.386 76.1321 778.185 52.5579C843.861 29.0276 916.63 17.4436 966.223 14.3761L965.987 10.564C916.113 13.649 842.978 25.287 776.896 48.9623C710.937 72.5939 651.429 108.424 629.654 160.262L633.176 161.741ZM635.627 302.502C622.766 259.228 610.134 216.597 633.176 161.741L629.654 160.262C606.04 216.481 619.103 260.309 631.966 303.59L635.627 302.502ZM526.852 583.073C602.798 516.706 635.598 464.984 646.541 420.476C657.489 375.95 646.462 338.958 635.627 302.502L631.966 303.59C642.821 340.112 653.503 376.165 642.833 419.564C632.158 462.982 600.014 514.066 524.339 580.197L526.852 583.073ZM569.72 569.774C555.596 574.201 540.786 577.583 525.331 579.743L525.86 583.526C541.525 581.336 556.541 577.908 570.863 573.419L569.72 569.774ZM572.092 570.961C572.221 571.326 571.991 571.337 572.395 570.61C572.743 569.981 573.401 569.102 574.471 567.949C576.599 565.657 580.095 562.558 585.185 558.593C595.345 550.677 611.63 539.481 635.411 524.634L633.389 521.394C609.561 536.27 593.149 547.546 582.837 555.58C577.69 559.59 574.006 562.836 571.672 565.351C570.512 566.601 569.619 567.74 569.055 568.757C568.546 569.674 568.041 570.957 568.491 572.232L572.092 570.961ZM635.411 524.634C695.702 486.995 723.187 455.877 733.571 431.462C744.032 406.865 737.068 389.24 729.141 379.126L726.135 381.481C733.316 390.644 739.905 406.81 730.056 429.967C720.13 453.306 693.442 483.904 633.389 521.394L635.411 524.634ZM729.32 379.398C717.636 357.704 711.986 345.154 709.39 332.911C706.791 320.653 707.226 308.601 707.999 287.733L704.183 287.592C703.415 308.32 702.937 320.889 705.654 333.703C708.374 346.533 714.269 359.506 725.957 381.209L729.32 379.398ZM707.999 287.733C708.74 267.751 709.771 239.915 708.612 196.536L704.794 196.638C705.95 239.898 704.922 267.64 704.183 287.592L707.999 287.733ZM708.612 196.536C708.546 194.061 708.671 192.175 708.918 190.775C709.169 189.352 709.524 188.561 709.819 188.159C710.068 187.819 710.222 187.809 710.294 187.804C710.461 187.793 710.836 187.849 711.449 188.223C712.686 188.979 714.178 190.592 715.533 192.688C716.869 194.752 717.936 197.072 718.439 199.048L722.14 198.106C721.514 195.646 720.249 192.946 718.74 190.613C717.251 188.312 715.385 186.151 713.439 184.963C712.461 184.366 711.289 183.909 710.038 183.993C708.693 184.084 707.559 184.779 706.737 185.903C705.959 186.965 705.459 188.398 705.157 190.11C704.85 191.845 704.723 194.005 704.794 196.638L708.612 196.536ZM718.463 199.136C718.524 199.334 718.626 199.95 718.733 201.143C718.834 202.268 718.928 203.751 719.019 205.556C719.201 209.166 719.369 213.987 719.567 219.671L723.384 219.538C723.187 213.867 723.018 209.011 722.834 205.364C722.742 203.542 722.645 202.001 722.537 200.801C722.436 199.669 722.311 198.657 722.116 198.018L718.463 199.136ZM719.567 219.671C720.038 233.197 720.676 251.533 722.075 269.624C723.472 287.682 725.637 305.635 729.198 318.35L732.876 317.32C729.424 304.992 727.278 287.361 725.883 269.329C724.491 251.331 723.855 233.073 723.384 219.538L719.567 219.671ZM729.339 318.708C730.925 321.794 732.376 323.965 733.783 325.306C735.22 326.676 736.916 327.435 738.74 326.889C740.327 326.414 741.454 325.076 742.261 323.88C743.111 322.62 743.896 321.059 744.63 319.607L741.221 317.885C740.455 319.4 739.783 320.724 739.095 321.744C738.365 322.826 737.875 323.161 737.644 323.23C737.587 323.247 737.519 323.26 737.373 323.209C737.194 323.147 736.876 322.977 736.418 322.541C735.48 321.647 734.263 319.934 732.736 316.962L729.339 318.708ZM744.63 319.607C745.101 318.673 745.561 317.764 746.038 316.908L742.703 315.048C742.18 315.984 741.686 316.964 741.221 317.885L744.63 319.607ZM746.28 315.949C745.857 287.63 745.568 224.464 747.765 197.854L743.959 197.54C741.743 224.373 742.039 287.74 742.461 316.006L746.28 315.949ZM747.765 197.854C748.298 191.403 749.083 187.59 749.912 185.585C750.337 184.558 750.66 184.29 750.702 184.262C750.702 184.262 750.701 184.263 750.698 184.265C750.695 184.267 750.691 184.269 750.685 184.272C750.673 184.277 750.657 184.284 750.636 184.29C750.592 184.304 750.542 184.311 750.492 184.312C750.39 184.312 750.363 184.281 750.432 184.318C750.617 184.417 750.986 184.724 751.492 185.426C751.974 186.094 752.482 186.981 752.996 188.04C754.023 190.155 754.991 192.784 755.776 195.315L759.424 194.184C758.606 191.546 757.572 188.721 756.432 186.372C755.862 185.199 755.246 184.101 754.59 183.192C753.958 182.316 753.177 181.453 752.229 180.948C751.157 180.376 749.849 180.271 748.639 181.049C747.61 181.709 746.908 182.854 746.383 184.125C745.311 186.717 744.495 191.039 743.959 197.54L747.765 197.854ZM965.322 10.7282C860.845 57.6854 784.97 119.999 755.823 194.05L759.377 195.449C787.985 122.768 862.768 61.0085 966.888 14.2119L965.322 10.7282Z" fill="white"/>
</svg>
