<svg width="2936" height="876" viewBox="0 0 2936 876" fill="none" xmlns="http://www.w3.org/2000/svg">
<path d="M198.671 816.054C196.489 816.054 194.308 815.898 192.126 815.586C190.256 815.586 188.231 815.431 186.049 815.119C184.179 801.719 182.777 788.318 181.842 774.917C180.907 761.829 180.284 749.363 179.972 737.521C165.013 744.377 149.587 747.805 133.694 747.805C113.749 747.805 94.8944 742.351 77.1309 731.444C59.6791 720.536 45.4995 703.863 34.5921 681.425C23.6847 658.987 18.2309 630.784 18.2309 596.815C18.2309 563.781 23.373 535.266 33.6571 511.27C43.9413 487.274 57.3418 467.484 73.8587 451.902C90.3756 436.32 108.295 424.79 127.617 417.31C146.938 409.831 165.637 406.091 183.712 406.091C199.917 406.091 214.72 408.896 228.121 414.506C241.521 419.803 252.117 427.439 259.908 437.411C268.011 447.072 272.062 458.759 272.062 472.471C272.062 483.69 268.945 494.285 262.713 504.258C256.48 514.23 246.975 522.333 234.198 528.566C221.42 534.487 205.215 537.448 185.582 537.448C188.698 528.41 190.88 520.307 192.126 513.14C193.373 505.972 193.996 499.739 193.996 494.441C193.996 482.599 191.503 474.652 186.517 470.601C181.53 466.238 175.765 464.056 169.221 464.056C156.443 464.056 144.913 469.822 134.629 481.352C124.344 492.883 116.242 507.998 110.321 526.696C104.399 545.083 101.439 564.872 101.439 586.064C101.439 616.293 107.36 639.977 119.202 657.117C131.045 674.258 145.848 682.828 163.611 682.828C170.467 682.828 177.635 681.425 185.114 678.621V678.153C185.114 654.78 187.14 636.238 191.191 622.525C195.554 608.502 201.008 598.529 207.552 592.608C214.408 586.687 221.42 583.726 228.588 583.726C236.379 583.726 243.703 586.375 250.559 591.673C257.726 596.971 263.648 603.827 268.322 612.241C272.997 620.344 275.334 629.226 275.334 638.887C275.334 647.612 272.841 656.494 267.855 665.532C263.18 674.258 255.077 682.205 243.547 689.372C242.924 691.865 242.456 694.358 242.144 696.852C241.833 699.345 241.677 701.838 241.677 704.331C241.677 712.745 243.391 722.25 246.819 732.846C250.559 743.442 256.324 758.245 264.115 777.255C262.245 784.422 257.882 790.967 251.026 796.888C244.482 802.809 236.535 807.484 227.186 810.912C218.148 814.34 208.643 816.054 198.671 816.054ZM472.69 747.337C461.783 747.337 452.277 743.753 444.175 736.586C436.072 729.418 432.021 717.731 432.021 701.526C432.021 699.968 432.021 698.41 432.021 696.852C432.021 695.293 432.177 693.735 432.488 692.177C423.139 710.875 412.543 724.743 400.701 733.781C389.17 742.507 377.484 746.87 365.642 746.87C354.734 746.87 344.45 743.13 334.789 735.651C325.128 727.86 317.337 716.485 311.416 701.526C305.495 686.567 302.534 668.492 302.534 647.301C302.534 625.486 305.495 606.008 311.416 588.868C317.649 571.728 325.752 557.237 335.724 545.394C345.697 533.552 356.604 524.67 368.446 518.749C380.289 512.516 391.819 509.4 403.038 509.4C415.504 509.4 426.723 513.296 436.695 521.087C446.668 528.566 453.524 540.564 457.264 557.081C458.199 551.783 458.822 546.953 459.134 542.59C459.757 538.227 460.068 535.266 460.068 533.708C460.38 525.294 464.587 519.061 472.69 515.01C481.104 510.958 490.298 508.933 500.27 508.933C508.996 508.933 517.254 510.647 525.045 514.075C532.836 517.503 538.134 523.268 540.939 531.371L541.874 534.175C538.134 542.59 534.395 552.718 530.655 564.56C526.915 576.403 523.487 588.868 520.371 601.957C517.254 614.734 514.761 627.356 512.891 639.821C511.022 651.975 510.087 662.727 510.087 672.076C510.087 682.36 511.177 689.528 513.359 693.579C515.54 697.319 518.189 699.189 521.306 699.189C526.604 699.189 531.434 695.449 535.797 687.97L539.537 689.84C539.537 700.435 536.109 710.096 529.253 718.822C522.397 727.548 513.826 734.56 503.542 739.858C493.258 744.844 482.974 747.337 472.69 747.337ZM396.494 687.97C404.597 687.97 413.478 680.802 423.139 666.467C433.112 651.82 441.682 630.94 448.849 603.827C449.473 601.022 450.096 598.373 450.719 595.88C451.343 593.075 451.81 590.426 452.122 587.933C447.135 576.403 441.838 568.3 436.228 563.625C430.93 558.639 425.632 556.146 420.334 556.146C412.543 556.146 405.22 560.353 398.364 568.768C391.819 576.87 386.366 587.154 382.003 599.62C377.951 612.085 375.926 624.551 375.926 637.017C375.926 654.157 377.795 666.934 381.535 675.348C385.586 683.763 390.573 687.97 396.494 687.97Z" fill="#F27127"/>
<path d="M1027.4 722.87C1017.43 722.87 1007.93 720.688 998.888 716.325C990.162 711.651 982.994 704.483 977.385 694.822C972.087 685.161 969.438 672.852 969.438 657.893C969.438 649.79 970.217 639.194 971.775 626.106C973.334 613.017 975.359 598.681 977.852 583.099C980.657 567.517 983.462 551.935 986.267 536.353C980.034 536.665 973.957 537.288 968.036 538.223C962.426 539.158 956.817 540.249 951.207 541.495L950.272 538.223C956.505 530.744 963.049 524.355 969.906 519.057C976.762 513.759 983.929 509.396 991.409 505.968C995.46 485.4 998.888 467.637 1001.69 452.678C1004.5 437.407 1005.9 428.37 1005.9 425.565C1005.9 420.267 1009.95 415.904 1018.05 412.476C1026.47 409.048 1035.82 407.334 1046.1 407.334C1055.14 407.334 1063.55 409.048 1071.34 412.476C1079.45 415.904 1084.9 421.67 1087.71 429.772C1085.84 431.642 1083.19 438.654 1079.76 450.808C1076.33 462.65 1072.75 477.142 1069.01 494.282C1074.93 494.593 1081.01 494.905 1087.24 495.217C1093.47 495.528 1099.86 495.996 1106.4 496.619C1107.03 498.489 1107.49 500.515 1107.81 502.696C1108.12 504.878 1108.27 507.215 1108.27 509.708C1108.27 514.383 1107.49 519.525 1105.94 525.134C1104.69 530.432 1103.13 535.262 1101.26 539.625C1093.78 539.002 1086.77 538.379 1080.23 537.756C1073.68 536.821 1067.29 536.197 1061.06 535.886C1058.57 549.286 1056.23 562.687 1054.05 576.087C1052.18 589.488 1050.62 601.642 1049.37 612.549C1048.44 623.457 1047.97 632.027 1047.97 638.26C1047.97 651.348 1050.31 660.074 1054.98 664.437C1059.97 668.8 1065.89 670.982 1072.75 670.982C1078.98 670.982 1084.59 669.735 1089.58 667.242C1094.56 664.749 1098.15 661.788 1100.33 658.36L1105 659.763C1103.13 672.54 1098.15 683.759 1090.04 693.42C1081.94 702.769 1072.28 710.093 1061.06 715.39C1049.84 720.377 1038.62 722.87 1027.4 722.87ZM1180.51 722.87C1169.3 722.87 1159.32 718.351 1150.6 709.313C1141.87 699.964 1137.51 686.875 1137.51 670.047C1137.51 661.944 1138.44 652.751 1140.31 642.467C1142.18 632.183 1144.36 621.743 1146.86 611.147C1149.35 600.239 1151.53 590.111 1153.4 580.762C1155.27 571.101 1156.21 563.154 1156.21 556.921C1156.21 550.377 1154.96 545.235 1152.47 541.495C1150.29 537.444 1147.32 535.418 1143.59 535.418C1137.66 535.418 1131.59 539.47 1125.35 547.572L1122.55 545.702C1122.24 540.716 1123.33 534.795 1125.82 527.939C1128.31 521.083 1132.21 514.538 1137.51 508.306C1142.81 501.761 1149.51 496.307 1157.61 491.944C1166.02 487.582 1175.84 485.4 1187.06 485.4C1203.58 485.4 1215.57 490.23 1223.05 499.891C1230.53 509.241 1234.27 520.615 1234.27 534.016C1234.27 536.197 1234.12 538.535 1233.81 541.028C1233.81 543.209 1233.65 545.391 1233.34 547.572C1244.56 527.316 1256.24 511.889 1268.4 501.294C1280.86 490.386 1292.39 484.933 1302.99 484.933C1312.96 484.933 1320.29 488.828 1324.96 496.619C1329.63 504.41 1331.97 513.759 1331.97 524.667C1331.97 534.639 1329.95 544.767 1325.89 555.052C1322.16 565.336 1316.39 573.906 1308.6 580.762C1301.12 587.306 1291.93 590.423 1281.02 590.111L1279.15 589.176C1278.84 581.074 1276.19 574.685 1271.2 570.01C1266.22 565.336 1260.61 562.998 1254.37 562.998C1245.96 562.998 1238.01 567.206 1230.53 575.62C1223.37 584.034 1219.78 596.188 1219.78 612.082C1219.78 621.743 1220.87 632.183 1223.05 643.402C1225.24 654.621 1226.33 664.126 1226.33 671.917C1226.33 681.266 1224.14 689.836 1219.78 697.627C1215.42 705.418 1209.81 711.651 1202.95 716.325C1196.1 720.688 1188.62 722.87 1180.51 722.87ZM1438.63 724.272C1415.26 724.272 1395.94 719.598 1380.67 710.248C1365.4 700.899 1354.02 688.589 1346.54 673.319C1339.38 657.737 1335.79 641.22 1335.79 623.768C1335.79 607.251 1338.75 590.734 1344.67 574.217C1350.91 557.701 1359.79 542.742 1371.32 529.341C1383.16 515.629 1397.5 504.722 1414.33 496.619C1431.15 488.205 1450.48 483.998 1472.29 483.998C1495.66 483.998 1514.83 488.828 1529.79 498.489C1545.06 507.838 1556.28 520.304 1563.44 535.886C1570.92 551.468 1574.66 568.141 1574.66 585.904C1574.66 602.109 1571.7 618.47 1565.78 634.987C1559.86 651.193 1550.98 666.151 1539.14 679.863C1527.61 693.264 1513.43 704.016 1496.6 712.118C1479.77 720.221 1460.45 724.272 1438.63 724.272ZM1451.25 684.538C1459.67 684.538 1466.68 680.175 1472.29 671.449C1477.9 662.723 1482.11 651.66 1484.91 638.26C1487.72 624.547 1489.12 610.679 1489.12 596.656C1489.12 584.19 1487.87 572.503 1485.38 561.596C1483.2 550.377 1479.77 541.339 1475.09 534.483C1470.42 527.316 1464.34 523.732 1456.86 523.732C1448.76 523.732 1441.75 528.095 1435.83 536.821C1430.22 545.547 1426.01 556.61 1423.21 570.01C1420.4 583.411 1419 597.279 1419 611.614C1419 624.08 1420.09 635.922 1422.27 647.141C1424.77 658.049 1428.35 667.086 1433.02 674.254C1437.7 681.11 1443.78 684.538 1451.25 684.538ZM1656.65 722.402C1645.12 722.402 1634.68 717.884 1625.33 708.846C1615.98 699.497 1611.3 686.564 1611.3 670.047C1611.3 661.944 1612.4 652.751 1614.58 642.467C1616.76 632.183 1619.1 621.743 1621.59 611.147C1624.39 600.551 1626.89 590.579 1629.07 581.229C1631.25 571.88 1632.34 564.245 1632.34 558.324C1632.34 552.091 1631.09 547.261 1628.6 543.833C1626.11 540.093 1622.84 538.223 1618.78 538.223C1613.49 538.223 1607.72 541.339 1601.49 547.572L1598.68 545.702C1598.37 540.716 1599.46 534.795 1601.96 527.939C1604.45 521.083 1608.19 514.538 1613.17 508.306C1618.47 501.761 1625.17 496.307 1633.28 491.944C1641.38 487.582 1651.04 485.4 1662.26 485.4C1678.77 485.4 1690.93 490.23 1698.72 499.891C1706.82 509.241 1710.87 520.771 1710.87 534.483C1710.87 539.47 1710.41 544.3 1709.47 548.975C1716.02 539.314 1724.12 529.653 1733.78 519.992C1743.44 510.02 1754.04 501.761 1765.57 495.217C1777.41 488.672 1789.56 485.4 1802.03 485.4C1816.68 485.4 1826.65 490.075 1831.95 499.424C1837.24 508.773 1839.89 520.46 1839.89 534.483C1839.89 547.572 1838.49 561.596 1835.69 576.555C1832.88 591.514 1830.08 606.005 1827.27 620.029C1824.47 633.741 1823.06 645.271 1823.06 654.621C1823.06 667.086 1826.65 673.319 1833.82 673.319C1837.56 673.319 1840.83 672.228 1843.63 670.047C1846.44 667.554 1848.31 665.216 1849.24 663.035L1852.51 664.437C1852.51 675.968 1849.24 686.096 1842.7 694.822C1836.46 703.548 1828.52 710.404 1818.86 715.39C1809.2 720.065 1799.38 722.402 1789.41 722.402C1777.25 722.402 1766.5 718.195 1757.15 709.781C1747.8 701.367 1743.13 687.655 1743.13 668.644C1743.13 657.425 1744.53 645.271 1747.34 632.183C1750.45 619.094 1753.41 606.472 1756.22 594.318C1759.02 582.164 1760.42 572.192 1760.42 564.401C1760.42 559.726 1759.49 556.142 1757.62 553.649C1756.06 550.844 1753.1 549.442 1748.74 549.442C1741.57 549.442 1733.62 552.714 1724.9 559.259C1716.48 565.803 1709.16 574.529 1702.93 585.437C1697.01 596.344 1694.05 608.342 1694.05 621.431C1694.05 629.845 1694.98 637.948 1696.85 645.739C1699.03 653.53 1700.12 661.944 1700.12 670.982C1700.12 687.81 1695.76 700.588 1687.03 709.313C1678.31 718.039 1668.18 722.402 1656.65 722.402ZM1979.13 724.272C1955.76 724.272 1936.44 719.598 1921.17 710.248C1905.9 700.899 1894.52 688.589 1887.04 673.319C1879.88 657.737 1876.29 641.22 1876.29 623.768C1876.29 607.251 1879.25 590.734 1885.17 574.217C1891.41 557.701 1900.29 542.742 1911.82 529.341C1923.66 515.629 1938 504.722 1954.83 496.619C1971.65 488.205 1990.98 483.998 2012.79 483.998C2036.16 483.998 2055.33 488.828 2070.29 498.489C2085.56 507.838 2096.78 520.304 2103.95 535.886C2111.43 551.468 2115.16 568.141 2115.16 585.904C2115.16 602.109 2112.2 618.47 2106.28 634.987C2100.36 651.193 2091.48 666.151 2079.64 679.863C2068.11 693.264 2053.93 704.016 2037.1 712.118C2020.27 720.221 2000.95 724.272 1979.13 724.272ZM1991.76 684.538C2000.17 684.538 2007.18 680.175 2012.79 671.449C2018.4 662.723 2022.61 651.66 2025.41 638.26C2028.22 624.547 2029.62 610.679 2029.62 596.656C2029.62 584.19 2028.37 572.503 2025.88 561.596C2023.7 550.377 2020.27 541.339 2015.6 534.483C2010.92 527.316 2004.84 523.732 1997.36 523.732C1989.26 523.732 1982.25 528.095 1976.33 536.821C1970.72 545.547 1966.51 556.61 1963.71 570.01C1960.9 583.411 1959.5 597.279 1959.5 611.614C1959.5 624.08 1960.59 635.922 1962.77 647.141C1965.27 658.049 1968.85 667.086 1973.52 674.254C1978.2 681.11 1984.28 684.538 1991.76 684.538ZM2194.77 722.87C2183.55 722.87 2173.42 718.351 2164.38 709.313C2155.66 699.964 2151.29 687.187 2151.29 670.982C2151.29 662.879 2152.39 653.686 2154.57 643.402C2156.75 632.806 2159.09 622.054 2161.58 611.147C2164.38 600.239 2166.88 589.955 2169.06 580.294C2171.24 570.634 2172.33 562.531 2172.33 555.987C2172.33 550.689 2171.08 546.482 2168.59 543.365C2166.1 539.937 2162.83 538.223 2158.77 538.223C2153.48 538.223 2147.71 541.339 2141.48 547.572L2138.67 545.702C2138.36 540.716 2139.45 534.795 2141.95 527.939C2144.44 521.083 2148.49 514.538 2154.1 508.306C2159.71 501.761 2167.03 496.307 2176.07 491.944C2185.11 487.582 2195.86 485.4 2208.32 485.4C2222.35 485.4 2232.79 490.386 2239.64 500.359C2246.81 510.02 2250.4 521.706 2250.4 535.418C2250.4 536.976 2250.4 538.691 2250.4 540.56C2250.4 542.119 2250.24 543.677 2249.93 545.235C2255.85 535.574 2262.71 526.225 2270.5 517.187C2278.6 508.15 2287.64 500.67 2297.61 494.749C2307.89 488.516 2318.96 485.4 2330.8 485.4C2346.07 485.4 2356.67 490.386 2362.59 500.359C2368.51 510.02 2371.47 521.083 2371.47 533.548C2371.47 536.042 2371.31 538.535 2371 541.028C2371 543.209 2370.84 545.391 2370.53 547.572C2377.08 537.911 2384.25 528.406 2392.04 519.057C2400.14 509.396 2409.33 501.45 2419.62 495.217C2429.9 488.672 2441.74 485.4 2455.14 485.4C2471.66 485.4 2482.88 490.23 2488.8 499.891C2495.03 509.552 2498.15 520.927 2498.15 534.016C2498.15 545.547 2496.75 558.791 2493.94 573.75C2491.14 588.397 2488.33 602.888 2485.53 617.224C2482.72 631.559 2481.32 643.713 2481.32 653.686C2481.32 659.607 2482.1 664.437 2483.66 668.177C2485.53 671.917 2488.49 673.787 2492.54 673.787C2495.97 673.787 2499.08 672.852 2501.89 670.982C2505.01 668.8 2507.19 666.307 2508.43 663.502L2512.17 664.905C2512.17 676.435 2508.9 686.564 2502.36 695.29C2495.81 704.016 2487.55 710.872 2477.58 715.858C2467.61 720.533 2457.64 722.87 2447.66 722.87C2435.51 722.87 2424.76 718.819 2415.41 710.716C2406.37 702.613 2401.85 689.213 2401.85 670.514C2401.85 658.984 2403.26 646.518 2406.06 633.117C2409.18 619.717 2412.14 606.784 2414.94 594.318C2418.06 581.541 2419.62 571.101 2419.62 562.998C2419.62 551.468 2415.57 545.702 2407.46 545.702C2401.54 545.702 2395.62 548.196 2389.7 553.182C2384.09 557.856 2378.95 564.245 2374.27 572.348C2369.91 580.139 2366.33 588.397 2363.52 597.123C2360.72 605.849 2359.31 614.263 2359.31 622.366C2359.31 629.845 2360.09 638.104 2361.65 647.141C2363.52 655.867 2364.46 664.281 2364.46 672.384C2364.46 688.589 2359.94 701.055 2350.9 709.781C2341.86 718.507 2331.27 722.87 2319.11 722.87C2307.89 722.87 2297.77 719.13 2288.73 711.651C2280 704.171 2275.64 692.952 2275.64 677.994C2275.64 671.138 2276.57 662.879 2278.44 653.218C2280.31 643.246 2282.34 632.962 2284.52 622.366C2287.01 611.458 2289.2 601.019 2291.06 591.046C2292.93 581.074 2293.87 572.348 2293.87 564.868C2293.87 558.947 2292.93 554.273 2291.06 550.844C2289.51 547.416 2286.23 545.702 2281.25 545.702C2274.08 545.702 2267.22 549.286 2260.68 556.454C2254.14 563.622 2248.53 572.348 2243.85 582.632C2239.18 592.604 2236.06 602.265 2234.5 611.614C2234.19 613.796 2233.88 615.51 2233.57 616.756C2233.57 618.003 2233.57 618.626 2233.57 618.626C2233.57 628.287 2234.66 637.169 2236.84 645.271C2239.02 653.062 2240.11 661.165 2240.11 669.579C2240.11 684.85 2235.44 697.627 2226.09 707.911C2217.05 717.884 2206.61 722.87 2194.77 722.87ZM2623.39 470.909C2610.92 470.909 2600.64 467.169 2592.54 459.69C2584.75 451.899 2580.85 442.238 2580.85 430.707C2580.85 418.242 2585.52 407.49 2594.87 398.452C2604.22 389.415 2615.6 384.896 2629 384.896C2641.46 384.896 2651.59 388.792 2659.38 396.583C2667.49 404.374 2671.54 414.034 2671.54 425.565C2671.54 438.031 2666.86 448.782 2657.51 457.82C2648.16 466.546 2636.79 470.909 2623.39 470.909ZM2590.67 722.87C2578.51 722.87 2567.61 718.663 2557.94 710.248C2548.28 701.522 2543.45 687.655 2543.45 668.644C2543.45 657.737 2544.86 647.609 2547.66 638.26C2550.78 628.599 2554.2 619.249 2557.94 610.212C2562 601.174 2565.42 592.448 2568.23 584.034C2571.35 575.308 2572.9 566.738 2572.9 558.324C2572.9 550.844 2571.66 545.547 2569.16 542.43C2566.67 539.002 2563.71 537.288 2560.28 537.288C2554.98 537.288 2549.84 540.716 2544.86 547.572L2541.58 545.702C2542.83 533.237 2546.73 522.641 2553.27 513.915C2560.13 504.878 2568.38 497.866 2578.05 492.879C2588.02 487.893 2597.83 485.4 2607.5 485.4C2619.34 485.4 2629.62 489.296 2638.35 497.087C2647.07 504.566 2651.44 516.876 2651.44 534.016C2651.44 544.3 2649.88 555.207 2646.76 566.738C2643.96 577.957 2640.53 589.176 2636.48 600.395C2632.74 611.614 2629.31 622.054 2626.19 631.715C2623.39 641.376 2621.99 649.634 2621.99 656.49C2621.99 662.412 2623.08 666.619 2625.26 669.112C2627.75 671.605 2630.4 672.852 2633.21 672.852C2636.01 672.852 2638.66 672.072 2641.15 670.514C2643.96 668.644 2645.98 666.619 2647.23 664.437L2650.5 665.372C2650.5 676.903 2647.39 687.031 2641.15 695.757C2635.23 704.171 2627.75 710.872 2618.71 715.858C2609.68 720.533 2600.33 722.87 2590.67 722.87ZM2855.85 723.337C2844.94 723.337 2835.44 719.753 2827.34 712.586C2819.23 705.418 2815.18 693.731 2815.18 677.526C2815.18 675.968 2815.18 674.41 2815.18 672.852C2815.18 671.293 2815.34 669.735 2815.65 668.177C2806.3 686.875 2795.71 700.743 2783.86 709.781C2772.33 718.507 2760.65 722.87 2748.8 722.87C2737.9 722.87 2727.61 719.13 2717.95 711.651C2708.29 703.86 2700.5 692.485 2694.58 677.526C2688.66 662.567 2685.7 644.492 2685.7 623.301C2685.7 601.486 2688.66 582.008 2694.58 564.868C2700.81 547.728 2708.91 533.237 2718.89 521.394C2728.86 509.552 2739.77 500.67 2751.61 494.749C2763.45 488.516 2774.98 485.4 2786.2 485.4C2798.67 485.4 2809.88 489.296 2819.86 497.087C2829.83 504.566 2836.69 516.564 2840.43 533.081C2841.36 527.783 2841.98 522.953 2842.3 518.59C2842.92 514.227 2843.23 511.266 2843.23 509.708C2843.54 501.294 2847.75 495.061 2855.85 491.01C2864.27 486.958 2873.46 484.933 2883.43 484.933C2892.16 484.933 2900.42 486.647 2908.21 490.075C2916 493.503 2921.3 499.268 2924.1 507.371L2925.04 510.175C2921.3 518.59 2917.56 528.718 2913.82 540.56C2910.08 552.403 2906.65 564.868 2903.53 577.957C2900.42 590.734 2897.92 603.356 2896.05 615.821C2894.18 627.975 2893.25 638.727 2893.25 648.076C2893.25 658.36 2894.34 665.528 2896.52 669.579C2898.7 673.319 2901.35 675.189 2904.47 675.189C2909.77 675.189 2914.6 671.449 2918.96 663.97L2922.7 665.84C2922.7 676.435 2919.27 686.096 2912.41 694.822C2905.56 703.548 2896.99 710.56 2886.7 715.858C2876.42 720.844 2866.14 723.337 2855.85 723.337ZM2779.66 663.97C2787.76 663.97 2796.64 656.802 2806.3 642.467C2816.27 627.82 2824.84 606.94 2832.01 579.827C2832.63 577.022 2833.26 574.373 2833.88 571.88C2834.5 569.075 2834.97 566.426 2835.28 563.933C2830.3 552.403 2825 544.3 2819.39 539.625C2814.09 534.639 2808.79 532.146 2803.5 532.146C2795.71 532.146 2788.38 536.353 2781.53 544.768C2774.98 552.87 2769.53 563.154 2765.16 575.62C2761.11 588.085 2759.09 600.551 2759.09 613.017C2759.09 630.157 2760.96 642.934 2764.7 651.348C2768.75 659.763 2773.73 663.97 2779.66 663.97Z" fill="#F27127"/>
<path d="M1077.6 330.096C1071.39 330.096 1065.82 327.813 1060.89 323.246C1055.96 318.497 1053.49 310.552 1053.49 299.41C1053.49 292.104 1054.5 283.976 1056.51 275.026C1058.7 266.076 1061.26 256.852 1064.18 247.353C1067.28 237.673 1070.39 228.357 1073.49 219.407C1076.6 210.457 1079.16 202.329 1081.17 195.023C1083.17 187.717 1084.18 181.963 1084.18 177.762C1084.18 172.831 1082.26 170.365 1078.43 170.365C1073.86 170.365 1069.57 173.013 1065.55 178.31C1061.53 183.424 1057.06 190.639 1052.12 199.955L1050.48 199.407C1050.48 184.977 1054.32 172.465 1061.99 161.871C1069.66 151.095 1079.98 142.784 1092.95 136.939C1106.1 131.094 1120.71 128.172 1136.78 128.172C1153.04 128.172 1166.19 131.003 1176.24 136.665C1186.47 142.145 1193.95 149.359 1198.7 158.309C1203.64 167.077 1206.1 176.484 1206.1 186.53C1206.1 195.114 1204.46 203.699 1201.17 212.284C1198.06 220.686 1193.5 228.357 1187.47 235.298C1181.63 242.239 1174.68 247.81 1166.65 252.011C1158.61 256.212 1149.75 258.313 1140.07 258.313C1130.03 258.313 1119.61 255.756 1108.84 250.641C1106.46 259.591 1104.36 268.724 1102.54 278.039C1100.71 287.172 1099.8 296.579 1099.8 306.26C1099.8 311.009 1100.07 315.758 1100.62 320.507C1097.51 323.612 1093.86 325.986 1089.66 327.63C1085.64 329.274 1081.62 330.096 1077.6 330.096ZM1121.44 230.915C1128.75 230.915 1135.14 228.905 1140.62 224.887C1146.1 220.686 1150.3 215.48 1153.22 209.27C1156.33 202.877 1157.88 196.484 1157.88 190.091C1157.88 182.603 1155.41 175.936 1150.48 170.091C1145.73 164.246 1137.88 161.323 1126.92 161.323C1125.46 161.323 1123.72 161.415 1121.71 161.597C1119.89 161.78 1117.97 162.054 1115.96 162.419C1117.42 166.986 1118.34 171.552 1118.7 176.118C1119.25 180.502 1119.52 184.794 1119.52 188.995C1119.52 196.302 1118.98 203.334 1117.88 210.092C1116.78 216.85 1115.5 223.517 1114.04 230.093C1116.6 230.641 1119.07 230.915 1121.44 230.915ZM1310.81 330.37C1304.42 330.37 1298.85 328.269 1294.1 324.068C1289.35 319.867 1286.97 313.018 1286.97 303.52C1286.97 302.606 1286.97 301.693 1286.97 300.78C1286.97 299.867 1287.06 298.953 1287.25 298.04C1281.77 308.999 1275.56 317.127 1268.62 322.424C1261.86 327.539 1255.01 330.096 1248.07 330.096C1241.67 330.096 1235.65 327.904 1229.98 323.52C1224.32 318.954 1219.76 312.287 1216.29 303.52C1212.82 294.752 1211.08 284.158 1211.08 271.738C1211.08 258.952 1212.82 247.536 1216.29 237.49C1219.94 227.444 1224.69 218.951 1230.53 212.01C1236.38 205.069 1242.77 199.863 1249.71 196.393C1256.65 192.74 1263.41 190.913 1269.99 190.913C1277.29 190.913 1283.87 193.196 1289.71 197.763C1295.56 202.147 1299.58 209.179 1301.77 218.859C1302.32 215.754 1302.68 212.923 1302.86 210.366C1303.23 207.809 1303.41 206.074 1303.41 205.16C1303.59 200.229 1306.06 196.576 1310.81 194.201C1315.74 191.827 1321.13 190.639 1326.97 190.639C1332.09 190.639 1336.93 191.644 1341.5 193.653C1346.06 195.662 1349.17 199.041 1350.81 203.79L1351.36 205.434C1349.17 210.366 1346.97 216.302 1344.78 223.243C1342.59 230.184 1340.58 237.49 1338.76 245.162C1336.93 252.65 1335.47 260.048 1334.37 267.354C1333.28 274.478 1332.73 280.779 1332.73 286.259C1332.73 292.286 1333.37 296.488 1334.65 298.862C1335.92 301.054 1337.48 302.15 1339.3 302.15C1342.41 302.15 1345.24 299.958 1347.8 295.574L1349.99 296.67C1349.99 302.88 1347.98 308.543 1343.96 313.657C1339.94 318.771 1334.92 322.881 1328.89 325.986C1322.86 328.909 1316.84 330.37 1310.81 330.37ZM1266.15 295.574C1270.9 295.574 1276.1 291.373 1281.77 282.971C1287.61 274.386 1292.64 262.149 1296.84 246.258C1297.2 244.614 1297.57 243.061 1297.93 241.6C1298.3 239.956 1298.57 238.403 1298.75 236.942C1295.83 230.184 1292.73 225.435 1289.44 222.695C1286.33 219.773 1283.23 218.311 1280.12 218.311C1275.56 218.311 1271.26 220.777 1267.25 225.709C1263.41 230.458 1260.21 236.486 1257.66 243.792C1255.28 251.098 1254.1 258.404 1254.1 265.71C1254.1 275.756 1255.19 283.245 1257.38 288.177C1259.76 293.108 1262.68 295.574 1266.15 295.574ZM1397.79 330.096C1391.21 330.096 1385.36 327.447 1380.25 322.15C1375.14 316.671 1372.58 308.999 1372.58 299.136C1372.58 294.387 1373.13 288.999 1374.22 282.971C1375.32 276.944 1376.6 270.825 1378.06 264.614C1379.52 258.221 1380.8 252.285 1381.89 246.806C1382.99 241.143 1383.54 236.486 1383.54 232.832C1383.54 228.997 1382.81 225.983 1381.35 223.791C1380.07 221.417 1378.33 220.229 1376.14 220.229C1372.67 220.229 1369.11 222.604 1365.46 227.353L1363.81 226.257C1363.63 223.334 1364.27 219.864 1365.73 215.846C1367.19 211.827 1369.47 207.991 1372.58 204.338C1375.68 200.503 1379.61 197.306 1384.36 194.749C1389.29 192.192 1395.05 190.913 1401.62 190.913C1411.3 190.913 1418.33 193.744 1422.72 199.407C1427.1 204.886 1429.29 211.553 1429.29 219.407C1429.29 220.686 1429.2 222.056 1429.02 223.517C1429.02 224.796 1428.93 226.074 1428.75 227.353C1435.32 215.48 1442.17 206.439 1449.29 200.229C1456.6 193.836 1463.36 190.639 1469.57 190.639C1475.41 190.639 1479.71 192.923 1482.45 197.489C1485.19 202.055 1486.56 207.535 1486.56 213.928C1486.56 219.773 1485.37 225.709 1482.99 231.737C1480.8 237.764 1477.42 242.787 1472.86 246.806C1468.47 250.641 1463.08 252.468 1456.69 252.285L1455.6 251.737C1455.41 246.988 1453.86 243.244 1450.94 240.504C1448.02 237.764 1444.73 236.394 1441.07 236.394C1436.14 236.394 1431.49 238.86 1427.1 243.792C1422.9 248.723 1420.8 255.847 1420.8 265.162C1420.8 270.825 1421.44 276.944 1422.72 283.519C1424 290.095 1424.64 295.666 1424.64 300.232C1424.64 305.712 1423.36 310.735 1420.8 315.301C1418.24 319.867 1414.95 323.52 1410.94 326.26C1406.92 328.817 1402.53 330.096 1397.79 330.096ZM1590.94 330.37C1584.55 330.37 1578.98 328.269 1574.23 324.068C1569.48 319.867 1567.11 313.018 1567.11 303.52C1567.11 302.606 1567.11 301.693 1567.11 300.78C1567.11 299.867 1567.2 298.953 1567.38 298.04C1561.9 308.999 1555.69 317.127 1548.75 322.424C1541.99 327.539 1535.14 330.096 1528.2 330.096C1521.81 330.096 1515.78 327.904 1510.12 323.52C1504.46 318.954 1499.89 312.287 1496.42 303.52C1492.95 294.752 1491.22 284.158 1491.22 271.738C1491.22 258.952 1492.95 247.536 1496.42 237.49C1500.07 227.444 1504.82 218.951 1510.67 212.01C1516.51 205.069 1522.91 199.863 1529.85 196.393C1536.79 192.74 1543.55 190.913 1550.12 190.913C1557.43 190.913 1564 193.196 1569.85 197.763C1575.69 202.147 1579.71 209.179 1581.9 218.859C1582.45 215.754 1582.82 212.923 1583 210.366C1583.36 207.809 1583.55 206.074 1583.55 205.16C1583.73 200.229 1586.2 196.576 1590.94 194.201C1595.88 191.827 1601.26 190.639 1607.11 190.639C1612.22 190.639 1617.06 191.644 1621.63 193.653C1626.2 195.662 1629.3 199.041 1630.95 203.79L1631.49 205.434C1629.3 210.366 1627.11 216.302 1624.92 223.243C1622.73 230.184 1620.72 237.49 1618.89 245.162C1617.06 252.65 1615.6 260.048 1614.51 267.354C1613.41 274.478 1612.86 280.779 1612.86 286.259C1612.86 292.286 1613.5 296.488 1614.78 298.862C1616.06 301.054 1617.61 302.15 1619.44 302.15C1622.54 302.15 1625.37 299.958 1627.93 295.574L1630.12 296.67C1630.12 302.88 1628.11 308.543 1624.1 313.657C1620.08 318.771 1615.05 322.881 1609.03 325.986C1603 328.909 1596.97 330.37 1590.94 330.37ZM1546.29 295.574C1551.03 295.574 1556.24 291.373 1561.9 282.971C1567.75 274.386 1572.77 262.149 1576.97 246.258C1577.34 244.614 1577.7 243.061 1578.07 241.6C1578.43 239.956 1578.71 238.403 1578.89 236.942C1575.97 230.184 1572.86 225.435 1569.57 222.695C1566.47 219.773 1563.36 218.311 1560.26 218.311C1555.69 218.311 1551.4 220.777 1547.38 225.709C1543.55 230.458 1540.35 236.486 1537.79 243.792C1535.42 251.098 1534.23 258.404 1534.23 265.71C1534.23 275.756 1535.33 283.245 1537.52 288.177C1539.89 293.108 1542.82 295.574 1546.29 295.574ZM1696.57 182.42C1689.26 182.42 1683.24 180.228 1678.49 175.844C1673.92 171.278 1671.64 165.616 1671.64 158.857C1671.64 151.551 1674.38 145.25 1679.86 139.953C1685.34 134.656 1692 132.007 1699.86 132.007C1707.16 132.007 1713.1 134.29 1717.67 138.857C1722.42 143.423 1724.79 149.085 1724.79 155.844C1724.79 163.15 1722.05 169.451 1716.57 174.748C1711.09 179.863 1704.43 182.42 1696.57 182.42ZM1677.39 330.096C1670.27 330.096 1663.88 327.63 1658.21 322.698C1652.55 317.584 1649.72 309.456 1649.72 298.314C1649.72 291.921 1650.54 285.985 1652.19 280.505C1654.01 274.843 1656.02 269.363 1658.21 264.066C1660.59 258.769 1662.6 253.655 1664.24 248.723C1666.07 243.609 1666.98 238.586 1666.98 233.654C1666.98 229.271 1666.25 226.166 1664.79 224.339C1663.33 222.33 1661.59 221.325 1659.58 221.325C1656.48 221.325 1653.46 223.334 1650.54 227.353L1648.62 226.257C1649.35 218.951 1651.64 212.74 1655.47 207.626C1659.49 202.329 1664.33 198.219 1669.99 195.297C1675.84 192.375 1681.59 190.913 1687.26 190.913C1694.2 190.913 1700.22 193.196 1705.34 197.763C1710.45 202.147 1713.01 209.361 1713.01 219.407C1713.01 225.435 1712.1 231.828 1710.27 238.586C1708.63 245.162 1706.62 251.737 1704.24 258.313C1702.05 264.888 1700.04 271.007 1698.21 276.67C1696.57 282.332 1695.75 287.172 1695.75 291.191C1695.75 294.661 1696.39 297.127 1697.67 298.588C1699.13 300.049 1700.68 300.78 1702.32 300.78C1703.97 300.78 1705.52 300.323 1706.98 299.41C1708.63 298.314 1709.81 297.127 1710.54 295.848L1712.46 296.396C1712.46 303.154 1710.64 309.091 1706.98 314.205C1703.51 319.137 1699.13 323.064 1693.83 325.986C1688.53 328.726 1683.05 330.096 1677.39 330.096ZM1777.79 331.466C1766.47 331.466 1757.06 329.913 1749.57 326.808C1742.08 323.703 1736.51 319.776 1732.86 315.027C1729.21 310.095 1727.38 305.164 1727.38 300.232C1727.38 293.291 1730.49 287.172 1736.7 281.875C1742.91 276.396 1751.31 273.656 1761.9 273.656C1761.9 282.971 1763.09 290.46 1765.46 296.122C1767.84 301.602 1770.85 305.529 1774.51 307.903C1778.34 310.278 1781.99 311.465 1785.47 311.465C1789.67 311.465 1793.14 310.278 1795.88 307.903C1798.8 305.346 1800.26 302.241 1800.26 298.588C1800.26 293.474 1797.61 288.999 1792.31 285.163C1787.02 281.327 1780.17 277.035 1771.77 272.286C1767.56 269.729 1763 266.806 1758.07 263.518C1753.14 260.048 1748.93 255.938 1745.46 251.189C1741.99 246.258 1740.26 240.413 1740.26 233.654C1740.26 226.531 1742.27 220.229 1746.29 214.75C1750.49 209.27 1755.97 204.704 1762.72 201.051C1769.48 197.215 1776.79 194.384 1784.64 192.557C1792.5 190.548 1800.17 189.543 1807.66 189.543C1821.72 189.543 1832.32 192.375 1839.44 198.037C1846.56 203.699 1850.12 209.727 1850.12 216.12C1850.12 221.599 1847.38 226.531 1841.91 230.915C1836.43 235.298 1828.02 237.49 1816.7 237.49C1816.88 228.175 1814.96 221.417 1810.95 217.216C1806.93 212.832 1802.63 210.64 1798.07 210.64C1794.78 210.64 1792.04 211.645 1789.85 213.654C1787.66 215.663 1786.56 218.585 1786.56 222.421C1786.56 226.805 1787.93 230.641 1790.67 233.928C1793.59 237.034 1797.15 239.865 1801.36 242.422C1805.74 244.796 1810.21 247.08 1814.78 249.271C1820.99 252.194 1826.84 255.299 1832.32 258.587C1837.8 261.875 1842.27 265.619 1845.74 269.82C1849.21 274.021 1850.95 279.135 1850.95 285.163C1850.95 293.382 1847.57 301.054 1840.81 308.177C1834.23 315.118 1825.38 320.781 1814.23 325.164C1803.09 329.365 1790.94 331.466 1777.79 331.466ZM1926.6 330.918C1912.9 330.918 1901.57 328.178 1892.62 322.698C1883.67 317.219 1877.01 310.004 1872.62 301.054C1868.42 291.921 1866.32 282.24 1866.32 272.012C1866.32 262.331 1868.06 252.65 1871.53 242.97C1875.18 233.289 1880.39 224.522 1887.14 216.668C1894.09 208.631 1902.49 202.238 1912.35 197.489C1922.21 192.557 1933.54 190.091 1946.32 190.091C1960.02 190.091 1971.26 192.922 1980.02 198.585C1988.97 204.064 1995.55 211.371 1999.75 220.503C2004.13 229.636 2006.33 239.408 2006.33 249.819C2006.33 259.317 2004.59 268.907 2001.12 278.587C1997.65 288.085 1992.44 296.853 1985.5 304.89C1978.75 312.744 1970.43 319.045 1960.57 323.794C1950.71 328.543 1939.38 330.918 1926.6 330.918ZM1934 307.629C1938.93 307.629 1943.04 305.072 1946.32 299.958C1949.61 294.844 1952.08 288.359 1953.72 280.505C1955.37 272.468 1956.19 264.34 1956.19 256.121C1956.19 248.815 1955.46 241.965 1954 235.572C1952.72 228.997 1950.71 223.7 1947.97 219.681C1945.23 215.48 1941.67 213.38 1937.28 213.38C1932.53 213.38 1928.42 215.937 1924.95 221.051C1921.67 226.166 1919.2 232.65 1917.56 240.504C1915.91 248.358 1915.09 256.486 1915.09 264.888C1915.09 272.194 1915.73 279.135 1917.01 285.711C1918.47 292.104 1920.57 297.401 1923.31 301.602C1926.05 305.62 1929.61 307.629 1934 307.629ZM2110.73 330.096C2104.16 330.096 2097.95 327.813 2092.1 323.246C2086.44 318.68 2081.78 312.013 2078.13 303.246C2074.66 294.478 2072.92 283.884 2072.92 271.464C2072.92 258.678 2074.75 247.262 2078.4 237.216C2082.06 227.17 2086.8 218.677 2092.65 211.736C2098.68 204.612 2105.16 199.224 2112.1 195.571C2119.23 191.918 2126.17 190.091 2132.93 190.091C2140.41 190.091 2147.08 192.466 2152.93 197.215C2158.77 201.781 2162.79 208.996 2164.98 218.859C2166.62 209.727 2167.99 201.051 2169.09 192.831C2170.37 184.429 2171.01 177.032 2171.01 170.639C2171.01 162.237 2169.91 156.118 2167.72 152.282V150.638C2171.92 145.889 2176.49 142.419 2181.42 140.227C2186.53 137.852 2191.37 136.665 2195.94 136.665C2201.97 136.665 2207.08 138.583 2211.28 142.419C2215.48 146.072 2217.59 151.369 2217.59 158.309C2217.59 162.145 2216.95 167.808 2215.67 175.296C2214.39 182.785 2212.84 191.37 2211.01 201.051C2209.18 210.549 2207.27 220.412 2205.26 230.641C2203.43 240.687 2201.88 250.367 2200.6 259.683C2199.32 268.815 2198.68 276.761 2198.68 283.519C2198.68 289.181 2199.23 293.748 2200.32 297.218C2201.6 300.506 2203.61 302.15 2206.35 302.15C2208.36 302.15 2210.37 301.511 2212.38 300.232C2214.57 298.771 2216.03 297.127 2216.76 295.3L2218.68 296.67C2218.68 302.698 2216.76 308.269 2212.93 313.383C2209.09 318.315 2204.25 322.333 2198.41 325.438C2192.56 328.543 2186.53 330.096 2180.32 330.096C2173.57 330.096 2168.18 328.269 2164.16 324.616C2160.32 320.781 2157.58 315.94 2155.94 310.095C2154.3 304.25 2153.38 298.223 2153.2 292.012C2147.54 305.164 2140.87 314.844 2133.2 321.055C2125.71 327.082 2118.22 330.096 2110.73 330.096ZM2129.09 295.3C2133.84 295.3 2139.14 291.008 2144.98 282.423C2150.83 273.838 2155.94 261.327 2160.32 244.888L2161.97 236.394C2159.04 229.636 2155.85 224.887 2152.38 222.147C2149.09 219.225 2145.89 217.763 2142.79 217.763C2138.22 217.763 2133.93 220.321 2129.91 225.435C2125.89 230.367 2122.61 236.76 2120.05 244.614C2117.67 252.285 2116.49 260.413 2116.49 268.998C2116.49 277.217 2117.67 283.702 2120.05 288.451C2122.42 293.017 2125.44 295.3 2129.09 295.3ZM2330.75 330.37C2324.36 330.37 2318.78 328.269 2314.04 324.068C2309.29 319.867 2306.91 313.018 2306.91 303.52C2306.91 302.606 2306.91 301.693 2306.91 300.78C2306.91 299.867 2307 298.953 2307.19 298.04C2301.71 308.999 2295.5 317.127 2288.56 322.424C2281.8 327.539 2274.95 330.096 2268.01 330.096C2261.61 330.096 2255.59 327.904 2249.92 323.52C2244.26 318.954 2239.7 312.287 2236.22 303.52C2232.75 294.752 2231.02 284.158 2231.02 271.738C2231.02 258.952 2232.75 247.536 2236.22 237.49C2239.88 227.444 2244.63 218.951 2250.47 212.01C2256.32 205.069 2262.71 199.863 2269.65 196.393C2276.59 192.74 2283.35 190.913 2289.93 190.913C2297.23 190.913 2303.81 193.196 2309.65 197.763C2315.5 202.147 2319.52 209.179 2321.71 218.859C2322.25 215.754 2322.62 212.923 2322.8 210.366C2323.17 207.809 2323.35 206.074 2323.35 205.16C2323.53 200.229 2326 196.576 2330.75 194.201C2335.68 191.827 2341.07 190.639 2346.91 190.639C2352.03 190.639 2356.87 191.644 2361.43 193.653C2366 195.662 2369.11 199.041 2370.75 203.79L2371.3 205.434C2369.11 210.366 2366.91 216.302 2364.72 223.243C2362.53 230.184 2360.52 237.49 2358.69 245.162C2356.87 252.65 2355.41 260.048 2354.31 267.354C2353.21 274.478 2352.67 280.779 2352.67 286.259C2352.67 292.286 2353.31 296.488 2354.58 298.862C2355.86 301.054 2357.42 302.15 2359.24 302.15C2362.35 302.15 2365.18 299.958 2367.74 295.574L2369.93 296.67C2369.93 302.88 2367.92 308.543 2363.9 313.657C2359.88 318.771 2354.86 322.881 2348.83 325.986C2342.8 328.909 2336.78 330.37 2330.75 330.37ZM2286.09 295.574C2290.84 295.574 2296.04 291.373 2301.71 282.971C2307.55 274.386 2312.57 262.149 2316.78 246.258C2317.14 244.614 2317.51 243.061 2317.87 241.6C2318.24 239.956 2318.51 238.403 2318.69 236.942C2315.77 230.184 2312.67 225.435 2309.38 222.695C2306.27 219.773 2303.17 218.311 2300.06 218.311C2295.5 218.311 2291.2 220.777 2287.19 225.709C2283.35 230.458 2280.15 236.486 2277.6 243.792C2275.22 251.098 2274.03 258.404 2274.03 265.71C2274.03 275.756 2275.13 283.245 2277.32 288.177C2279.7 293.108 2282.62 295.574 2286.09 295.574Z" fill="#F27127"/>
<path fill-rule="evenodd" clip-rule="evenodd" d="M786.853 368.834C815.258 296.673 888.6 235.473 990.244 188.878C994.273 188.796 998.282 188.799 1002.26 188.889C860.359 305.184 871.278 360.582 891.688 464.142C894.072 476.237 896.585 488.99 899 502.573C918.874 614.377 760.618 718.122 611.061 744.129C628.334 737.732 662.877 718.967 700.572 691.664C767.972 642.845 778.784 605.077 785.883 580.282C787.951 573.06 789.703 566.938 792.448 561.965C796.58 554.476 801.116 548.416 805.561 542.478C825.462 515.892 843.547 491.733 815.467 352.603C814.273 349.819 811.413 347.241 809.518 359.205C807.623 371.168 809.616 450.436 810.85 488.574C807.183 492.96 799.378 499.598 797.496 491.066C795.615 482.535 789.813 406.671 787.147 369.806C787.053 369.485 786.954 369.16 786.853 368.834ZM599.546 745.683C598.946 745.871 598.344 746.057 597.741 746.242C598.393 746.148 599.045 746.053 599.697 745.957C599.632 745.874 599.582 745.783 599.546 745.683Z" fill="#DD211C"/>
<path d="M990.244 188.878L990.205 186.969L989.809 186.977L989.448 187.142L990.244 188.878ZM786.853 368.834L785.076 368.134L784.83 368.758L785.029 369.399L786.853 368.834ZM1002.26 188.889L1003.47 190.366L1007.46 187.095L1002.3 186.979L1002.26 188.889ZM891.688 464.142L889.815 464.511L891.688 464.142ZM899 502.573L897.12 502.907L899 502.573ZM611.061 744.129L610.398 742.338L611.388 746.01L611.061 744.129ZM700.572 691.664L701.692 693.21L700.572 691.664ZM785.883 580.282L787.719 580.808L785.883 580.282ZM792.448 561.965L790.775 561.042L792.448 561.965ZM805.561 542.478L807.09 543.622L805.561 542.478ZM815.467 352.603L817.339 352.225L817.3 352.032L817.222 351.851L815.467 352.603ZM809.518 359.205L811.404 359.503L809.518 359.205ZM810.85 488.574L812.315 489.799L812.782 489.241L812.759 488.513L810.85 488.574ZM797.496 491.066L799.361 490.655L797.496 491.066ZM787.147 369.806L789.052 369.668L789.037 369.463L788.979 369.265L787.147 369.806ZM599.546 745.683L601.344 745.04L600.726 743.311L598.975 743.86L599.546 745.683ZM597.741 746.242L597.183 744.415L598.012 748.132L597.741 746.242ZM599.697 745.957L599.976 747.846L603.225 747.366L601.2 744.78L599.697 745.957ZM989.448 187.142C887.623 233.82 813.747 295.298 785.076 368.134L788.63 369.533C816.769 298.047 889.576 237.126 991.04 190.614L989.448 187.142ZM1002.3 186.979C998.297 186.89 994.261 186.886 990.205 186.969L990.283 190.787C994.285 190.706 998.266 190.709 1002.22 190.798L1002.3 186.979ZM893.562 463.773C883.336 411.891 875.64 372.639 887.936 331.842C900.226 291.066 932.606 248.443 1003.47 190.366L1001.05 187.412C930.015 245.629 896.903 288.853 884.279 330.74C871.661 372.606 879.629 412.833 889.815 464.511L893.562 463.773ZM900.88 502.238C898.462 488.635 895.945 475.866 893.562 463.773L889.815 464.511C892.199 476.608 894.709 489.344 897.12 502.907L900.88 502.238ZM611.388 746.01C686.438 732.959 763.689 700.408 819.736 657.035C875.707 613.72 911.005 559.2 900.88 502.238L897.12 502.907C906.868 557.749 872.976 611.004 817.398 654.014C761.896 696.966 685.24 729.291 610.734 742.247L611.388 746.01ZM699.451 690.117C661.826 717.369 627.443 736.025 610.398 742.338L611.724 745.92C629.225 739.438 663.927 720.564 701.692 693.21L699.451 690.117ZM784.047 579.756C780.507 592.121 776.091 607.534 764.235 625.929C752.373 644.336 733 665.817 699.451 690.117L701.692 693.21C735.544 668.691 755.277 646.879 767.446 627.998C779.621 609.106 784.16 593.238 787.719 580.808L784.047 579.756ZM790.775 561.042C787.905 566.243 786.097 572.596 784.047 579.756L787.719 580.808C789.804 573.523 791.501 567.632 794.12 562.887L790.775 561.042ZM804.032 541.334C799.593 547.264 794.98 553.422 790.775 561.042L794.12 562.887C798.179 555.529 802.639 549.568 807.09 543.622L804.032 541.334ZM813.595 352.981C827.624 422.494 830.07 463.064 826.613 489.497C823.179 515.76 813.919 528.125 804.032 541.334L807.09 543.622C817.104 530.245 826.837 517.238 830.4 489.992C833.941 462.917 831.389 421.842 817.339 352.225L813.595 352.981ZM811.404 359.503C811.868 356.575 812.375 354.648 812.854 353.437C813.376 352.121 813.715 352.035 813.549 352.11C813.082 352.323 812.789 351.974 812.979 352.156C813.181 352.35 813.461 352.77 813.711 353.355L817.222 351.851C816.876 351.044 816.35 350.097 815.622 349.399C814.88 348.688 813.529 347.92 811.962 348.636C810.695 349.215 809.889 350.553 809.303 352.031C808.676 353.615 808.115 355.852 807.632 358.906L811.404 359.503ZM812.759 488.513C812.142 469.45 811.336 440.11 810.92 414.044C810.712 401.009 810.602 388.804 810.663 379.114C810.723 369.352 810.958 362.32 811.404 359.503L807.632 358.906C807.13 362.071 806.903 369.434 806.843 379.091C806.783 388.821 806.893 401.059 807.101 414.104C807.517 440.198 808.324 469.56 808.941 488.636L812.759 488.513ZM795.631 491.478C796.161 493.878 797.222 495.739 799.03 496.613C800.811 497.472 802.719 497.083 804.26 496.418C807.327 495.094 810.431 492.053 812.315 489.799L809.385 487.349C807.602 489.482 804.97 491.952 802.747 492.911C801.643 493.387 801.019 493.331 800.692 493.173C800.393 493.029 799.773 492.521 799.361 490.655L795.631 491.478ZM785.243 369.943C786.576 388.38 788.693 416.569 790.712 441.217C791.722 453.541 792.708 464.986 793.559 473.886C794.404 482.714 795.129 489.202 795.631 491.478L799.361 490.655C798.922 488.665 798.217 482.471 797.361 473.523C796.512 464.647 795.528 453.223 794.519 440.905C792.501 416.273 790.385 388.097 789.052 369.668L785.243 369.943ZM785.029 369.399C785.128 369.717 785.223 370.034 785.316 370.346L788.979 369.265C788.882 368.936 788.781 368.603 788.677 368.268L785.029 369.399ZM598.975 743.86C598.379 744.047 597.781 744.232 597.183 744.415L598.3 748.068C598.907 747.882 599.513 747.694 600.117 747.505L598.975 743.86ZM598.012 748.132C598.666 748.038 599.321 747.943 599.976 747.846L599.417 744.068C598.768 744.164 598.119 744.258 597.471 744.351L598.012 748.132ZM601.2 744.78C601.263 744.86 601.312 744.95 601.344 745.04L597.747 746.325C597.852 746.616 598.001 746.889 598.193 747.134L601.2 744.78Z" fill="white"/>
<path fill-rule="evenodd" clip-rule="evenodd" d="M994.104 186.47C894.637 192.623 702.296 232.914 659.414 335.002C636.086 390.539 648.934 433.768 661.796 477.046C683.485 550.023 705.215 623.137 553.595 755.635C569.154 753.46 584.068 750.055 598.291 745.596C597.007 741.957 614.79 726.736 662.399 697.014C782.743 621.885 770.745 573.581 755.638 554.303C732.266 510.906 732.549 503.258 734.09 461.662C734.83 441.696 735.86 413.907 734.702 370.587C734.156 350.156 746.03 363.706 748.289 372.577C748.801 374.251 749.079 382.249 749.475 393.605C750.417 420.665 752.023 466.792 759.037 491.835C765.264 503.95 767.925 498.682 770.924 492.746C771.393 491.818 771.87 490.874 772.37 489.978C771.948 461.685 771.655 398.419 773.861 371.697C776 345.795 782.393 358.41 785.599 368.75C814.477 295.383 889.806 233.347 994.104 186.47Z" fill="#F27127"/>
<path d="M659.414 335.002L657.654 334.262L659.414 335.002ZM994.104 186.47L994.887 188.212L993.986 184.564L994.104 186.47ZM661.796 477.046L663.627 476.502L663.627 476.502L661.796 477.046ZM553.595 755.635L552.338 754.197L547.514 758.413L553.859 757.526L553.595 755.635ZM598.291 745.596L598.862 747.419L600.75 746.827L600.092 744.961L598.291 745.596ZM662.399 697.014L663.41 698.634L662.399 697.014ZM755.638 554.303L753.956 555.209L754.034 555.353L754.134 555.481L755.638 554.303ZM734.09 461.662L735.999 461.733L734.09 461.662ZM734.702 370.587L736.611 370.536L734.702 370.587ZM748.289 372.577L746.438 373.048L746.449 373.092L746.463 373.136L748.289 372.577ZM749.475 393.605L747.566 393.671L749.475 393.605ZM759.037 491.835L757.198 492.35L757.25 492.536L757.338 492.708L759.037 491.835ZM770.924 492.746L769.22 491.885L770.924 492.746ZM772.37 489.978L774.038 490.908L774.287 490.461L774.279 489.949L772.37 489.978ZM773.861 371.697L775.764 371.854L773.861 371.697ZM785.599 368.75L783.775 369.315L785.385 374.508L787.376 369.449L785.599 368.75ZM661.175 335.741C682.282 285.492 740.385 250.132 806.184 226.558C871.86 203.028 944.63 191.444 994.222 188.376L993.986 184.564C944.112 187.649 870.977 199.287 804.896 222.962C738.937 246.594 679.428 282.424 657.654 334.262L661.175 335.741ZM663.627 476.502C650.765 433.228 638.133 390.597 661.175 335.741L657.654 334.262C634.039 390.481 647.102 434.309 659.966 477.59L663.627 476.502ZM554.852 757.073C630.797 690.706 663.598 638.984 674.541 594.476C685.488 549.95 674.461 512.958 663.627 476.502L659.966 477.59C670.82 514.112 681.502 550.165 670.832 593.564C660.157 636.982 628.013 688.066 552.338 754.197L554.852 757.073ZM597.719 743.774C583.596 748.201 568.785 751.583 553.331 753.743L553.859 757.526C569.524 755.336 584.54 751.908 598.862 747.419L597.719 743.774ZM600.092 744.961C600.22 745.326 599.99 745.337 600.394 744.61C600.743 743.981 601.401 743.102 602.471 741.949C604.598 739.657 608.095 736.558 613.184 732.593C623.344 724.677 639.629 713.481 663.41 698.634L661.388 695.394C637.56 710.27 621.149 721.546 610.836 729.58C605.689 733.59 602.005 736.836 599.671 739.351C598.511 740.601 597.618 741.74 597.054 742.757C596.545 743.674 596.04 744.957 596.49 746.232L600.092 744.961ZM663.41 698.634C723.701 660.995 751.186 629.877 761.57 605.462C772.031 580.865 765.067 563.24 757.141 553.126L754.134 555.481C761.315 564.644 767.904 580.81 758.055 603.967C748.129 627.306 721.441 657.904 661.388 695.394L663.41 698.634ZM757.319 553.398C745.635 531.704 739.985 519.154 737.39 506.911C734.791 494.653 735.225 482.601 735.999 461.733L732.182 461.592C731.414 482.32 730.936 494.889 733.653 507.703C736.374 520.533 742.268 533.506 753.956 555.209L757.319 553.398ZM735.999 461.733C736.739 441.751 737.77 413.915 736.611 370.536L732.793 370.638C733.949 413.898 732.921 441.64 732.182 461.592L735.999 461.733ZM736.611 370.536C736.545 368.061 736.67 366.175 736.917 364.775C737.168 363.352 737.524 362.561 737.818 362.159C738.067 361.819 738.221 361.809 738.294 361.804C738.46 361.793 738.835 361.849 739.449 362.223C740.686 362.979 742.177 364.592 743.533 366.688C744.868 368.752 745.935 371.072 746.438 373.048L750.139 372.106C749.513 369.646 748.249 366.946 746.74 364.613C745.251 362.312 743.384 360.151 741.439 358.963C740.46 358.366 739.288 357.909 738.037 357.993C736.692 358.084 735.559 358.779 734.736 359.903C733.959 360.965 733.458 362.398 733.156 364.11C732.85 365.845 732.723 368.005 732.793 370.638L736.611 370.536ZM746.463 373.136C746.523 373.334 746.625 373.95 746.733 375.143C746.833 376.268 746.927 377.751 747.018 379.556C747.2 383.166 747.368 387.987 747.566 393.671L751.383 393.538C751.186 387.867 751.017 383.011 750.833 379.364C750.741 377.542 750.644 376.001 750.537 374.801C750.435 373.669 750.31 372.657 750.115 372.018L746.463 373.136ZM747.566 393.671C748.037 407.197 748.675 425.533 750.075 443.624C751.472 461.682 753.636 479.635 757.198 492.35L760.876 491.32C757.423 478.992 755.278 461.361 753.883 443.329C752.49 425.331 751.854 407.073 751.383 393.538L747.566 393.671ZM757.338 492.708C758.924 495.794 760.375 497.965 761.782 499.306C763.22 500.676 764.916 501.435 766.739 500.889C768.326 500.414 769.453 499.076 770.261 497.88C771.11 496.62 771.895 495.059 772.629 493.607L769.22 491.885C768.454 493.4 767.782 494.724 767.094 495.744C766.364 496.826 765.875 497.161 765.643 497.23C765.586 497.247 765.518 497.26 765.372 497.209C765.193 497.147 764.875 496.977 764.417 496.541C763.48 495.647 762.263 493.934 760.735 490.962L757.338 492.708ZM772.629 493.607C773.101 492.673 773.56 491.764 774.038 490.908L770.702 489.048C770.18 489.984 769.685 490.964 769.22 491.885L772.629 493.607ZM774.279 489.949C773.857 461.63 773.567 398.464 775.764 371.854L771.958 371.54C769.742 398.373 770.038 461.74 770.46 490.006L774.279 489.949ZM775.764 371.854C776.297 365.403 777.082 361.59 777.911 359.585C778.336 358.558 778.659 358.29 778.702 358.262C778.702 358.262 778.7 358.263 778.697 358.265C778.694 358.267 778.69 358.269 778.684 358.272C778.672 358.277 778.656 358.284 778.635 358.29C778.591 358.304 778.541 358.311 778.491 358.312C778.389 358.312 778.362 358.281 778.431 358.318C778.617 358.417 778.985 358.724 779.491 359.426C779.973 360.094 780.481 360.981 780.995 362.04C782.022 364.155 782.99 366.784 783.775 369.315L787.423 368.184C786.605 365.546 785.572 362.721 784.431 360.372C783.862 359.199 783.245 358.101 782.589 357.192C781.958 356.316 781.177 355.453 780.228 354.948C779.156 354.376 777.848 354.271 776.638 355.049C775.609 355.709 774.908 356.854 774.382 358.125C773.311 360.717 772.495 365.039 771.958 371.54L775.764 371.854ZM993.321 184.728C888.844 231.685 812.97 293.999 783.822 368.05L787.376 369.449C815.984 296.768 890.767 235.009 994.887 188.212L993.321 184.728Z" fill="white"/>
</svg>
