<svg width="461" height="575" viewBox="0 0 461 575" fill="none" xmlns="http://www.w3.org/2000/svg">
<path fill-rule="evenodd" clip-rule="evenodd" d="M239.853 184.834C268.258 112.673 341.599 51.4732 443.244 4.87808C447.273 4.79584 451.281 4.79939 455.262 4.88866C313.359 121.184 324.277 176.582 344.688 280.142C347.072 292.237 349.585 304.99 352 318.573C371.874 430.376 213.618 534.122 64.0607 560.129C81.3335 553.732 115.876 534.967 153.571 507.664C220.972 458.845 231.784 421.077 238.883 396.282C240.95 389.06 242.703 382.938 245.447 377.965C249.58 370.476 254.115 364.416 258.561 358.478C278.462 331.892 296.547 307.733 268.466 168.603C267.273 165.819 264.412 163.241 262.517 175.205C260.623 187.168 262.616 266.436 263.85 304.574C260.183 308.96 252.378 315.598 250.496 307.066C248.614 298.535 242.813 222.671 240.147 185.806C240.052 185.485 239.954 185.16 239.853 184.834ZM52.5456 561.683C51.9453 561.871 51.3439 562.057 50.7412 562.242C51.3927 562.148 52.0444 562.053 52.6964 561.957C52.6317 561.874 52.5814 561.783 52.5456 561.683Z" fill="#DD211C"/>
<path d="M443.244 4.87808L443.205 2.96879L442.808 2.97688L442.448 3.1421L443.244 4.87808ZM239.853 184.834L238.076 184.134L237.83 184.758L238.029 185.399L239.853 184.834ZM455.262 4.88866L456.472 6.36569L460.463 3.09515L455.304 2.97945L455.262 4.88866ZM344.688 280.142L342.814 280.511L342.814 280.511L344.688 280.142ZM352 318.573L350.119 318.907L350.119 318.907L352 318.573ZM64.0607 560.129L63.3974 558.338L64.3879 562.01L64.0607 560.129ZM153.571 507.664L154.692 509.21L154.692 509.21L153.571 507.664ZM238.883 396.282L240.719 396.808L240.719 396.808L238.883 396.282ZM245.447 377.965L243.775 377.042L243.775 377.042L245.447 377.965ZM258.561 358.478L260.09 359.622L260.09 359.622L258.561 358.478ZM268.466 168.603L270.338 168.225L270.299 168.032L270.222 167.851L268.466 168.603ZM262.517 175.205L264.404 175.503L264.404 175.503L262.517 175.205ZM263.85 304.574L265.315 305.799L265.782 305.241L265.758 304.513L263.85 304.574ZM250.496 307.066L252.361 306.655L252.361 306.655L250.496 307.066ZM240.147 185.806L242.052 185.668L242.037 185.463L241.979 185.265L240.147 185.806ZM52.5456 561.683L54.3439 561.04L53.7261 559.311L51.9743 559.86L52.5456 561.683ZM50.7412 562.242L50.1824 560.415L51.0119 564.132L50.7412 562.242ZM52.6964 561.957L52.9756 563.846L56.2246 563.366L54.2002 560.78L52.6964 561.957ZM442.448 3.1421C340.623 49.8202 266.746 111.298 238.076 184.134L241.63 185.533C269.769 114.047 342.576 53.1262 444.04 6.61405L442.448 3.1421ZM455.304 2.97945C451.297 2.88956 447.261 2.88601 443.205 2.96879L443.283 6.78736C447.285 6.70568 451.266 6.70921 455.219 6.79786L455.304 2.97945ZM346.562 279.773C336.336 227.891 328.64 188.639 340.936 147.842C353.225 107.066 385.606 64.4433 456.472 6.36569L454.051 3.41163C383.014 61.6292 349.903 104.853 337.279 146.74C324.661 188.606 332.629 228.833 342.814 280.511L346.562 279.773ZM353.88 318.238C351.462 304.635 348.945 291.866 346.562 279.773L342.814 280.511C345.199 292.608 347.709 305.344 350.119 318.907L353.88 318.238ZM64.3879 562.01C139.438 548.959 216.689 516.408 272.736 473.035C328.707 429.72 364.005 375.2 353.88 318.238L350.119 318.907C359.868 373.749 325.975 427.004 270.398 470.014C214.896 512.966 138.24 545.291 63.7335 558.247L64.3879 562.01ZM152.451 506.117C114.826 533.369 80.4423 552.025 63.3974 558.338L64.7239 561.92C82.2247 555.438 116.926 536.564 154.692 509.21L152.451 506.117ZM237.047 395.756C233.507 408.121 229.09 423.534 217.235 441.929C205.372 460.336 185.999 481.817 152.451 506.117L154.692 509.21C188.544 484.691 208.277 462.879 220.445 443.998C232.621 425.106 237.16 409.238 240.719 396.808L237.047 395.756ZM243.775 377.042C240.905 382.243 239.097 388.596 237.047 395.756L240.719 396.808C242.804 389.523 244.501 383.632 247.119 378.887L243.775 377.042ZM257.032 357.334C252.592 363.264 247.98 369.422 243.775 377.042L247.119 378.887C251.179 371.529 255.639 365.568 260.09 359.622L257.032 357.334ZM266.595 168.981C280.624 238.494 283.07 279.064 279.613 305.497C276.178 331.76 266.919 344.125 257.032 357.334L260.09 359.622C270.103 346.245 279.837 333.238 283.4 305.992C286.941 278.917 284.389 237.842 270.338 168.225L266.595 168.981ZM264.404 175.503C264.868 172.575 265.375 170.648 265.854 169.437C266.375 168.121 266.714 168.035 266.548 168.11C266.082 168.323 265.789 167.974 265.978 168.156C266.181 168.35 266.46 168.77 266.711 169.355L270.222 167.851C269.876 167.044 269.35 166.097 268.621 165.399C267.88 164.688 266.529 163.92 264.962 164.636C263.694 165.215 262.888 166.553 262.303 168.031C261.676 169.615 261.115 171.852 260.631 174.906L264.404 175.503ZM265.758 304.513C265.142 285.45 264.335 256.11 263.92 230.044C263.712 217.009 263.602 204.804 263.662 195.114C263.723 185.352 263.958 178.32 264.404 175.503L260.631 174.906C260.13 178.071 259.903 185.434 259.843 195.091C259.783 204.821 259.893 217.059 260.101 230.104C260.517 256.198 261.324 285.56 261.941 304.636L265.758 304.513ZM248.631 307.478C249.161 309.878 250.221 311.739 252.03 312.613C253.81 313.472 255.719 313.083 257.26 312.418C260.327 311.094 263.43 308.053 265.315 305.799L262.385 303.349C260.602 305.482 257.969 307.952 255.747 308.911C254.643 309.387 254.018 309.331 253.691 309.173C253.393 309.029 252.772 308.521 252.361 306.655L248.631 307.478ZM238.242 185.943C239.575 204.38 241.693 232.569 243.712 257.217C244.722 269.541 245.708 280.986 246.559 289.886C247.403 298.714 248.129 305.202 248.631 307.478L252.361 306.655C251.922 304.665 251.217 298.471 250.361 289.523C249.512 280.647 248.528 269.223 247.519 256.905C245.501 232.273 243.384 204.097 242.052 185.668L238.242 185.943ZM238.029 185.399C238.128 185.717 238.223 186.034 238.315 186.346L241.979 185.265C241.882 184.936 241.781 184.603 241.677 184.268L238.029 185.399ZM51.9743 559.86C51.3783 560.047 50.781 560.232 50.1824 560.415L51.2999 564.068C51.9068 563.882 52.5124 563.694 53.1168 563.505L51.9743 559.86ZM51.0119 564.132C51.6662 564.038 52.3208 563.943 52.9756 563.846L52.4173 560.068C51.7681 560.164 51.1191 560.258 50.4704 560.351L51.0119 564.132ZM54.2002 560.78C54.263 560.86 54.3115 560.95 54.3439 561.04L50.7472 562.325C50.8513 562.616 51.0005 562.889 51.1927 563.134L54.2002 560.78Z" fill="white"/>
<path fill-rule="evenodd" clip-rule="evenodd" d="M447.104 2.47005C347.637 8.62251 155.295 48.914 112.414 151.002C89.0859 206.539 101.934 249.768 114.796 293.046C136.485 366.023 158.214 439.137 6.59486 571.635C22.1542 569.46 37.0676 566.055 51.2904 561.596C50.0066 557.957 67.7898 542.736 115.399 513.014C235.743 437.885 223.744 389.581 208.637 370.303C185.265 326.906 185.549 319.258 187.09 277.662C187.83 257.696 188.86 229.907 187.702 186.587C187.156 166.156 199.03 179.706 201.289 188.577C201.801 190.251 202.079 198.249 202.474 209.605C203.417 236.665 205.022 282.792 212.036 307.835C218.264 319.95 220.925 314.682 223.924 308.746C224.393 307.818 224.87 306.874 225.369 305.978C224.947 277.685 224.655 214.419 226.861 187.697C229 161.795 235.393 174.41 238.599 184.75C267.477 111.383 342.806 49.347 447.104 2.47005Z" fill="#F27127"/>
<path d="M112.414 151.002L110.653 150.262L110.653 150.262L112.414 151.002ZM447.104 2.47005L447.887 4.21189L446.986 0.564008L447.104 2.47005ZM114.796 293.046L116.626 292.502L116.626 292.502L114.796 293.046ZM6.59486 571.635L5.33823 570.197L0.513402 574.413L6.85923 573.526L6.59486 571.635ZM51.2904 561.596L51.8616 563.419L53.7495 562.827L53.0913 560.961L51.2904 561.596ZM115.399 513.014L116.41 514.634L116.41 514.634L115.399 513.014ZM208.637 370.303L206.956 371.209L207.033 371.353L207.134 371.481L208.637 370.303ZM187.09 277.662L188.998 277.733L188.998 277.733L187.09 277.662ZM187.702 186.587L189.611 186.536L189.611 186.536L187.702 186.587ZM201.289 188.577L199.438 189.048L199.449 189.092L199.462 189.136L201.289 188.577ZM202.474 209.605L200.566 209.671L200.566 209.671L202.474 209.605ZM212.036 307.835L210.198 308.35L210.25 308.536L210.338 308.708L212.036 307.835ZM223.924 308.746L222.22 307.885L222.22 307.885L223.924 308.746ZM225.369 305.978L227.037 306.908L227.287 306.461L227.279 305.949L225.369 305.978ZM226.861 187.697L228.764 187.854L228.764 187.854L226.861 187.697ZM238.599 184.75L236.775 185.315L238.385 190.508L240.376 185.449L238.599 184.75ZM114.175 151.741C135.282 101.492 193.385 66.1321 259.184 42.5579C324.86 19.0276 397.629 7.4436 447.222 4.37609L446.986 0.564008C397.112 3.64895 323.977 15.287 257.895 38.9624C191.936 62.5939 132.428 98.4235 110.653 150.262L114.175 151.741ZM116.626 292.502C103.765 249.228 91.1326 206.597 114.175 151.741L110.653 150.262C87.0391 206.481 100.102 250.309 112.965 293.59L116.626 292.502ZM7.85148 573.073C83.7966 506.706 116.597 454.984 127.54 410.476C138.488 365.95 127.461 328.958 116.626 292.502L112.965 293.59C123.82 330.112 134.502 366.165 123.832 409.564C113.157 452.982 81.0126 504.066 5.33823 570.197L7.85148 573.073ZM50.7192 559.774C36.5954 564.201 21.7846 567.583 6.33048 569.743L6.85923 573.526C22.5238 571.336 37.5398 567.908 51.8616 563.419L50.7192 559.774ZM53.0913 560.961C53.2199 561.326 52.9899 561.337 53.3936 560.61C53.7423 559.981 54.4004 559.102 55.4704 557.949C57.5976 555.657 61.0943 552.558 66.1835 548.593C76.3442 540.677 92.6286 529.481 116.41 514.634L114.388 511.394C90.5602 526.27 74.1485 537.546 63.8362 545.58C58.6889 549.59 55.0049 552.836 52.6711 555.351C51.5105 556.601 50.618 557.74 50.0539 558.757C49.5449 559.674 49.0399 560.957 49.4895 562.232L53.0913 560.961ZM116.41 514.634C176.701 476.995 204.186 445.877 214.57 421.462C225.031 396.865 218.067 379.24 210.14 369.126L207.134 371.481C214.315 380.644 220.904 396.81 211.055 419.967C201.129 443.306 174.441 473.904 114.388 511.394L116.41 514.634ZM210.319 369.398C198.635 347.704 192.985 335.154 190.389 322.911C187.79 310.653 188.225 298.601 188.998 277.733L185.182 277.592C184.414 298.32 183.936 310.889 186.653 323.703C189.373 336.533 195.268 349.506 206.956 371.209L210.319 369.398ZM188.998 277.733C189.739 257.751 190.77 229.915 189.611 186.536L185.793 186.638C186.949 229.898 185.921 257.64 185.182 277.592L188.998 277.733ZM189.611 186.536C189.545 184.061 189.67 182.175 189.917 180.775C190.168 179.352 190.523 178.561 190.818 178.159C191.067 177.819 191.221 177.809 191.294 177.804C191.46 177.793 191.835 177.849 192.448 178.223C193.685 178.979 195.177 180.592 196.532 182.688C197.868 184.752 198.935 187.072 199.438 189.048L203.139 188.106C202.513 185.646 201.248 182.946 199.739 180.613C198.25 178.312 196.384 176.151 194.438 174.963C193.46 174.366 192.288 173.909 191.037 173.993C189.692 174.084 188.558 174.779 187.736 175.903C186.958 176.965 186.458 178.398 186.156 180.11C185.849 181.845 185.723 184.005 185.793 186.638L189.611 186.536ZM199.462 189.136C199.523 189.334 199.625 189.95 199.732 191.143C199.833 192.268 199.927 193.751 200.018 195.556C200.2 199.166 200.368 203.987 200.566 209.671L204.383 209.538C204.186 203.867 204.017 199.011 203.833 195.364C203.741 193.542 203.644 192.001 203.536 190.801C203.435 189.669 203.31 188.657 203.115 188.018L199.462 189.136ZM200.566 209.671C201.037 223.197 201.675 241.533 203.075 259.624C204.472 277.682 206.636 295.635 210.198 308.35L213.875 307.32C210.423 294.992 208.277 277.361 206.882 259.329C205.49 241.331 204.854 223.073 204.383 209.538L200.566 209.671ZM210.338 308.708C211.924 311.794 213.375 313.965 214.782 315.306C216.219 316.676 217.915 317.435 219.739 316.889C221.326 316.414 222.453 315.076 223.26 313.88C224.11 312.62 224.895 311.059 225.629 309.607L222.22 307.885C221.454 309.4 220.782 310.724 220.094 311.744C219.364 312.826 218.875 313.161 218.643 313.23C218.586 313.247 218.518 313.26 218.372 313.209C218.193 313.147 217.875 312.977 217.417 312.541C216.479 311.647 215.262 309.934 213.735 306.962L210.338 308.708ZM225.629 309.607C226.1 308.673 226.56 307.764 227.037 306.908L223.702 305.048C223.179 305.984 222.685 306.964 222.22 307.885L225.629 309.607ZM227.279 305.949C226.856 277.63 226.567 214.464 228.764 187.854L224.958 187.54C222.742 214.373 223.038 277.74 223.46 306.006L227.279 305.949ZM228.764 187.854C229.297 181.403 230.082 177.59 230.911 175.585C231.336 174.558 231.659 174.29 231.701 174.262C231.701 174.262 231.7 174.263 231.697 174.265C231.694 174.267 231.69 174.269 231.684 174.272C231.672 174.277 231.656 174.284 231.635 174.29C231.591 174.304 231.541 174.312 231.491 174.312C231.389 174.312 231.362 174.281 231.431 174.318C231.616 174.417 231.985 174.724 232.491 175.426C232.973 176.094 233.481 176.981 233.995 178.04C235.022 180.155 235.99 182.784 236.775 185.315L240.423 184.184C239.605 181.546 238.571 178.721 237.431 176.372C236.861 175.199 236.245 174.101 235.589 173.192C234.957 172.316 234.176 171.453 233.228 170.948C232.156 170.376 230.848 170.271 229.638 171.049C228.609 171.709 227.907 172.854 227.382 174.125C226.31 176.717 225.494 181.039 224.958 187.54L228.764 187.854ZM446.321 0.728209C341.844 47.6854 265.969 109.999 236.822 184.05L240.376 185.449C268.984 112.768 343.767 51.0085 447.887 4.21189L446.321 0.728209Z" fill="white"/>
</svg>
