<svg width="102" height="29" viewBox="0 0 102 29" fill="none" xmlns="http://www.w3.org/2000/svg">
<path d="M6.88485 25.6557C6.80925 25.6557 6.73365 25.6503 6.65806 25.6395C6.59326 25.6395 6.52306 25.6341 6.44746 25.6233C6.38266 25.1589 6.33406 24.6945 6.30166 24.2301C6.26926 23.7765 6.24766 23.3446 6.23686 22.9342C5.71848 23.1718 5.18389 23.2906 4.6331 23.2906C3.94191 23.2906 3.28853 23.1016 2.67294 22.7236C2.06816 22.3456 1.57677 21.7678 1.19877 20.9902C0.820782 20.2126 0.631786 19.2352 0.631786 18.0581C0.631786 16.9133 0.809982 15.9251 1.16637 15.0935C1.52277 14.262 1.98716 13.5762 2.55954 13.0362C3.13193 12.4962 3.75292 12.0966 4.4225 11.8374C5.09209 11.5782 5.74008 11.4486 6.36646 11.4486C6.92805 11.4486 7.44104 11.5458 7.90543 11.7402C8.36982 11.9238 8.73701 12.1884 9.00701 12.534C9.2878 12.8688 9.4282 13.2738 9.4282 13.749C9.4282 14.1378 9.3202 14.5049 9.1042 14.8505C8.88821 15.1961 8.55881 15.4769 8.11602 15.6929C7.67323 15.8981 7.11165 16.0007 6.43126 16.0007C6.53926 15.6875 6.61486 15.4067 6.65806 15.1583C6.70125 14.9099 6.72285 14.6939 6.72285 14.5103C6.72285 14.1 6.63646 13.8246 6.46366 13.6842C6.29086 13.533 6.09107 13.4574 5.86427 13.4574C5.42148 13.4574 5.02189 13.6572 4.6655 14.0568C4.30911 14.4563 4.02831 14.9801 3.82312 15.6281C3.61792 16.2653 3.51532 16.9511 3.51532 17.6855C3.51532 18.7331 3.72052 19.5538 4.13091 20.1478C4.5413 20.7418 5.05429 21.0388 5.66988 21.0388C5.90747 21.0388 6.15587 20.9902 6.41506 20.893V20.8768C6.41506 20.0668 6.48526 19.4242 6.62566 18.9491C6.77685 18.4631 6.96585 18.1175 7.19264 17.9123C7.43024 17.7071 7.67323 17.6045 7.92163 17.6045C8.19162 17.6045 8.44542 17.6963 8.68301 17.8799C8.93141 18.0635 9.1366 18.3011 9.2986 18.5927C9.46059 18.8735 9.54159 19.1812 9.54159 19.516C9.54159 19.8184 9.4552 20.1262 9.2824 20.4394C9.1204 20.7418 8.83961 21.0172 8.44002 21.2656C8.41842 21.352 8.40222 21.4384 8.39142 21.5248C8.38062 21.6112 8.37522 21.6976 8.37522 21.784C8.37522 22.0756 8.43462 22.405 8.55341 22.7722C8.68301 23.1394 8.88281 23.6523 9.1528 24.3111C9.088 24.5595 8.93681 24.7863 8.69921 24.9915C8.47242 25.1967 8.19702 25.3587 7.87303 25.4775C7.55984 25.5963 7.23044 25.6557 6.88485 25.6557ZM16.3809 23.2744C16.0029 23.2744 15.6735 23.1502 15.3927 22.9018C15.1119 22.6534 14.9715 22.2484 14.9715 21.6868C14.9715 21.6328 14.9715 21.5788 14.9715 21.5248C14.9715 21.4708 14.9769 21.4168 14.9877 21.3628C14.6637 22.0108 14.2965 22.4914 13.8861 22.8046C13.4865 23.107 13.0816 23.2582 12.6712 23.2582C12.2932 23.2582 11.9368 23.1286 11.602 22.8694C11.2672 22.5994 10.9972 22.2052 10.792 21.6868C10.5868 21.1684 10.4842 20.542 10.4842 19.8076C10.4842 19.0516 10.5868 18.3767 10.792 17.7827C11.008 17.1887 11.2888 16.6865 11.6344 16.2761C11.98 15.8657 12.358 15.5579 12.7684 15.3527C13.1788 15.1367 13.5783 15.0287 13.9671 15.0287C14.3991 15.0287 14.7879 15.1637 15.1335 15.4337C15.4791 15.6929 15.7167 16.1087 15.8463 16.6811C15.8787 16.4975 15.9003 16.3301 15.9111 16.1789C15.9327 16.0277 15.9435 15.9251 15.9435 15.8711C15.9543 15.5795 16.1001 15.3635 16.3809 15.2231C16.6725 15.0827 16.9911 15.0125 17.3367 15.0125C17.6391 15.0125 17.9252 15.0719 18.1952 15.1907C18.4652 15.3095 18.6488 15.5093 18.746 15.7901L18.7784 15.8873C18.6488 16.1789 18.5192 16.5299 18.3896 16.9403C18.26 17.3507 18.1412 17.7827 18.0332 18.2363C17.9252 18.6791 17.8389 19.1164 17.7741 19.5484C17.7093 19.9696 17.6769 20.3422 17.6769 20.6662C17.6769 21.0226 17.7147 21.271 17.7903 21.4114C17.8659 21.541 17.9576 21.6058 18.0656 21.6058C18.2492 21.6058 18.4166 21.4762 18.5678 21.217L18.6974 21.2818C18.6974 21.649 18.5786 21.9838 18.341 22.2862C18.1034 22.5886 17.8065 22.8316 17.4501 23.0152C17.0937 23.188 16.7373 23.2744 16.3809 23.2744ZM13.7403 21.217C14.0211 21.217 14.3289 20.9686 14.6637 20.4718C15.0093 19.9642 15.3063 19.2406 15.5547 18.3011C15.5763 18.2039 15.5979 18.1121 15.6195 18.0257C15.6411 17.9285 15.6573 17.8367 15.6681 17.7503C15.4953 17.3507 15.3117 17.0699 15.1173 16.9079C14.9337 16.7351 14.7501 16.6487 14.5665 16.6487C14.2965 16.6487 14.0427 16.7945 13.8051 17.0861C13.5783 17.3669 13.3893 17.7233 13.2382 18.1553C13.0978 18.5873 13.0276 19.0192 13.0276 19.4512C13.0276 20.0452 13.0924 20.488 13.222 20.7796C13.3623 21.0712 13.5351 21.217 13.7403 21.217Z" fill="#EE9333"/>
<path d="M35.7776 23.2582C35.432 23.2582 35.1026 23.1826 34.7894 23.0314C34.487 22.8694 34.2386 22.621 34.0442 22.2862C33.8606 21.9514 33.7688 21.5248 33.7688 21.0064C33.7688 20.7256 33.7958 20.3584 33.8498 19.9048C33.9038 19.4512 33.974 18.9545 34.0604 18.4145C34.1576 17.8745 34.2548 17.3345 34.352 16.7945C34.136 16.8053 33.9254 16.8269 33.7202 16.8593C33.5258 16.8917 33.3314 16.9295 33.137 16.9727L33.1046 16.8593C33.3206 16.6001 33.5474 16.3787 33.785 16.1951C34.0226 16.0115 34.271 15.8603 34.5302 15.7415C34.6706 15.0287 34.7894 14.4131 34.8866 13.8948C34.9838 13.3656 35.0324 13.0524 35.0324 12.9552C35.0324 12.7716 35.1728 12.6204 35.4536 12.5016C35.7452 12.3828 36.0691 12.3234 36.4255 12.3234C36.7387 12.3234 37.0303 12.3828 37.3003 12.5016C37.5811 12.6204 37.7701 12.8202 37.8673 13.101C37.8025 13.1658 37.7107 13.4088 37.5919 13.83C37.4731 14.2404 37.3489 14.7425 37.2193 15.3365C37.4245 15.3473 37.6351 15.3581 37.8511 15.3689C38.0671 15.3797 38.2885 15.3959 38.5153 15.4175C38.5369 15.4823 38.5531 15.5525 38.5639 15.6281C38.5747 15.7037 38.5801 15.7847 38.5801 15.8711C38.5801 16.0331 38.5531 16.2113 38.4991 16.4057C38.4559 16.5893 38.4019 16.7567 38.3371 16.9079C38.0779 16.8863 37.8349 16.8647 37.6081 16.8431C37.3813 16.8107 37.1599 16.7891 36.9439 16.7783C36.8575 17.2427 36.7765 17.7071 36.7009 18.1715C36.6361 18.6359 36.5821 19.057 36.5389 19.435C36.5065 19.813 36.4903 20.11 36.4903 20.326C36.4903 20.7796 36.5713 21.082 36.7333 21.2332C36.9061 21.3844 37.1113 21.46 37.3489 21.46C37.5649 21.46 37.7593 21.4168 37.9321 21.3304C38.1049 21.244 38.2291 21.1414 38.3047 21.0226L38.4667 21.0712C38.4019 21.514 38.2291 21.9028 37.9483 22.2376C37.6675 22.5616 37.3327 22.8154 36.9439 22.999C36.5551 23.1718 36.1663 23.2582 35.7776 23.2582ZM41.0836 23.2582C40.6948 23.2582 40.3492 23.1016 40.0468 22.7884C39.7444 22.4644 39.5932 22.0108 39.5932 21.4276C39.5932 21.1468 39.6256 20.8282 39.6904 20.4718C39.7552 20.1154 39.8308 19.7536 39.9172 19.3864C40.0036 19.0085 40.0792 18.6575 40.144 18.3335C40.2088 17.9987 40.2412 17.7233 40.2412 17.5073C40.2412 17.2805 40.198 17.1023 40.1116 16.9727C40.036 16.8323 39.9334 16.7621 39.8038 16.7621C39.5986 16.7621 39.388 16.9025 39.172 17.1833L39.0748 17.1185C39.064 16.9457 39.1018 16.7405 39.1882 16.5029C39.2746 16.2653 39.4096 16.0385 39.5932 15.8225C39.7768 15.5957 40.009 15.4067 40.2898 15.2555C40.5814 15.1043 40.9216 15.0287 41.3104 15.0287C41.8828 15.0287 42.2985 15.1961 42.5577 15.5309C42.8169 15.8549 42.9465 16.2491 42.9465 16.7135C42.9465 16.7891 42.9411 16.8701 42.9303 16.9565C42.9303 17.0321 42.9249 17.1077 42.9141 17.1833C43.3029 16.4813 43.7079 15.9467 44.1291 15.5795C44.5611 15.2015 44.9607 15.0125 45.3279 15.0125C45.6735 15.0125 45.9273 15.1475 46.0893 15.4175C46.2513 15.6875 46.3323 16.0115 46.3323 16.3895C46.3323 16.7351 46.2621 17.0861 46.1217 17.4425C45.9921 17.7989 45.7923 18.0959 45.5223 18.3335C45.2631 18.5603 44.9445 18.6683 44.5665 18.6575L44.5017 18.6251C44.4909 18.3443 44.3991 18.1229 44.2263 17.9609C44.0535 17.7989 43.8591 17.7179 43.6431 17.7179C43.3515 17.7179 43.0761 17.8637 42.8169 18.1553C42.5685 18.4469 42.4443 18.8681 42.4443 19.4188C42.4443 19.7536 42.4821 20.1154 42.5577 20.5042C42.6333 20.893 42.6711 21.2224 42.6711 21.4924C42.6711 21.8164 42.5955 22.1134 42.4443 22.3834C42.2931 22.6534 42.0987 22.8694 41.8612 23.0314C41.6236 23.1826 41.3644 23.2582 41.0836 23.2582ZM50.0286 23.3068C49.2186 23.3068 48.549 23.1448 48.0198 22.8208C47.4906 22.4968 47.0964 22.0702 46.8372 21.541C46.5888 21.001 46.4646 20.4286 46.4646 19.8238C46.4646 19.2514 46.5672 18.6791 46.7724 18.1067C46.9884 17.5343 47.2962 17.0159 47.6958 16.5515C48.1062 16.0763 48.603 15.6983 49.1862 15.4175C49.7694 15.1259 50.4389 14.9801 51.1949 14.9801C52.0049 14.9801 52.6691 15.1475 53.1875 15.4823C53.7167 15.8063 54.1055 16.2383 54.3539 16.7783C54.6131 17.3183 54.7427 17.8961 54.7427 18.5117C54.7427 19.0732 54.6401 19.6402 54.4349 20.2126C54.2297 20.7742 53.9219 21.2926 53.5115 21.7678C53.1119 22.2322 52.6205 22.6048 52.0373 22.8856C51.4541 23.1664 50.7845 23.3068 50.0286 23.3068ZM50.4659 21.9298C50.7575 21.9298 51.0005 21.7786 51.1949 21.4762C51.3893 21.1738 51.5351 20.7904 51.6323 20.326C51.7295 19.8508 51.7781 19.3702 51.7781 18.8843C51.7781 18.4523 51.7349 18.0473 51.6485 17.6693C51.5729 17.2805 51.4541 16.9673 51.2921 16.7297C51.1301 16.4813 50.9195 16.3571 50.6603 16.3571C50.3796 16.3571 50.1366 16.5083 49.9314 16.8107C49.737 17.1131 49.5912 17.4965 49.494 17.9609C49.3968 18.4253 49.3482 18.9059 49.3482 19.4026C49.3482 19.8346 49.386 20.245 49.4616 20.6338C49.548 21.0118 49.6722 21.325 49.8342 21.5734C49.9962 21.811 50.2068 21.9298 50.4659 21.9298ZM57.5838 23.242C57.1842 23.242 56.8224 23.0854 56.4984 22.7722C56.1744 22.4482 56.0124 22 56.0124 21.4276C56.0124 21.1468 56.0502 20.8282 56.1258 20.4718C56.2014 20.1154 56.2824 19.7536 56.3688 19.3864C56.466 19.0192 56.5524 18.6737 56.628 18.3497C56.7036 18.0257 56.7414 17.7611 56.7414 17.5559C56.7414 17.3399 56.6982 17.1725 56.6118 17.0537C56.5254 16.9241 56.412 16.8593 56.2716 16.8593C56.088 16.8593 55.8882 16.9673 55.6722 17.1833L55.575 17.1185C55.5642 16.9457 55.602 16.7405 55.6884 16.5029C55.7748 16.2653 55.9044 16.0385 56.0772 15.8225C56.2608 15.5957 56.493 15.4067 56.7738 15.2555C57.0546 15.1043 57.3894 15.0287 57.7782 15.0287C58.3506 15.0287 58.7718 15.1961 59.0418 15.5309C59.3226 15.8549 59.463 16.2545 59.463 16.7297C59.463 16.9025 59.4468 17.0699 59.4144 17.2319C59.6411 16.8971 59.9219 16.5623 60.2567 16.2275C60.5915 15.8819 60.9587 15.5957 61.3583 15.3689C61.7687 15.1421 62.1899 15.0287 62.6219 15.0287C63.1295 15.0287 63.4751 15.1907 63.6587 15.5147C63.8423 15.8387 63.9341 16.2437 63.9341 16.7297C63.9341 17.1833 63.8855 17.6693 63.7883 18.1877C63.6911 18.7061 63.5939 19.2082 63.4967 19.6942C63.3995 20.1694 63.3509 20.569 63.3509 20.893C63.3509 21.325 63.4751 21.541 63.7235 21.541C63.8531 21.541 63.9665 21.5032 64.0637 21.4276C64.1609 21.3412 64.2257 21.2602 64.258 21.1846L64.3714 21.2332C64.3714 21.6328 64.258 21.9838 64.0313 22.2862C63.8153 22.5886 63.5399 22.8262 63.2051 22.999C62.8703 23.161 62.5301 23.242 62.1845 23.242C61.7633 23.242 61.3907 23.0962 61.0667 22.8046C60.7427 22.513 60.5807 22.0378 60.5807 21.379C60.5807 20.9902 60.6293 20.569 60.7265 20.1154C60.8345 19.6618 60.9371 19.2244 61.0343 18.8033C61.1315 18.3821 61.1801 18.0365 61.1801 17.7665C61.1801 17.6045 61.1477 17.4803 61.0829 17.3939C61.0289 17.2967 60.9263 17.2481 60.7751 17.2481C60.5267 17.2481 60.2513 17.3615 59.9489 17.5883C59.6573 17.8151 59.4036 18.1175 59.1876 18.4955C58.9824 18.8735 58.8798 19.2892 58.8798 19.7428C58.8798 20.0344 58.9122 20.3152 58.977 20.5852C59.0526 20.8552 59.0904 21.1468 59.0904 21.46C59.0904 22.0432 58.9392 22.486 58.6368 22.7884C58.3344 23.0908 57.9834 23.242 57.5838 23.242ZM68.7594 23.3068C67.9494 23.3068 67.2798 23.1448 66.7506 22.8208C66.2215 22.4968 65.8273 22.0702 65.5681 21.541C65.3197 21.001 65.1955 20.4286 65.1955 19.8238C65.1955 19.2514 65.2981 18.6791 65.5033 18.1067C65.7193 17.5343 66.0271 17.0159 66.4267 16.5515C66.837 16.0763 67.3338 15.6983 67.917 15.4175C68.5002 15.1259 69.1698 14.9801 69.9258 14.9801C70.7358 14.9801 71.3999 15.1475 71.9183 15.4823C72.4475 15.8063 72.8363 16.2383 73.0847 16.7783C73.3439 17.3183 73.4735 17.8961 73.4735 18.5117C73.4735 19.0732 73.3709 19.6402 73.1657 20.2126C72.9605 20.7742 72.6527 21.2926 72.2423 21.7678C71.8427 22.2322 71.3513 22.6048 70.7682 22.8856C70.185 23.1664 69.5154 23.3068 68.7594 23.3068ZM69.1968 21.9298C69.4884 21.9298 69.7314 21.7786 69.9258 21.4762C70.1202 21.1738 70.266 20.7904 70.3632 20.326C70.4604 19.8508 70.509 19.3702 70.509 18.8843C70.509 18.4523 70.4658 18.0473 70.3794 17.6693C70.3038 17.2805 70.185 16.9673 70.023 16.7297C69.861 16.4813 69.6504 16.3571 69.3912 16.3571C69.1104 16.3571 68.8674 16.5083 68.6622 16.8107C68.4678 17.1131 68.322 17.4965 68.2248 17.9609C68.1276 18.4253 68.079 18.9059 68.079 19.4026C68.079 19.8346 68.1168 20.245 68.1924 20.6338C68.2788 21.0118 68.403 21.325 68.565 21.5734C68.727 21.811 68.9376 21.9298 69.1968 21.9298ZM76.2321 23.2582C75.8433 23.2582 75.4923 23.1016 75.1791 22.7884C74.8768 22.4644 74.7256 22.0216 74.7256 21.46C74.7256 21.1792 74.7634 20.8606 74.839 20.5042C74.9146 20.137 74.9955 19.7644 75.0819 19.3864C75.1791 19.0085 75.2655 18.6521 75.3411 18.3173C75.4167 17.9825 75.4545 17.7017 75.4545 17.4749C75.4545 17.2913 75.4113 17.1455 75.3249 17.0375C75.2385 16.9187 75.1251 16.8593 74.9847 16.8593C74.8012 16.8593 74.6014 16.9673 74.3854 17.1833L74.2882 17.1185C74.2774 16.9457 74.3152 16.7405 74.4016 16.5029C74.488 16.2653 74.6284 16.0385 74.8228 15.8225C75.0171 15.5957 75.2709 15.4067 75.5841 15.2555C75.8973 15.1043 76.2699 15.0287 76.7019 15.0287C77.1879 15.0287 77.5497 15.2015 77.7873 15.5471C78.0357 15.8819 78.1599 16.2869 78.1599 16.7621C78.1599 16.8161 78.1599 16.8755 78.1599 16.9403C78.1599 16.9943 78.1545 17.0483 78.1437 17.1023C78.3489 16.7675 78.5865 16.4435 78.8565 16.1303C79.1373 15.8171 79.4505 15.5579 79.796 15.3527C80.1524 15.1367 80.5358 15.0287 80.9462 15.0287C81.4754 15.0287 81.8426 15.2015 82.0478 15.5471C82.253 15.8819 82.3556 16.2653 82.3556 16.6973C82.3556 16.7837 82.3502 16.8701 82.3394 16.9565C82.3394 17.0321 82.334 17.1077 82.3232 17.1833C82.55 16.8485 82.7984 16.5191 83.0684 16.1951C83.3492 15.8603 83.6678 15.5849 84.0242 15.3689C84.3805 15.1421 84.7909 15.0287 85.2553 15.0287C85.8277 15.0287 86.2165 15.1961 86.4217 15.5309C86.6377 15.8657 86.7457 16.2599 86.7457 16.7135C86.7457 17.1131 86.6971 17.5721 86.5999 18.0905C86.5027 18.5981 86.4055 19.1002 86.3083 19.597C86.2111 20.0938 86.1625 20.515 86.1625 20.8606C86.1625 21.0658 86.1895 21.2332 86.2435 21.3628C86.3083 21.4924 86.4109 21.5572 86.5513 21.5572C86.6701 21.5572 86.7781 21.5248 86.8753 21.46C86.9833 21.3844 87.0589 21.298 87.1021 21.2008L87.2317 21.2494C87.2317 21.649 87.1183 22 86.8915 22.3024C86.6647 22.6048 86.3785 22.8424 86.0329 23.0152C85.6873 23.1772 85.3417 23.2582 84.9961 23.2582C84.5749 23.2582 84.2023 23.1178 83.8784 22.837C83.5652 22.5562 83.4086 22.0918 83.4086 21.4438C83.4086 21.0442 83.4572 20.6122 83.5544 20.1478C83.6624 19.6834 83.765 19.2352 83.8622 18.8033C83.9702 18.3605 84.0242 17.9987 84.0242 17.7179C84.0242 17.3183 83.8838 17.1185 83.603 17.1185C83.3978 17.1185 83.1926 17.2049 82.9874 17.3777C82.793 17.5397 82.6148 17.7611 82.4528 18.0419C82.3016 18.3119 82.1774 18.5981 82.0802 18.9005C81.983 19.2028 81.9344 19.4944 81.9344 19.7752C81.9344 20.0344 81.9614 20.3206 82.0154 20.6338C82.0802 20.9362 82.1126 21.2278 82.1126 21.5086C82.1126 22.0702 81.956 22.5022 81.6428 22.8046C81.3296 23.107 80.9624 23.2582 80.5412 23.2582C80.1524 23.2582 79.8014 23.1286 79.4883 22.8694C79.1859 22.6102 79.0347 22.2214 79.0347 21.703C79.0347 21.4654 79.0671 21.1792 79.1319 20.8444C79.1967 20.4988 79.2669 20.1424 79.3425 19.7752C79.4289 19.3972 79.5045 19.0354 79.5692 18.6899C79.634 18.3443 79.6664 18.0419 79.6664 17.7827C79.6664 17.5775 79.634 17.4155 79.5692 17.2967C79.5153 17.1779 79.4019 17.1185 79.2291 17.1185C78.9807 17.1185 78.7431 17.2427 78.5163 17.4911C78.2895 17.7395 78.0951 18.0419 77.9331 18.3983C77.7711 18.7439 77.6631 19.0786 77.6091 19.4026C77.5983 19.4782 77.5875 19.5376 77.5767 19.5808C77.5767 19.624 77.5767 19.6456 77.5767 19.6456C77.5767 19.9804 77.6145 20.2882 77.6901 20.569C77.7657 20.839 77.8035 21.1198 77.8035 21.4114C77.8035 21.9406 77.6415 22.3834 77.3175 22.7398C77.0043 23.0854 76.6425 23.2582 76.2321 23.2582ZM91.0858 14.5265C90.6538 14.5265 90.2974 14.397 90.0166 14.1378C89.7466 13.8678 89.6116 13.533 89.6116 13.1334C89.6116 12.7014 89.7736 12.3288 90.0976 12.0156C90.4216 11.7024 90.8158 11.5458 91.2802 11.5458C91.7122 11.5458 92.0632 11.6808 92.3332 11.9508C92.614 12.2208 92.7544 12.5556 92.7544 12.9552C92.7544 13.3872 92.5924 13.7598 92.2684 14.073C91.9444 14.3754 91.5502 14.5265 91.0858 14.5265ZM89.9518 23.2582C89.5306 23.2582 89.1526 23.1124 88.8179 22.8208C88.4831 22.5184 88.3157 22.0378 88.3157 21.379C88.3157 21.001 88.3643 20.65 88.4615 20.326C88.5695 19.9912 88.6883 19.6672 88.8179 19.354C88.9583 19.0408 89.0771 18.7385 89.1742 18.4469C89.2822 18.1445 89.3362 17.8475 89.3362 17.5559C89.3362 17.2967 89.293 17.1131 89.2066 17.0051C89.1202 16.8863 89.0177 16.8269 88.8989 16.8269C88.7153 16.8269 88.5371 16.9457 88.3643 17.1833L88.2509 17.1185C88.2941 16.6865 88.4291 16.3193 88.6559 16.0169C88.8935 15.7037 89.1796 15.4607 89.5144 15.2879C89.86 15.1151 90.2002 15.0287 90.535 15.0287C90.9454 15.0287 91.3018 15.1637 91.6042 15.4337C91.9066 15.6929 92.0578 16.1195 92.0578 16.7135C92.0578 17.0699 92.0038 17.4479 91.8958 17.8475C91.7986 18.2363 91.6798 18.6251 91.5394 19.0138C91.4098 19.4026 91.291 19.7644 91.183 20.0992C91.0858 20.434 91.0372 20.7202 91.0372 20.9578C91.0372 21.163 91.075 21.3088 91.1506 21.3952C91.237 21.4816 91.3288 21.5248 91.426 21.5248C91.5232 21.5248 91.615 21.4978 91.7014 21.4438C91.7986 21.379 91.8688 21.3088 91.912 21.2332L92.0254 21.2656C92.0254 21.6652 91.9174 22.0162 91.7014 22.3186C91.4962 22.6102 91.237 22.8424 90.9238 23.0152C90.6106 23.1772 90.2866 23.2582 89.9518 23.2582ZM99.1417 23.2744C98.7637 23.2744 98.4343 23.1502 98.1535 22.9018C97.8727 22.6534 97.7323 22.2484 97.7323 21.6868C97.7323 21.6328 97.7323 21.5788 97.7323 21.5248C97.7323 21.4708 97.7377 21.4168 97.7485 21.3628C97.4246 22.0108 97.0574 22.4914 96.647 22.8046C96.2474 23.107 95.8424 23.2582 95.432 23.2582C95.054 23.2582 94.6976 23.1286 94.3628 22.8694C94.028 22.5994 93.758 22.2052 93.5528 21.6868C93.3476 21.1684 93.245 20.542 93.245 19.8076C93.245 19.0516 93.3476 18.3767 93.5528 17.7827C93.7688 17.1887 94.0496 16.6865 94.3952 16.2761C94.7408 15.8657 95.1188 15.5579 95.5292 15.3527C95.9396 15.1367 96.3392 15.0287 96.728 15.0287C97.16 15.0287 97.5487 15.1637 97.8943 15.4337C98.2399 15.6929 98.4775 16.1087 98.6071 16.6811C98.6395 16.4975 98.6611 16.3301 98.6719 16.1789C98.6935 16.0277 98.7043 15.9251 98.7043 15.8711C98.7151 15.5795 98.8609 15.3635 99.1417 15.2231C99.4333 15.0827 99.7519 15.0125 100.097 15.0125C100.4 15.0125 100.686 15.0719 100.956 15.1907C101.226 15.3095 101.41 15.5093 101.507 15.7901L101.539 15.8873C101.41 16.1789 101.28 16.5299 101.15 16.9403C101.021 17.3507 100.902 17.7827 100.794 18.2363C100.686 18.6791 100.6 19.1164 100.535 19.5484C100.47 19.9696 100.438 20.3422 100.438 20.6662C100.438 21.0226 100.475 21.271 100.551 21.4114C100.627 21.541 100.718 21.6058 100.826 21.6058C101.01 21.6058 101.177 21.4762 101.329 21.217L101.458 21.2818C101.458 21.649 101.339 21.9838 101.102 22.2862C100.864 22.5886 100.567 22.8316 100.211 23.0152C99.8545 23.188 99.4981 23.2744 99.1417 23.2744ZM96.5012 21.217C96.782 21.217 97.0898 20.9686 97.4246 20.4718C97.7701 19.9642 98.0671 19.2406 98.3155 18.3011C98.3371 18.2039 98.3587 18.1121 98.3803 18.0257C98.4019 17.9285 98.4181 17.8367 98.4289 17.7503C98.2561 17.3507 98.0725 17.0699 97.8781 16.9079C97.6945 16.7351 97.5109 16.6487 97.3274 16.6487C97.0574 16.6487 96.8036 16.7945 96.566 17.0861C96.3392 17.3669 96.1502 17.7233 95.999 18.1553C95.8586 18.5873 95.7884 19.0192 95.7884 19.4512C95.7884 20.0452 95.8532 20.488 95.9828 20.7796C96.1232 21.0712 96.296 21.217 96.5012 21.217Z" fill="#EE9333"/>
<path d="M35.9927 11.038C35.7775 11.038 35.5844 10.9589 35.4135 10.8006C35.2426 10.636 35.1571 10.3607 35.1571 9.97457C35.1571 9.72138 35.1919 9.4397 35.2616 9.12954C35.3375 8.81938 35.4261 8.49972 35.5274 8.17057C35.635 7.83509 35.7426 7.51227 35.8502 7.20211C35.9579 6.89195 36.0465 6.61027 36.1161 6.35708C36.1857 6.10389 36.2205 5.9045 36.2205 5.75891C36.2205 5.58801 36.1541 5.50256 36.0211 5.50256C35.8629 5.50256 35.7142 5.59434 35.5749 5.7779C35.4356 5.95514 35.2806 6.20517 35.1097 6.52799L35.0527 6.509C35.0527 6.00894 35.1856 5.57535 35.4515 5.20822C35.7173 4.83476 36.075 4.54675 36.5244 4.3442C36.9801 4.14165 37.4865 4.04037 38.0435 4.04037C38.6069 4.04037 39.0626 4.13848 39.4108 4.33471C39.7652 4.5246 40.0248 4.77463 40.1893 5.08479C40.3602 5.38862 40.4457 5.71461 40.4457 6.06274C40.4457 6.36025 40.3887 6.65775 40.2748 6.95525C40.1672 7.24642 40.0089 7.51227 39.8 7.75281C39.5975 7.99334 39.357 8.1864 39.0784 8.33198C38.7999 8.47757 38.4929 8.55036 38.1575 8.55036C37.8093 8.55036 37.4485 8.46174 37.0751 8.28451C36.9928 8.59467 36.92 8.91116 36.8567 9.23398C36.7934 9.55047 36.7617 9.87646 36.7617 10.2119C36.7617 10.3765 36.7712 10.5411 36.7902 10.7057C36.6826 10.8133 36.556 10.8956 36.4104 10.9525C36.2712 11.0095 36.1319 11.038 35.9927 11.038ZM37.5118 7.60089C37.765 7.60089 37.9866 7.53126 38.1765 7.39201C38.3663 7.24642 38.5119 7.06602 38.6132 6.85081C38.7208 6.62926 38.7746 6.40772 38.7746 6.18618C38.7746 5.92665 38.6892 5.69562 38.5183 5.49306C38.3537 5.29051 38.0815 5.18923 37.7017 5.18923C37.6511 5.18923 37.5909 5.1924 37.5213 5.19873C37.458 5.20506 37.3916 5.21455 37.3219 5.22721C37.3726 5.38546 37.4042 5.5437 37.4169 5.70195C37.4359 5.85386 37.4454 6.00261 37.4454 6.1482C37.4454 6.40139 37.4264 6.64509 37.3884 6.87929C37.3504 7.11349 37.3061 7.34453 37.2555 7.57241C37.3441 7.5914 37.4295 7.60089 37.5118 7.60089ZM44.0743 11.0475C43.8528 11.0475 43.6597 10.9747 43.4951 10.8291C43.3306 10.6835 43.2483 10.4461 43.2483 10.117C43.2483 10.0853 43.2483 10.0537 43.2483 10.022C43.2483 9.99039 43.2514 9.95875 43.2578 9.9271C43.0679 10.3069 42.8527 10.5886 42.6121 10.7721C42.3779 10.9494 42.1405 11.038 41.9 11.038C41.6785 11.038 41.4696 10.962 41.2734 10.8101C41.0771 10.6519 40.9189 10.4208 40.7986 10.117C40.6784 9.81316 40.6182 9.44603 40.6182 9.0156C40.6182 8.57252 40.6784 8.1769 40.7986 7.82876C40.9252 7.48062 41.0898 7.18629 41.2924 6.94575C41.4949 6.70522 41.7164 6.52482 41.957 6.40456C42.1975 6.27796 42.4317 6.21466 42.6596 6.21466C42.9128 6.21466 43.1407 6.29378 43.3432 6.45203C43.5458 6.60394 43.685 6.84764 43.761 7.18312C43.78 7.07552 43.7926 6.9774 43.799 6.88879C43.8116 6.80017 43.8179 6.74004 43.8179 6.70839C43.8243 6.53748 43.9097 6.41088 44.0743 6.3286C44.2452 6.24631 44.4319 6.20517 44.6345 6.20517C44.8117 6.20517 44.9795 6.23998 45.1377 6.30961C45.296 6.37924 45.4036 6.49634 45.4605 6.66091L45.4795 6.71788C45.4036 6.88879 45.3276 7.0945 45.2516 7.33504C45.1757 7.57557 45.1061 7.82876 45.0428 8.09462C44.9795 8.35414 44.9288 8.6105 44.8909 8.86369C44.8529 9.11055 44.8339 9.32893 44.8339 9.51882C44.8339 9.72771 44.856 9.87329 44.9003 9.95558C44.9447 10.0315 44.9985 10.0695 45.0618 10.0695C45.1694 10.0695 45.2675 9.99356 45.3561 9.84164L45.432 9.87962C45.432 10.0948 45.3624 10.2911 45.2232 10.4683C45.0839 10.6455 44.9098 10.788 44.701 10.8956C44.4921 10.9968 44.2832 11.0475 44.0743 11.0475ZM42.5267 9.84164C42.6912 9.84164 42.8716 9.69606 43.0679 9.40489C43.2704 9.10739 43.4445 8.68329 43.5901 8.13259C43.6027 8.07563 43.6154 8.02182 43.6281 7.97118C43.6407 7.91422 43.6502 7.86041 43.6565 7.80977C43.5553 7.57557 43.4477 7.411 43.3337 7.31605C43.2261 7.21477 43.1185 7.16413 43.0109 7.16413C42.8526 7.16413 42.7039 7.24959 42.5646 7.42049C42.4317 7.58507 42.3209 7.79395 42.2323 8.04714C42.15 8.30033 42.1089 8.55353 42.1089 8.80672C42.1089 9.15486 42.1469 9.41438 42.2228 9.58529C42.3051 9.75619 42.4064 9.84164 42.5267 9.84164ZM47.0884 11.038C46.8606 11.038 46.658 10.9462 46.4808 10.7626C46.3035 10.5727 46.2149 10.3069 46.2149 9.96508C46.2149 9.8005 46.2339 9.61377 46.2719 9.40489C46.3099 9.196 46.3542 8.98395 46.4048 8.76874C46.4555 8.5472 46.4998 8.34148 46.5377 8.15158C46.5757 7.95536 46.5947 7.79395 46.5947 7.66735C46.5947 7.53443 46.5694 7.42999 46.5187 7.35403C46.4744 7.27174 46.4143 7.2306 46.3383 7.2306C46.2181 7.2306 46.0947 7.31288 45.9681 7.47746L45.9111 7.43948C45.9048 7.3382 45.9269 7.21794 45.9776 7.07868C46.0282 6.93942 46.1073 6.8065 46.2149 6.6799C46.3225 6.54698 46.4586 6.4362 46.6232 6.34759C46.7941 6.25897 46.9935 6.21466 47.2214 6.21466C47.5568 6.21466 47.8005 6.31277 47.9525 6.509C48.1044 6.69889 48.1803 6.92993 48.1803 7.20211C48.1803 7.24642 48.1772 7.29389 48.1708 7.34453C48.1708 7.38884 48.1677 7.43315 48.1613 7.47746C48.3892 7.06602 48.6266 6.75269 48.8734 6.53748C49.1266 6.31594 49.3608 6.20517 49.576 6.20517C49.7786 6.20517 49.9274 6.28429 50.0223 6.44253C50.1172 6.60078 50.1647 6.79067 50.1647 7.01222C50.1647 7.21477 50.1236 7.42049 50.0413 7.62937C49.9653 7.83826 49.8482 8.01233 49.69 8.15158C49.5381 8.28451 49.3513 8.34781 49.1298 8.34148L49.0918 8.32249C49.0855 8.15791 49.0317 8.02815 48.9304 7.93321C48.8291 7.83826 48.7152 7.79078 48.5886 7.79078C48.4177 7.79078 48.2563 7.87624 48.1044 8.04714C47.9588 8.21805 47.886 8.46491 47.886 8.78773C47.886 8.98395 47.9081 9.196 47.9525 9.42388C47.9968 9.65175 48.0189 9.84481 48.0189 10.0031C48.0189 10.1929 47.9746 10.367 47.886 10.5253C47.7974 10.6835 47.6834 10.8101 47.5442 10.9051C47.4049 10.9937 47.253 11.038 47.0884 11.038ZM53.7823 11.0475C53.5607 11.0475 53.3677 10.9747 53.2031 10.8291C53.0385 10.6835 52.9562 10.4461 52.9562 10.117C52.9562 10.0853 52.9562 10.0537 52.9562 10.022C52.9562 9.99039 52.9594 9.95875 52.9657 9.9271C52.7758 10.3069 52.5606 10.5886 52.3201 10.7721C52.0859 10.9494 51.8485 11.038 51.608 11.038C51.3865 11.038 51.1776 10.962 50.9813 10.8101C50.7851 10.6519 50.6269 10.4208 50.5066 10.117C50.3863 9.81316 50.3262 9.44603 50.3262 9.0156C50.3262 8.57252 50.3863 8.1769 50.5066 7.82876C50.6332 7.48062 50.7978 7.18629 51.0003 6.94575C51.2029 6.70522 51.4244 6.52482 51.665 6.40456C51.9055 6.27796 52.1397 6.21466 52.3676 6.21466C52.6208 6.21466 52.8486 6.29378 53.0512 6.45203C53.2537 6.60394 53.393 6.84764 53.469 7.18312C53.4879 7.07552 53.5006 6.9774 53.5069 6.88879C53.5196 6.80017 53.5259 6.74004 53.5259 6.70839C53.5323 6.53748 53.6177 6.41088 53.7823 6.3286C53.9532 6.24631 54.1399 6.20517 54.3425 6.20517C54.5197 6.20517 54.6874 6.23998 54.8457 6.30961C55.0039 6.37924 55.1115 6.49634 55.1685 6.66091L55.1875 6.71788C55.1115 6.88879 55.0356 7.0945 54.9596 7.33504C54.8837 7.57557 54.814 7.82876 54.7507 8.09462C54.6874 8.35414 54.6368 8.6105 54.5988 8.86369C54.5609 9.11055 54.5419 9.32893 54.5419 9.51882C54.5419 9.72771 54.564 9.87329 54.6083 9.95558C54.6526 10.0315 54.7064 10.0695 54.7697 10.0695C54.8773 10.0695 54.9755 9.99356 55.0641 9.84164L55.14 9.87962C55.14 10.0948 55.0704 10.2911 54.9311 10.4683C54.7919 10.6455 54.6178 10.788 54.4089 10.8956C54.2001 10.9968 53.9912 11.0475 53.7823 11.0475ZM52.2346 9.84164C52.3992 9.84164 52.5796 9.69606 52.7758 9.40489C52.9784 9.10739 53.1525 8.68329 53.2981 8.13259C53.3107 8.07563 53.3234 8.02182 53.336 7.97118C53.3487 7.91422 53.3582 7.86041 53.3645 7.80977C53.2632 7.57557 53.1556 7.411 53.0417 7.31605C52.9341 7.21477 52.8265 7.16413 52.7189 7.16413C52.5606 7.16413 52.4119 7.24959 52.2726 7.42049C52.1397 7.58507 52.0289 7.79395 51.9403 8.04714C51.858 8.30033 51.8169 8.55353 51.8169 8.80672C51.8169 9.15486 51.8549 9.41438 51.9308 9.58529C52.0131 9.75619 52.1144 9.84164 52.2346 9.84164ZM57.4427 5.92032C57.1895 5.92032 56.9806 5.84437 56.8161 5.69245C56.6578 5.53421 56.5787 5.33798 56.5787 5.10378C56.5787 4.85059 56.6737 4.63221 56.8635 4.44864C57.0534 4.26508 57.2845 4.1733 57.5567 4.1733C57.8099 4.1733 58.0156 4.25242 58.1738 4.41066C58.3384 4.56891 58.4207 4.76513 58.4207 4.99934C58.4207 5.25253 58.3257 5.47091 58.1358 5.65447C57.9459 5.83171 57.7149 5.92032 57.4427 5.92032ZM56.7781 11.038C56.5312 11.038 56.3097 10.9525 56.1135 10.7816C55.9172 10.6044 55.8191 10.3227 55.8191 9.93659C55.8191 9.71505 55.8476 9.50933 55.9046 9.31943C55.9679 9.12321 56.0375 8.93332 56.1135 8.74975C56.1957 8.56619 56.2654 8.38895 56.3223 8.21805C56.3856 8.04081 56.4173 7.86674 56.4173 7.69584C56.4173 7.54392 56.392 7.43631 56.3413 7.37302C56.2907 7.30339 56.2306 7.26857 56.1609 7.26857C56.0533 7.26857 55.9489 7.3382 55.8476 7.47746L55.7811 7.43948C55.8065 7.18629 55.8856 6.97107 56.0185 6.79384C56.1578 6.61027 56.3255 6.46785 56.5217 6.36658C56.7243 6.2653 56.9237 6.21466 57.1199 6.21466C57.3604 6.21466 57.5693 6.29378 57.7466 6.45203C57.9238 6.60394 58.0124 6.85397 58.0124 7.20211C58.0124 7.411 57.9808 7.63254 57.9175 7.86674C57.8605 8.09462 57.7909 8.32249 57.7086 8.55036C57.6326 8.77824 57.563 8.99028 57.4997 9.18651C57.4427 9.38273 57.4142 9.55047 57.4142 9.68973C57.4142 9.80999 57.4364 9.89545 57.4807 9.94609C57.5313 9.99672 57.5851 10.022 57.6421 10.022C57.6991 10.022 57.7529 10.0062 57.8035 9.97457C57.8605 9.93659 57.9016 9.89545 57.927 9.85114L57.9934 9.87013C57.9934 10.1043 57.9301 10.3101 57.8035 10.4873C57.6833 10.6582 57.5313 10.7943 57.3478 10.8956C57.1642 10.9905 56.9743 11.038 56.7781 11.038ZM60.2575 11.0855C59.865 11.0855 59.539 11.0316 59.2795 10.924C59.02 10.8164 58.8269 10.6803 58.7003 10.5158C58.5737 10.3449 58.5104 10.174 58.5104 10.0031C58.5104 9.76252 58.618 9.55047 58.8333 9.36691C59.0485 9.17701 59.3396 9.08207 59.7068 9.08207C59.7068 9.40489 59.7479 9.66441 59.8302 9.86063C59.9125 10.0505 60.0169 10.1866 60.1435 10.2689C60.2765 10.3512 60.403 10.3923 60.5233 10.3923C60.6689 10.3923 60.7892 10.3512 60.8841 10.2689C60.9854 10.1803 61.036 10.0727 61.036 9.94609C61.036 9.76885 60.9442 9.61377 60.7607 9.48084C60.5771 9.34792 60.3397 9.19917 60.0486 9.03459C59.903 8.94598 59.7447 8.8447 59.5738 8.73076C59.4029 8.6105 59.2574 8.46807 59.1371 8.3035C59.0168 8.13259 58.9567 7.93004 58.9567 7.69584C58.9567 7.44897 59.0263 7.2306 59.1656 7.0407C59.3112 6.85081 59.501 6.69256 59.7353 6.56597C59.9695 6.43304 60.2226 6.33493 60.4948 6.27163C60.767 6.202 61.0329 6.16719 61.2924 6.16719C61.7798 6.16719 62.1469 6.2653 62.3938 6.46152C62.6406 6.65775 62.7641 6.86663 62.7641 7.08817C62.7641 7.27807 62.6691 7.44897 62.4792 7.60089C62.2893 7.75281 61.9982 7.82876 61.6057 7.82876C61.612 7.50594 61.5456 7.27174 61.4063 7.12615C61.2671 6.97424 61.1183 6.89828 60.9601 6.89828C60.8461 6.89828 60.7512 6.93309 60.6752 7.00272C60.5993 7.07235 60.5613 7.17363 60.5613 7.30655C60.5613 7.45847 60.6088 7.5914 60.7037 7.70533C60.805 7.81294 60.9284 7.91105 61.074 7.99967C61.2259 8.08196 61.381 8.16108 61.5392 8.23704C61.7545 8.33831 61.957 8.44592 62.1469 8.55986C62.3368 8.67379 62.4919 8.80355 62.6122 8.94914C62.7324 9.09473 62.7926 9.27196 62.7926 9.48084C62.7926 9.76569 62.6754 10.0315 62.4412 10.2784C62.2134 10.5189 61.9064 10.7152 61.5203 10.8671C61.1341 11.0127 60.7132 11.0855 60.2575 11.0855ZM65.4142 11.0665C64.9395 11.0665 64.547 10.9715 64.2369 10.7816C63.9267 10.5917 63.6957 10.3417 63.5437 10.0315C63.3982 9.71505 63.3254 9.37957 63.3254 9.0251C63.3254 8.68962 63.3855 8.35414 63.5058 8.01866C63.6324 7.68318 63.8128 7.37935 64.047 7.10716C64.2875 6.82865 64.5787 6.60711 64.9205 6.44253C65.2623 6.27163 65.6547 6.18618 66.0978 6.18618C66.5726 6.18618 66.9618 6.28429 67.2657 6.48051C67.5758 6.67041 67.8037 6.9236 67.9493 7.24009C68.1012 7.55658 68.1772 7.89523 68.1772 8.25603C68.1772 8.58518 68.117 8.91749 67.9968 9.25297C67.8765 9.58212 67.6961 9.88595 67.4556 10.1645C67.2214 10.4366 66.9334 10.655 66.5916 10.8196C66.2497 10.9842 65.8573 11.0665 65.4142 11.0665ZM65.6706 10.2594C65.8415 10.2594 65.9839 10.1708 66.0978 9.99356C66.2118 9.81632 66.2972 9.59162 66.3542 9.31943C66.4112 9.04092 66.4396 8.75925 66.4396 8.4744C66.4396 8.22121 66.4143 7.98384 66.3637 7.7623C66.3194 7.53443 66.2497 7.35086 66.1548 7.21161C66.0598 7.06602 65.9364 6.99323 65.7845 6.99323C65.6199 6.99323 65.4775 7.08185 65.3572 7.25908C65.2433 7.43631 65.1579 7.66102 65.1009 7.93321C65.0439 8.20539 65.0154 8.48706 65.0154 8.77824C65.0154 9.03143 65.0376 9.27196 65.0819 9.49983C65.1325 9.72138 65.2053 9.90494 65.3003 10.0505C65.3952 10.1898 65.5186 10.2594 65.6706 10.2594ZM71.7953 11.038C71.5675 11.038 71.3522 10.9589 71.1497 10.8006C70.9535 10.6424 70.7921 10.4113 70.6655 10.1075C70.5452 9.80367 70.4851 9.43654 70.4851 9.00611C70.4851 8.56302 70.5484 8.16741 70.675 7.81927C70.8015 7.47113 70.9661 7.17679 71.1687 6.93626C71.3776 6.6894 71.6023 6.50267 71.8428 6.37607C72.0897 6.24947 72.3302 6.18618 72.5644 6.18618C72.8239 6.18618 73.055 6.26846 73.2575 6.43304C73.4601 6.59128 73.5993 6.84131 73.6753 7.18312C73.7323 6.86663 73.7797 6.56597 73.8177 6.28112C73.862 5.98995 73.8842 5.73359 73.8842 5.51205C73.8842 5.22088 73.8462 5.00883 73.7702 4.8759V4.81894C73.9158 4.65436 74.0741 4.5341 74.245 4.45814C74.4222 4.37585 74.5899 4.33471 74.7482 4.33471C74.9571 4.33471 75.1343 4.40117 75.2799 4.53409C75.4255 4.66069 75.4983 4.84426 75.4983 5.08479C75.4983 5.21771 75.4761 5.41394 75.4318 5.67346C75.3875 5.93298 75.3337 6.23049 75.2704 6.56597C75.2071 6.89512 75.1406 7.23693 75.071 7.5914C75.0077 7.93953 74.9539 8.27502 74.9096 8.59784C74.8653 8.91433 74.8431 9.18967 74.8431 9.42388C74.8431 9.6201 74.8621 9.77835 74.9001 9.89861C74.9444 10.0125 75.014 10.0695 75.109 10.0695C75.1786 10.0695 75.2482 10.0474 75.3179 10.0031C75.3938 9.95242 75.4445 9.89545 75.4698 9.83215L75.5362 9.87962C75.5362 10.0885 75.4698 10.2816 75.3369 10.4588C75.2039 10.6297 75.0362 10.769 74.8336 10.8766C74.6311 10.9842 74.4222 11.038 74.207 11.038C73.9728 11.038 73.7861 10.9747 73.6468 10.8481C73.5139 10.7152 73.4189 10.5474 73.362 10.3449C73.305 10.1423 73.2733 9.93343 73.267 9.71821C73.0708 10.174 72.8397 10.5094 72.5739 10.7247C72.3144 10.9335 72.0548 11.038 71.7953 11.038ZM72.4315 9.83215C72.596 9.83215 72.7796 9.6834 72.9822 9.3859C73.1847 9.0884 73.362 8.6548 73.5139 8.08512L73.5708 7.79078C73.4696 7.55658 73.3588 7.39201 73.2385 7.29706C73.1246 7.19578 73.0138 7.14514 72.9062 7.14514C72.748 7.14514 72.5992 7.23376 72.46 7.411C72.3207 7.5819 72.2068 7.80344 72.1181 8.07563C72.0359 8.34148 71.9947 8.62315 71.9947 8.92066C71.9947 9.2055 72.0359 9.43021 72.1181 9.59478C72.2004 9.75303 72.3049 9.83215 72.4315 9.83215ZM79.4199 11.0475C79.1983 11.0475 79.0053 10.9747 78.8407 10.8291C78.6761 10.6835 78.5938 10.4461 78.5938 10.117C78.5938 10.0853 78.5938 10.0537 78.5938 10.022C78.5938 9.99039 78.597 9.95875 78.6033 9.9271C78.4134 10.3069 78.1982 10.5886 77.9577 10.7721C77.7235 10.9494 77.4861 11.038 77.2456 11.038C77.024 11.038 76.8152 10.962 76.6189 10.8101C76.4227 10.6519 76.2645 10.4208 76.1442 10.117C76.0239 9.81316 75.9638 9.44603 75.9638 9.0156C75.9638 8.57252 76.0239 8.1769 76.1442 7.82876C76.2708 7.48062 76.4354 7.18629 76.6379 6.94575C76.8405 6.70522 77.062 6.52482 77.3026 6.40456C77.5431 6.27796 77.7773 6.21466 78.0052 6.21466C78.2584 6.21466 78.4862 6.29378 78.6888 6.45203C78.8913 6.60394 79.0306 6.84764 79.1066 7.18312C79.1255 7.07552 79.1382 6.9774 79.1445 6.88879C79.1572 6.80017 79.1635 6.74004 79.1635 6.70839C79.1699 6.53748 79.2553 6.41088 79.4199 6.3286C79.5908 6.24631 79.7775 6.20517 79.9801 6.20517C80.1573 6.20517 80.325 6.23998 80.4833 6.30961C80.6415 6.37924 80.7491 6.49634 80.8061 6.66091L80.8251 6.71788C80.7491 6.88879 80.6732 7.0945 80.5972 7.33504C80.5213 7.57557 80.4516 7.82876 80.3883 8.09462C80.325 8.35414 80.2744 8.6105 80.2364 8.86369C80.1984 9.11055 80.1795 9.32893 80.1795 9.51882C80.1795 9.72771 80.2016 9.87329 80.2459 9.95558C80.2902 10.0315 80.344 10.0695 80.4073 10.0695C80.5149 10.0695 80.6131 9.99356 80.7017 9.84164L80.7776 9.87962C80.7776 10.0948 80.708 10.2911 80.5687 10.4683C80.4295 10.6455 80.2554 10.788 80.0465 10.8956C79.8377 10.9968 79.6288 11.0475 79.4199 11.0475ZM77.8722 9.84164C78.0368 9.84164 78.2172 9.69606 78.4134 9.40489C78.616 9.10739 78.7901 8.68329 78.9357 8.13259C78.9483 8.07563 78.961 8.02182 78.9736 7.97118C78.9863 7.91422 78.9958 7.86041 79.0021 7.80977C78.9008 7.57557 78.7932 7.411 78.6793 7.31605C78.5717 7.21477 78.4641 7.16413 78.3565 7.16413C78.1982 7.16413 78.0495 7.24959 77.9102 7.42049C77.7773 7.58507 77.6665 7.79395 77.5779 8.04714C77.4956 8.30033 77.4545 8.55353 77.4545 8.80672C77.4545 9.15486 77.4925 9.41438 77.5684 9.58529C77.6507 9.75619 77.752 9.84164 77.8722 9.84164Z" fill="#EE9333"/>
<path fill-rule="evenodd" clip-rule="evenodd" d="M26.9214 11.1882C27.9054 8.68722 30.447 6.56612 33.9695 4.9512C34.1092 4.94835 34.2482 4.94847 34.3861 4.95157C29.4686 8.98173 29.8469 10.9015 30.5543 14.4904L30.5543 14.4904C30.6369 14.9096 30.724 15.3515 30.8076 15.8222C31.4964 19.6969 26.0116 23.2922 20.8285 24.1933C21.4269 23.9718 22.6244 23.3214 23.9311 22.3749C26.2668 20.6831 26.6415 19.3743 26.8875 18.5151C26.9592 18.2648 27.0199 18.0526 27.115 17.8803C27.2582 17.6207 27.4154 17.4108 27.5695 17.205C28.2591 16.2837 28.8858 15.4464 27.9127 10.6249C27.8714 10.5284 27.7722 10.4391 27.7066 10.8537C27.6409 11.2683 27.71 14.0153 27.7527 15.337C27.6257 15.4889 27.3552 15.719 27.29 15.4233C27.2248 15.1277 27.0237 12.4986 26.9313 11.2211C26.9281 11.2102 26.9248 11.1993 26.9214 11.1882ZM20.4301 24.2469C20.409 24.2535 20.3879 24.2601 20.3668 24.2665C20.3896 24.2633 20.4125 24.2599 20.4354 24.2566C20.4331 24.2537 20.4313 24.2505 20.4301 24.2469Z" fill="#DD211C"/>
<path d="M33.9695 4.9512L33.9682 4.88504L33.9544 4.88532L33.942 4.89105L33.9695 4.9512ZM26.9214 11.1882L26.8598 11.164L26.8513 11.1856L26.8582 11.2078L26.9214 11.1882ZM34.3861 4.95157L34.4281 5.00275L34.5664 4.88942L34.3876 4.88541L34.3861 4.95157ZM30.5543 14.4904L30.4893 14.5032L30.4896 14.5045L30.5543 14.4904ZM30.5543 14.4904L30.6192 14.4776L30.6189 14.4763L30.5543 14.4904ZM30.8076 15.8222L30.7425 15.8337L30.8076 15.8222ZM20.8285 24.1933L20.8056 24.1312L20.8399 24.2585L20.8285 24.1933ZM23.9311 22.3749L23.9699 22.4285L23.9311 22.3749ZM26.8875 18.5151L26.9511 18.5333L26.8875 18.5151ZM27.115 17.8803L27.173 17.9122L27.115 17.8803ZM27.5695 17.205L27.6224 17.2446L27.5695 17.205ZM27.9127 10.6249L27.979 10.6116L27.9736 10.5989L27.9127 10.6249ZM27.7066 10.8537L27.7719 10.8641L27.7719 10.8641L27.7066 10.8537ZM27.7527 15.337L27.8035 15.3794L27.8197 15.3601L27.8189 15.3348L27.7527 15.337ZM27.29 15.4233L27.3546 15.4091L27.29 15.4233ZM26.9313 11.2211L26.9973 11.2163L26.9968 11.2092L26.9948 11.2024L26.9313 11.2211ZM20.4301 24.2469L20.4924 24.2247L20.471 24.1648L20.4103 24.1838L20.4301 24.2469ZM20.3668 24.2665L20.3474 24.2032L20.3761 24.332L20.3668 24.2665ZM20.4354 24.2566L20.4451 24.322L20.5582 24.3053L20.4874 24.2156L20.4354 24.2566ZM33.942 4.89105C30.4131 6.50884 27.853 8.63959 26.8598 11.164L26.983 11.2124C27.9578 8.73485 30.4808 6.62341 33.9971 5.01136L33.942 4.89105ZM34.3876 4.88541C34.2487 4.88229 34.1088 4.88217 33.9682 4.88504L33.9709 5.01737C34.1096 5.01454 34.2476 5.01466 34.3847 5.01773L34.3876 4.88541ZM30.6192 14.4776C30.2648 12.6796 29.9981 11.3194 30.4242 9.90556C30.8501 8.49249 31.9723 7.01541 34.4281 5.00275L34.3442 4.90038C31.8824 6.91789 30.735 8.4158 30.2975 9.86737C29.8602 11.3182 30.1364 12.7123 30.4893 14.5032L30.6192 14.4776ZM30.6189 14.4763L30.6189 14.4762L30.4896 14.5045L30.4896 14.5045L30.6189 14.4763ZM30.8728 15.8106C30.789 15.3392 30.7018 14.8967 30.6192 14.4776L30.4893 14.5032C30.572 14.9224 30.6589 15.3637 30.7425 15.8337L30.8728 15.8106ZM20.8399 24.2585C23.4408 23.8063 26.1181 22.6783 28.0605 21.1752C30.0003 19.6741 31.2237 17.7846 30.8728 15.8106L30.7425 15.8337C31.0803 17.7344 29.9057 19.58 27.9795 21.0705C26.056 22.559 23.3993 23.6792 20.8172 24.1281L20.8399 24.2585ZM23.8923 22.3213C22.588 23.2661 21.3961 23.9127 20.8056 24.1312L20.8515 24.2554C21.4578 24.031 22.6607 23.3768 23.9699 22.4285L23.8923 22.3213ZM26.8239 18.4968C26.7012 18.9253 26.5482 19.4595 26.1373 20.0969C25.7262 20.7348 25.0549 21.4792 23.8923 22.3213L23.9699 22.4285C25.143 21.5788 25.8269 20.8229 26.2486 20.1686C26.6705 19.5139 26.8278 18.964 26.9511 18.5333L26.8239 18.4968ZM27.0571 17.8483C26.9576 18.0285 26.8949 18.2487 26.8239 18.4968L26.9511 18.5333C27.0234 18.2808 27.0822 18.0767 27.173 17.9122L27.0571 17.8483ZM27.5165 17.1653C27.3626 17.3708 27.2028 17.5842 27.0571 17.8483L27.173 17.9122C27.3137 17.6573 27.4682 17.4507 27.6224 17.2446L27.5165 17.1653ZM27.8479 10.638C28.3341 13.047 28.4188 14.4529 28.299 15.3689C28.18 16.2791 27.8591 16.7076 27.5165 17.1653L27.6224 17.2446C27.9695 16.781 28.3068 16.3303 28.4303 15.3861C28.553 14.4478 28.4645 13.0244 27.9776 10.6118L27.8479 10.638ZM27.7719 10.8641C27.788 10.7626 27.8056 10.6958 27.8222 10.6538C27.8403 10.6082 27.852 10.6052 27.8463 10.6079C27.8301 10.6152 27.8199 10.6031 27.8265 10.6094C27.8335 10.6162 27.8432 10.6307 27.8519 10.651L27.9736 10.5989C27.9616 10.5709 27.9433 10.5381 27.9181 10.5139C27.8924 10.4893 27.8456 10.4626 27.7913 10.4875C27.7474 10.5075 27.7194 10.5539 27.6991 10.6051C27.6774 10.66 27.658 10.7375 27.6412 10.8433L27.7719 10.8641ZM27.8189 15.3348C27.7975 14.6742 27.7696 13.6574 27.7552 12.7541C27.748 12.3024 27.7442 11.8794 27.7463 11.5437C27.7484 11.2054 27.7565 10.9617 27.7719 10.8641L27.6412 10.8433C27.6238 10.953 27.616 11.2082 27.6139 11.5428C27.6118 11.88 27.6156 12.3041 27.6228 12.7562C27.6372 13.6605 27.6652 14.678 27.6866 15.3391L27.8189 15.3348ZM27.2253 15.4376C27.2437 15.5208 27.2805 15.5852 27.3431 15.6155C27.4048 15.6453 27.471 15.6318 27.5244 15.6088C27.6307 15.5629 27.7382 15.4575 27.8035 15.3794L27.702 15.2945C27.6402 15.3684 27.549 15.454 27.4719 15.4872C27.4337 15.5037 27.412 15.5018 27.4007 15.4963C27.3904 15.4913 27.3689 15.4737 27.3546 15.4091L27.2253 15.4376ZM26.8653 11.2259C26.9115 11.8648 26.9849 12.8416 27.0549 13.6958C27.0899 14.1229 27.124 14.5195 27.1535 14.8279C27.1828 15.1339 27.208 15.3587 27.2253 15.4376L27.3546 15.4091C27.3394 15.3401 27.315 15.1255 27.2853 14.8153C27.2559 14.5078 27.2218 14.1119 27.1868 13.685C27.1169 12.8314 27.0435 11.855 26.9973 11.2163L26.8653 11.2259ZM26.8582 11.2078C26.8615 11.2186 26.8647 11.2292 26.8679 11.2398L26.9948 11.2024C26.9915 11.1912 26.9881 11.18 26.9846 11.1686L26.8582 11.2078ZM20.4103 24.1838C20.3894 24.1903 20.3684 24.1968 20.3474 24.2032L20.3861 24.3298C20.4074 24.3233 20.4287 24.3167 20.4499 24.3101L20.4103 24.1838ZM20.3761 24.332C20.3991 24.3288 20.4221 24.3254 20.4451 24.322L20.4257 24.1911C20.4029 24.1945 20.3802 24.1978 20.3574 24.201L20.3761 24.332ZM20.4874 24.2156C20.4896 24.2184 20.4913 24.2215 20.4924 24.2247L20.3678 24.2692C20.3714 24.2794 20.3767 24.289 20.3834 24.2975L20.4874 24.2156Z" fill="white"/>
<path fill-rule="evenodd" clip-rule="evenodd" d="M34.104 4.86801C30.6571 5.08122 23.9915 6.4775 22.5055 10.0153C21.6971 11.9399 22.1423 13.438 22.588 14.9378C23.3396 17.4668 24.0927 20.0005 18.8384 24.5922C19.3776 24.5168 19.8944 24.3988 20.3872 24.2443C20.3436 24.1178 20.9601 23.5903 22.609 22.561C26.7794 19.9574 26.3636 18.2835 25.8401 17.6154C25.0301 16.1115 25.04 15.8464 25.0934 14.4049C25.119 13.713 25.1547 12.75 25.1146 11.2488C25.0957 10.5407 25.5071 11.0103 25.5854 11.3177C25.6032 11.3757 25.6128 11.6529 25.6265 12.0464C25.6592 12.9842 25.7148 14.5827 25.9579 15.4506C26.1737 15.8704 26.2659 15.6879 26.3698 15.4821C26.3861 15.45 26.4026 15.4173 26.4199 15.3862C26.4053 14.4057 26.3952 12.2133 26.4716 11.2872C26.5457 10.3897 26.7672 10.8266 26.8783 11.1849C27.8791 8.6424 30.4896 6.49252 34.104 4.86801Z" fill="#F27127"/>
<path d="M22.5055 10.0153L22.5665 10.0409L22.5055 10.0153ZM34.104 4.86801L34.1312 4.92837L34.0999 4.80195L34.104 4.86801ZM22.588 14.9378L22.5246 14.9567L22.588 14.9378ZM18.8384 24.5922L18.7948 24.5423L18.6276 24.6885L18.8475 24.6577L18.8384 24.5922ZM20.3872 24.2443L20.407 24.3075L20.472 24.2871L20.4498 24.2227L20.3872 24.2443ZM22.609 22.561L22.5739 22.5048L22.609 22.561ZM25.8401 17.6154L25.781 17.6472L25.788 17.6562L25.8401 17.6154ZM25.0934 14.4049L25.0272 14.4025L25.0934 14.4049ZM25.1146 11.2488L25.1807 11.247L25.1146 11.2488ZM25.5854 11.3177L25.5212 11.3341L25.5221 11.3371L25.5854 11.3177ZM25.6265 12.0464L25.6927 12.0441L25.6265 12.0464ZM25.9579 15.4506L25.8928 15.4688L25.899 15.4808L25.9579 15.4506ZM26.3698 15.4821L26.3108 15.4523L26.3108 15.4523L26.3698 15.4821ZM26.4199 15.3862L26.4777 15.4184L26.4864 15.403L26.4861 15.3852L26.4199 15.3862ZM26.4716 11.2872L26.4057 11.2818L26.4057 11.2818L26.4716 11.2872ZM26.8783 11.1849L26.8151 11.2045L26.8709 11.3844L26.9399 11.2092L26.8783 11.1849ZM22.5665 10.0409C23.298 8.29957 25.3115 7.07419 27.5917 6.25724C29.8677 5.4418 32.3895 5.04036 34.1081 4.93406L34.0999 4.80195C32.3716 4.90886 29.8371 5.31217 27.5471 6.13263C25.2613 6.95158 23.1991 8.19324 22.4445 9.98968L22.5665 10.0409ZM22.6515 14.9189C22.2058 13.4193 21.768 11.942 22.5665 10.0409L22.4445 9.98968C21.6261 11.9379 22.0788 13.4568 22.5246 14.9567L22.6515 14.9189ZM18.8819 24.642C21.5138 22.3421 22.6505 20.5497 23.0297 19.0073C23.4091 17.4642 23.0269 16.1823 22.6515 14.9189L22.5246 14.9567C22.9007 16.2223 23.2709 17.4717 22.9012 18.9757C22.5312 20.4803 21.4173 22.2506 18.7948 24.5423L18.8819 24.642ZM20.3674 24.1812C19.878 24.3346 19.3647 24.4518 18.8292 24.5266L18.8475 24.6577C19.3904 24.5818 19.9107 24.463 20.407 24.3075L20.3674 24.1812ZM20.4498 24.2227C20.4541 24.2352 20.4463 24.2354 20.4603 24.2101C20.4725 24.1882 20.4954 24.1577 20.5326 24.1177C20.6064 24.0382 20.7277 23.9308 20.9041 23.7934C21.2562 23.5191 21.8204 23.1313 22.644 22.6171L22.5739 22.5048C21.7487 23.02 21.1802 23.4106 20.8227 23.689C20.6444 23.828 20.5166 23.9405 20.4356 24.0276C20.3953 24.071 20.3644 24.1104 20.3447 24.1457C20.327 24.1775 20.3095 24.2218 20.3247 24.2659L20.4498 24.2227ZM22.644 22.6171C24.7333 21.3127 25.6858 20.2343 26.0457 19.3883C26.4082 18.5359 26.1669 17.9251 25.8922 17.5746L25.788 17.6562C26.0368 17.9737 26.2652 18.534 25.9239 19.3365C25.5799 20.1453 24.655 21.2056 22.5739 22.5048L22.644 22.6171ZM25.8984 17.584C25.4935 16.8322 25.2977 16.3973 25.2077 15.973C25.1176 15.5482 25.1327 15.1306 25.1595 14.4074L25.0272 14.4025C25.0006 15.1208 24.9841 15.5564 25.0782 16.0005C25.1725 16.4451 25.3768 16.8947 25.7818 17.6468L25.8984 17.584ZM25.1595 14.4074C25.1852 13.7149 25.2209 12.7503 25.1807 11.247L25.0484 11.2505C25.0885 12.7497 25.0529 13.7111 25.0272 14.4025L25.1595 14.4074ZM25.1807 11.247C25.1784 11.1612 25.1828 11.0959 25.1913 11.0473C25.2 10.9981 25.2124 10.9706 25.2226 10.9567C25.2312 10.9449 25.2365 10.9446 25.239 10.9444C25.2448 10.944 25.2578 10.946 25.2791 10.9589C25.3219 10.9851 25.3736 11.041 25.4206 11.1136C25.4669 11.1852 25.5039 11.2656 25.5213 11.3341L25.6496 11.3014C25.6278 11.2162 25.584 11.1226 25.5317 11.0417C25.4801 10.962 25.4155 10.8871 25.348 10.846C25.3141 10.8253 25.2735 10.8094 25.2302 10.8123C25.1835 10.8155 25.1443 10.8396 25.1158 10.8785C25.0888 10.9153 25.0715 10.965 25.061 11.0243C25.0504 11.0844 25.046 11.1593 25.0484 11.2505L25.1807 11.247ZM25.5221 11.3371C25.5242 11.3439 25.5278 11.3653 25.5315 11.4066C25.535 11.4456 25.5382 11.497 25.5414 11.5596C25.5477 11.6847 25.5535 11.8518 25.5604 12.0487L25.6927 12.0441C25.6858 11.8476 25.68 11.6793 25.6736 11.5529C25.6704 11.4898 25.667 11.4364 25.6633 11.3948C25.6598 11.3556 25.6555 11.3205 25.6487 11.2984L25.5221 11.3371ZM25.5604 12.0487C25.5767 12.5175 25.5988 13.1529 25.6473 13.7798C25.6957 14.4056 25.7707 15.0278 25.8942 15.4684L26.0216 15.4327C25.902 15.0055 25.8276 14.3945 25.7793 13.7696C25.731 13.1459 25.709 12.5132 25.6927 12.0441L25.5604 12.0487ZM25.899 15.4808C25.954 15.5878 26.0043 15.663 26.053 15.7095C26.1028 15.7569 26.1616 15.7833 26.2248 15.7643C26.2798 15.7479 26.3189 15.7015 26.3468 15.66C26.3763 15.6164 26.4035 15.5623 26.4289 15.512L26.3108 15.4523C26.2842 15.5048 26.2609 15.5507 26.2371 15.586C26.2118 15.6235 26.1949 15.6351 26.1868 15.6375C26.1849 15.6381 26.1825 15.6386 26.1774 15.6368C26.1712 15.6346 26.1602 15.6288 26.1443 15.6136C26.1119 15.5827 26.0697 15.5233 26.0167 15.4203L25.899 15.4808ZM26.4289 15.512C26.4453 15.4796 26.4612 15.4481 26.4777 15.4184L26.3621 15.354C26.344 15.3864 26.3269 15.4204 26.3108 15.4523L26.4289 15.512ZM26.4861 15.3852C26.4715 14.4038 26.4614 12.2148 26.5376 11.2927L26.4057 11.2818C26.3289 12.2117 26.3391 14.4076 26.3538 15.3872L26.4861 15.3852ZM26.5376 11.2927C26.556 11.0692 26.5832 10.937 26.612 10.8675C26.6267 10.8319 26.6379 10.8226 26.6394 10.8217C26.6394 10.8217 26.6392 10.8218 26.6388 10.822C26.6384 10.8222 26.6378 10.8224 26.6371 10.8226C26.6355 10.8231 26.6338 10.8234 26.6321 10.8234C26.6285 10.8234 26.6276 10.8223 26.63 10.8236C26.6364 10.827 26.6492 10.8376 26.6667 10.8619C26.6834 10.8851 26.701 10.9158 26.7188 10.9525C26.7544 11.0257 26.7879 11.1168 26.8151 11.2045L26.9415 11.1653C26.9132 11.0739 26.8774 10.976 26.8379 10.8946C26.8181 10.854 26.7967 10.816 26.774 10.7845C26.7521 10.7541 26.7251 10.7243 26.6922 10.7068C26.655 10.687 26.6097 10.6834 26.5678 10.7103C26.5322 10.7332 26.5079 10.7729 26.4896 10.817C26.4525 10.9068 26.4243 11.0566 26.4057 11.2818L26.5376 11.2927ZM34.0769 4.80764C30.4563 6.43494 27.8268 8.59443 26.8168 11.1607L26.9399 11.2092C27.9313 8.69037 30.5229 6.55011 34.1312 4.92837L34.0769 4.80764Z" fill="white"/>
</svg>
