<!-- <svg width="461" height="575" viewBox="0 0 461 575" fill="none" xmlns="http://www.w3.org/2000/svg">
<path fill-rule="evenodd" clip-rule="evenodd" d="M239.853 184.834C268.258 112.673 341.599 51.4732 443.244 4.87808C447.273 4.79584 451.281 4.79939 455.262 4.88866C313.359 121.184 324.277 176.582 344.688 280.142C347.072 292.237 349.585 304.99 352 318.573C371.874 430.376 213.618 534.122 64.0607 560.129C81.3335 553.732 115.876 534.967 153.571 507.664C220.972 458.845 231.784 421.077 238.883 396.282C240.95 389.06 242.703 382.938 245.447 377.965C249.58 370.476 254.115 364.416 258.561 358.478C278.462 331.892 296.547 307.733 268.466 168.603C267.273 165.819 264.412 163.241 262.517 175.205C260.623 187.168 262.616 266.436 263.85 304.574C260.183 308.96 252.378 315.598 250.496 307.066C248.614 298.535 242.813 222.671 240.147 185.806C240.052 185.485 239.954 185.16 239.853 184.834ZM52.5456 561.683C51.9453 561.871 51.3439 562.057 50.7412 562.242C51.3927 562.148 52.0444 562.053 52.6964 561.957C52.6317 561.874 52.5814 561.783 52.5456 561.683Z" fill="#DD211C"/>
<path d="M443.244 4.87808L443.205 2.96879L442.808 2.97688L442.448 3.1421L443.244 4.87808ZM239.853 184.834L238.076 184.134L237.83 184.758L238.029 185.399L239.853 184.834ZM455.262 4.88866L456.472 6.36569L460.463 3.09515L455.304 2.97945L455.262 4.88866ZM344.688 280.142L342.814 280.511L342.814 280.511L344.688 280.142ZM352 318.573L350.119 318.907L350.119 318.907L352 318.573ZM64.0607 560.129L63.3974 558.338L64.3879 562.01L64.0607 560.129ZM153.571 507.664L154.692 509.21L154.692 509.21L153.571 507.664ZM238.883 396.282L240.719 396.808L240.719 396.808L238.883 396.282ZM245.447 377.965L243.775 377.042L243.775 377.042L245.447 377.965ZM258.561 358.478L260.09 359.622L260.09 359.622L258.561 358.478ZM268.466 168.603L270.338 168.225L270.299 168.032L270.222 167.851L268.466 168.603ZM262.517 175.205L264.404 175.503L264.404 175.503L262.517 175.205ZM263.85 304.574L265.315 305.799L265.782 305.241L265.758 304.513L263.85 304.574ZM250.496 307.066L252.361 306.655L252.361 306.655L250.496 307.066ZM240.147 185.806L242.052 185.668L242.037 185.463L241.979 185.265L240.147 185.806ZM52.5456 561.683L54.3439 561.04L53.7261 559.311L51.9743 559.86L52.5456 561.683ZM50.7412 562.242L50.1824 560.415L51.0119 564.132L50.7412 562.242ZM52.6964 561.957L52.9756 563.846L56.2246 563.366L54.2002 560.78L52.6964 561.957ZM442.448 3.1421C340.623 49.8202 266.746 111.298 238.076 184.134L241.63 185.533C269.769 114.047 342.576 53.1262 444.04 6.61405L442.448 3.1421ZM455.304 2.97945C451.297 2.88956 447.261 2.88601 443.205 2.96879L443.283 6.78736C447.285 6.70568 451.266 6.70921 455.219 6.79786L455.304 2.97945ZM346.562 279.773C336.336 227.891 328.64 188.639 340.936 147.842C353.225 107.066 385.606 64.4433 456.472 6.36569L454.051 3.41163C383.014 61.6292 349.903 104.853 337.279 146.74C324.661 188.606 332.629 228.833 342.814 280.511L346.562 279.773ZM353.88 318.238C351.462 304.635 348.945 291.866 346.562 279.773L342.814 280.511C345.199 292.608 347.709 305.344 350.119 318.907L353.88 318.238ZM64.3879 562.01C139.438 548.959 216.689 516.408 272.736 473.035C328.707 429.72 364.005 375.2 353.88 318.238L350.119 318.907C359.868 373.749 325.975 427.004 270.398 470.014C214.896 512.966 138.24 545.291 63.7335 558.247L64.3879 562.01ZM152.451 506.117C114.826 533.369 80.4423 552.025 63.3974 558.338L64.7239 561.92C82.2247 555.438 116.926 536.564 154.692 509.21L152.451 506.117ZM237.047 395.756C233.507 408.121 229.09 423.534 217.235 441.929C205.372 460.336 185.999 481.817 152.451 506.117L154.692 509.21C188.544 484.691 208.277 462.879 220.445 443.998C232.621 425.106 237.16 409.238 240.719 396.808L237.047 395.756ZM243.775 377.042C240.905 382.243 239.097 388.596 237.047 395.756L240.719 396.808C242.804 389.523 244.501 383.632 247.119 378.887L243.775 377.042ZM257.032 357.334C252.592 363.264 247.98 369.422 243.775 377.042L247.119 378.887C251.179 371.529 255.639 365.568 260.09 359.622L257.032 357.334ZM266.595 168.981C280.624 238.494 283.07 279.064 279.613 305.497C276.178 331.76 266.919 344.125 257.032 357.334L260.09 359.622C270.103 346.245 279.837 333.238 283.4 305.992C286.941 278.917 284.389 237.842 270.338 168.225L266.595 168.981ZM264.404 175.503C264.868 172.575 265.375 170.648 265.854 169.437C266.375 168.121 266.714 168.035 266.548 168.11C266.082 168.323 265.789 167.974 265.978 168.156C266.181 168.35 266.46 168.77 266.711 169.355L270.222 167.851C269.876 167.044 269.35 166.097 268.621 165.399C267.88 164.688 266.529 163.92 264.962 164.636C263.694 165.215 262.888 166.553 262.303 168.031C261.676 169.615 261.115 171.852 260.631 174.906L264.404 175.503ZM265.758 304.513C265.142 285.45 264.335 256.11 263.92 230.044C263.712 217.009 263.602 204.804 263.662 195.114C263.723 185.352 263.958 178.32 264.404 175.503L260.631 174.906C260.13 178.071 259.903 185.434 259.843 195.091C259.783 204.821 259.893 217.059 260.101 230.104C260.517 256.198 261.324 285.56 261.941 304.636L265.758 304.513ZM248.631 307.478C249.161 309.878 250.221 311.739 252.03 312.613C253.81 313.472 255.719 313.083 257.26 312.418C260.327 311.094 263.43 308.053 265.315 305.799L262.385 303.349C260.602 305.482 257.969 307.952 255.747 308.911C254.643 309.387 254.018 309.331 253.691 309.173C253.393 309.029 252.772 308.521 252.361 306.655L248.631 307.478ZM238.242 185.943C239.575 204.38 241.693 232.569 243.712 257.217C244.722 269.541 245.708 280.986 246.559 289.886C247.403 298.714 248.129 305.202 248.631 307.478L252.361 306.655C251.922 304.665 251.217 298.471 250.361 289.523C249.512 280.647 248.528 269.223 247.519 256.905C245.501 232.273 243.384 204.097 242.052 185.668L238.242 185.943ZM238.029 185.399C238.128 185.717 238.223 186.034 238.315 186.346L241.979 185.265C241.882 184.936 241.781 184.603 241.677 184.268L238.029 185.399ZM51.9743 559.86C51.3783 560.047 50.781 560.232 50.1824 560.415L51.2999 564.068C51.9068 563.882 52.5124 563.694 53.1168 563.505L51.9743 559.86ZM51.0119 564.132C51.6662 564.038 52.3208 563.943 52.9756 563.846L52.4173 560.068C51.7681 560.164 51.1191 560.258 50.4704 560.351L51.0119 564.132ZM54.2002 560.78C54.263 560.86 54.3115 560.95 54.3439 561.04L50.7472 562.325C50.8513 562.616 51.0005 562.889 51.1927 563.134L54.2002 560.78Z" fill="white"/>
<path fill-rule="evenodd" clip-rule="evenodd" d="M447.104 2.47005C347.637 8.62251 155.295 48.914 112.414 151.002C89.0859 206.539 101.934 249.768 114.796 293.046C136.485 366.023 158.214 439.137 6.59486 571.635C22.1542 569.46 37.0676 566.055 51.2904 561.596C50.0066 557.957 67.7898 542.736 115.399 513.014C235.743 437.885 223.744 389.581 208.637 370.303C185.265 326.906 185.549 319.258 187.09 277.662C187.83 257.696 188.86 229.907 187.702 186.587C187.156 166.156 199.03 179.706 201.289 188.577C201.801 190.251 202.079 198.249 202.474 209.605C203.417 236.665 205.022 282.792 212.036 307.835C218.264 319.95 220.925 314.682 223.924 308.746C224.393 307.818 224.87 306.874 225.369 305.978C224.947 277.685 224.655 214.419 226.861 187.697C229 161.795 235.393 174.41 238.599 184.75C267.477 111.383 342.806 49.347 447.104 2.47005Z" fill="#F27127"/>
<path d="M112.414 151.002L110.653 150.262L110.653 150.262L112.414 151.002ZM447.104 2.47005L447.887 4.21189L446.986 0.564008L447.104 2.47005ZM114.796 293.046L116.626 292.502L116.626 292.502L114.796 293.046ZM6.59486 571.635L5.33823 570.197L0.513402 574.413L6.85923 573.526L6.59486 571.635ZM51.2904 561.596L51.8616 563.419L53.7495 562.827L53.0913 560.961L51.2904 561.596ZM115.399 513.014L116.41 514.634L116.41 514.634L115.399 513.014ZM208.637 370.303L206.956 371.209L207.033 371.353L207.134 371.481L208.637 370.303ZM187.09 277.662L188.998 277.733L188.998 277.733L187.09 277.662ZM187.702 186.587L189.611 186.536L189.611 186.536L187.702 186.587ZM201.289 188.577L199.438 189.048L199.449 189.092L199.462 189.136L201.289 188.577ZM202.474 209.605L200.566 209.671L200.566 209.671L202.474 209.605ZM212.036 307.835L210.198 308.35L210.25 308.536L210.338 308.708L212.036 307.835ZM223.924 308.746L222.22 307.885L222.22 307.885L223.924 308.746ZM225.369 305.978L227.037 306.908L227.287 306.461L227.279 305.949L225.369 305.978ZM226.861 187.697L228.764 187.854L228.764 187.854L226.861 187.697ZM238.599 184.75L236.775 185.315L238.385 190.508L240.376 185.449L238.599 184.75ZM114.175 151.741C135.282 101.492 193.385 66.1321 259.184 42.5579C324.86 19.0276 397.629 7.4436 447.222 4.37609L446.986 0.564008C397.112 3.64895 323.977 15.287 257.895 38.9624C191.936 62.5939 132.428 98.4235 110.653 150.262L114.175 151.741ZM116.626 292.502C103.765 249.228 91.1326 206.597 114.175 151.741L110.653 150.262C87.0391 206.481 100.102 250.309 112.965 293.59L116.626 292.502ZM7.85148 573.073C83.7966 506.706 116.597 454.984 127.54 410.476C138.488 365.95 127.461 328.958 116.626 292.502L112.965 293.59C123.82 330.112 134.502 366.165 123.832 409.564C113.157 452.982 81.0126 504.066 5.33823 570.197L7.85148 573.073ZM50.7192 559.774C36.5954 564.201 21.7846 567.583 6.33048 569.743L6.85923 573.526C22.5238 571.336 37.5398 567.908 51.8616 563.419L50.7192 559.774ZM53.0913 560.961C53.2199 561.326 52.9899 561.337 53.3936 560.61C53.7423 559.981 54.4004 559.102 55.4704 557.949C57.5976 555.657 61.0943 552.558 66.1835 548.593C76.3442 540.677 92.6286 529.481 116.41 514.634L114.388 511.394C90.5602 526.27 74.1485 537.546 63.8362 545.58C58.6889 549.59 55.0049 552.836 52.6711 555.351C51.5105 556.601 50.618 557.74 50.0539 558.757C49.5449 559.674 49.0399 560.957 49.4895 562.232L53.0913 560.961ZM116.41 514.634C176.701 476.995 204.186 445.877 214.57 421.462C225.031 396.865 218.067 379.24 210.14 369.126L207.134 371.481C214.315 380.644 220.904 396.81 211.055 419.967C201.129 443.306 174.441 473.904 114.388 511.394L116.41 514.634ZM210.319 369.398C198.635 347.704 192.985 335.154 190.389 322.911C187.79 310.653 188.225 298.601 188.998 277.733L185.182 277.592C184.414 298.32 183.936 310.889 186.653 323.703C189.373 336.533 195.268 349.506 206.956 371.209L210.319 369.398ZM188.998 277.733C189.739 257.751 190.77 229.915 189.611 186.536L185.793 186.638C186.949 229.898 185.921 257.64 185.182 277.592L188.998 277.733ZM189.611 186.536C189.545 184.061 189.67 182.175 189.917 180.775C190.168 179.352 190.523 178.561 190.818 178.159C191.067 177.819 191.221 177.809 191.294 177.804C191.46 177.793 191.835 177.849 192.448 178.223C193.685 178.979 195.177 180.592 196.532 182.688C197.868 184.752 198.935 187.072 199.438 189.048L203.139 188.106C202.513 185.646 201.248 182.946 199.739 180.613C198.25 178.312 196.384 176.151 194.438 174.963C193.46 174.366 192.288 173.909 191.037 173.993C189.692 174.084 188.558 174.779 187.736 175.903C186.958 176.965 186.458 178.398 186.156 180.11C185.849 181.845 185.723 184.005 185.793 186.638L189.611 186.536ZM199.462 189.136C199.523 189.334 199.625 189.95 199.732 191.143C199.833 192.268 199.927 193.751 200.018 195.556C200.2 199.166 200.368 203.987 200.566 209.671L204.383 209.538C204.186 203.867 204.017 199.011 203.833 195.364C203.741 193.542 203.644 192.001 203.536 190.801C203.435 189.669 203.31 188.657 203.115 188.018L199.462 189.136ZM200.566 209.671C201.037 223.197 201.675 241.533 203.075 259.624C204.472 277.682 206.636 295.635 210.198 308.35L213.875 307.32C210.423 294.992 208.277 277.361 206.882 259.329C205.49 241.331 204.854 223.073 204.383 209.538L200.566 209.671ZM210.338 308.708C211.924 311.794 213.375 313.965 214.782 315.306C216.219 316.676 217.915 317.435 219.739 316.889C221.326 316.414 222.453 315.076 223.26 313.88C224.11 312.62 224.895 311.059 225.629 309.607L222.22 307.885C221.454 309.4 220.782 310.724 220.094 311.744C219.364 312.826 218.875 313.161 218.643 313.23C218.586 313.247 218.518 313.26 218.372 313.209C218.193 313.147 217.875 312.977 217.417 312.541C216.479 311.647 215.262 309.934 213.735 306.962L210.338 308.708ZM225.629 309.607C226.1 308.673 226.56 307.764 227.037 306.908L223.702 305.048C223.179 305.984 222.685 306.964 222.22 307.885L225.629 309.607ZM227.279 305.949C226.856 277.63 226.567 214.464 228.764 187.854L224.958 187.54C222.742 214.373 223.038 277.74 223.46 306.006L227.279 305.949ZM228.764 187.854C229.297 181.403 230.082 177.59 230.911 175.585C231.336 174.558 231.659 174.29 231.701 174.262C231.701 174.262 231.7 174.263 231.697 174.265C231.694 174.267 231.69 174.269 231.684 174.272C231.672 174.277 231.656 174.284 231.635 174.29C231.591 174.304 231.541 174.312 231.491 174.312C231.389 174.312 231.362 174.281 231.431 174.318C231.616 174.417 231.985 174.724 232.491 175.426C232.973 176.094 233.481 176.981 233.995 178.04C235.022 180.155 235.99 182.784 236.775 185.315L240.423 184.184C239.605 181.546 238.571 178.721 237.431 176.372C236.861 175.199 236.245 174.101 235.589 173.192C234.957 172.316 234.176 171.453 233.228 170.948C232.156 170.376 230.848 170.271 229.638 171.049C228.609 171.709 227.907 172.854 227.382 174.125C226.31 176.717 225.494 181.039 224.958 187.54L228.764 187.854ZM446.321 0.728209C341.844 47.6854 265.969 109.999 236.822 184.05L240.376 185.449C268.984 112.768 343.767 51.0085 447.887 4.21189L446.321 0.728209Z" fill="white"/>
</svg> -->

<svg width="40" height="40" viewBox="0 0 40 40" fill="none" xmlns="http://www.w3.org/2000/svg">
<path fill-rule="evenodd" clip-rule="evenodd" d="M21.0115 15.5215C22.5078 11.5332 26.3714 8.15073 31.726 5.57545C31.9384 5.5709 32.1497 5.57109 32.3594 5.57603C24.8841 12.0035 25.4592 15.0654 26.5345 20.789C26.66 21.4575 26.7924 22.1623 26.9196 22.913C27.9666 29.0925 19.6293 34.8265 11.7505 36.2637C12.6604 35.9103 14.4802 34.8731 16.4662 33.3639C20.0168 30.6657 20.5865 28.5783 20.9604 27.208C21.0693 26.8088 21.1616 26.4704 21.3062 26.1956C21.5239 25.7817 21.7628 25.4468 21.997 25.1186C23.0454 23.6492 23.9981 22.314 22.5189 14.6244C22.456 14.4705 22.3053 14.328 22.2055 14.9892C22.1056 15.6504 22.2107 20.0315 22.2756 22.1394C22.0825 22.3817 21.6713 22.7486 21.5722 22.2771C21.4731 21.8056 21.1674 17.6127 21.027 15.5751C21.022 15.5574 21.0169 15.5395 21.0115 15.5215ZM11.1443 36.3495C11.1125 36.3599 11.0807 36.3703 11.0488 36.3805C11.0833 36.3753 11.1178 36.3701 11.1522 36.3647C11.1488 36.3601 11.1462 36.3551 11.1443 36.3495Z" fill="#DD211C"/>
<path d="M31.726 5.57545L31.7232 5.42193L31.6928 5.42258L31.6652 5.43588L31.726 5.57545ZM21.0115 15.5215L20.8753 15.4654L20.8565 15.5156L20.8717 15.5671L21.0115 15.5215ZM32.3594 5.57603L32.4521 5.69474L32.7579 5.43181L32.3629 5.42251L32.3594 5.57603ZM26.5345 20.789L26.3909 20.8189L26.3909 20.8189L26.5345 20.789ZM26.9196 22.913L26.7755 22.9401L26.7755 22.9401L26.9196 22.913ZM11.7505 36.2637L11.6998 36.1197L11.7755 36.415L11.7505 36.2637ZM16.4662 33.3639L16.552 33.4882L16.552 33.4882L16.4662 33.3639ZM20.9604 27.208L20.8197 27.1659L20.8197 27.1659L20.9604 27.208ZM21.3062 26.1956L21.4343 26.2696L21.4343 26.2696L21.3062 26.1956ZM21.997 25.1186L22.1142 25.2105L22.1142 25.2105L21.997 25.1186ZM22.5189 14.6244L22.6623 14.5938L22.6593 14.5783L22.6534 14.5637L22.5189 14.6244ZM22.2055 14.9892L22.0609 14.9654L22.0609 14.9654L22.2055 14.9892ZM22.2756 22.1394L22.3879 22.2378L22.4237 22.1928L22.4219 22.1342L22.2756 22.1394ZM21.027 15.5751L21.173 15.5639L21.1718 15.5474L21.1674 15.5315L21.027 15.5751ZM11.1443 36.3495L11.2821 36.2977L11.2348 36.1588L11.1006 36.203L11.1443 36.3495ZM11.0488 36.3805L11.0062 36.2337L11.0694 36.5325L11.0488 36.3805ZM11.1522 36.3647L11.1735 36.5166L11.4231 36.4779L11.2674 36.2698L11.1522 36.3647ZM31.6652 5.43588C26.2967 8.01784 22.3921 11.4228 20.8753 15.4654L21.1477 15.5776C22.6236 11.6437 26.4462 8.28362 31.7869 5.71502L31.6652 5.43588ZM32.3629 5.42251C32.151 5.41753 31.9376 5.41733 31.7232 5.42193L31.7289 5.72897C31.9392 5.72446 32.1483 5.72465 32.356 5.72954L32.3629 5.42251ZM26.6781 20.7592C26.1389 17.8891 25.7367 15.732 26.3806 13.4906C27.024 11.251 28.721 8.90287 32.4521 5.69474L32.2667 5.45731C28.5225 8.67671 26.7694 11.0732 26.1003 13.4023C25.4318 15.7297 25.8548 17.9653 26.3909 20.8189L26.6781 20.7592ZM27.0637 22.886C26.9363 22.1337 26.8036 21.4275 26.6781 20.7592L26.3909 20.8189C26.5165 21.4875 26.6486 22.191 26.7755 22.9401L27.0637 22.886ZM11.7755 36.415C15.7357 35.6926 19.8125 33.8907 22.7717 31.4881C25.7252 29.0902 27.6017 26.0609 27.0637 22.886L26.7755 22.9401C27.2846 25.9446 25.5159 28.872 22.5928 31.2453C19.6754 33.6139 15.6442 35.3977 11.7256 36.1125L11.7755 36.415ZM16.3805 33.2396C14.3999 34.7447 12.5922 35.7731 11.6998 36.1197L11.8012 36.4077C12.7285 36.0475 14.5606 35.0015 16.552 33.4882L16.3805 33.2396ZM20.8197 27.1659C20.6334 27.8484 20.4022 28.6945 19.7816 29.7049C19.1603 30.7163 18.1441 31.8994 16.3805 33.2396L16.552 33.4882C18.339 32.1303 19.3829 30.9206 20.0276 29.8711C20.6728 28.8207 20.9134 27.9379 21.1011 27.2501L20.8197 27.1659ZM21.1781 26.1215C21.0239 26.4147 20.9273 26.7717 20.8197 27.1659L21.1011 27.2501C21.2114 26.8459 21.2994 26.5261 21.4343 26.2696L21.1781 26.1215ZM21.8799 25.0266C21.6461 25.3542 21.4013 25.697 21.1781 26.1215L21.4343 26.2696C21.6465 25.8663 21.8796 25.5393 22.1142 25.2105L21.8799 25.0266ZM22.3754 14.6549C23.1142 18.4955 23.2418 20.7315 23.0607 22.1843C22.8813 23.6235 22.3992 24.2988 21.8799 25.0266L22.1142 25.2105C22.6432 24.469 23.1617 23.742 23.3509 22.2238C23.5385 20.7193 23.4028 18.4428 22.6623 14.5938L22.3754 14.6549ZM22.35 15.0131C22.3742 14.8528 22.4003 14.7502 22.4238 14.688C22.4505 14.6173 22.4627 14.6283 22.4367 14.6408C22.3877 14.6643 22.3526 14.6309 22.3561 14.6344C22.3605 14.6388 22.3722 14.6554 22.3843 14.685L22.6534 14.5637C22.634 14.5163 22.6034 14.4574 22.5587 14.4126C22.5132 14.3667 22.4223 14.3102 22.3153 14.3615C22.2313 14.4017 22.1832 14.4915 22.1516 14.5752C22.1168 14.6674 22.0866 14.795 22.0609 14.9654L22.35 15.0131ZM22.4219 22.1342C22.3895 21.0808 22.347 19.4595 22.3251 18.0192C22.3142 17.2989 22.3084 16.6247 22.3115 16.0897C22.3147 15.5489 22.3272 15.1643 22.35 15.0131L22.0609 14.9654C22.0338 15.1447 22.022 15.5558 22.0188 16.0882C22.0156 16.6265 22.0215 17.3033 22.0324 18.0244C22.0543 19.4669 22.0969 21.09 22.1294 22.1445L22.4219 22.1342ZM21.4293 22.3103C21.4586 22.4497 21.5197 22.5695 21.633 22.6269C21.7441 22.6832 21.86 22.6561 21.9465 22.6169C22.1182 22.5392 22.2874 22.3639 22.3879 22.2378L22.1634 22.0409C22.0707 22.1573 21.9377 22.2866 21.8308 22.335C21.8061 22.3461 21.7879 22.3506 21.7758 22.3516C21.7646 22.3525 21.7609 22.3505 21.7605 22.3503C21.7604 22.3503 21.7549 22.3479 21.7463 22.3337C21.7369 22.3183 21.725 22.2907 21.7151 22.2439L21.4293 22.3103ZM20.881 15.5864C20.9513 16.6054 21.0628 18.1636 21.1692 19.5261C21.2224 20.2073 21.2743 20.8401 21.3192 21.3323C21.3636 21.8187 21.4021 22.1809 21.4293 22.3103L21.7151 22.2439C21.6927 22.1375 21.6559 21.7988 21.6106 21.3027C21.5659 20.8125 21.5141 20.1813 21.4609 19.5007C21.3546 18.1394 21.2432 16.5823 21.173 15.5639L20.881 15.5864ZM20.8717 15.5671C20.8769 15.5845 20.8818 15.6017 20.8866 15.6187L21.1674 15.5315C21.1622 15.5131 21.1569 15.4946 21.1513 15.4759L20.8717 15.5671ZM11.1006 36.203C11.0692 36.2133 11.0377 36.2235 11.0062 36.2337L11.0915 36.5273C11.1237 36.517 11.1558 36.5066 11.1879 36.496L11.1006 36.203ZM11.0694 36.5325C11.1041 36.5273 11.1388 36.522 11.1735 36.5166L11.131 36.2128C11.0967 36.2181 11.0625 36.2233 11.0283 36.2285L11.0694 36.5325ZM11.2674 36.2698C11.2738 36.2784 11.2788 36.2879 11.2821 36.2977L11.0064 36.4013C11.0135 36.4222 11.0238 36.4419 11.0371 36.4596L11.2674 36.2698Z" fill="white"/>
<path fill-rule="evenodd" clip-rule="evenodd" d="M31.9292 5.44235C26.6893 5.78239 16.5569 8.00926 14.2979 13.6515C13.069 16.721 13.7458 19.1103 14.4234 21.5022C15.5659 25.5356 16.7106 29.5765 8.72339 36.8995C9.65159 36.7634 10.5361 36.5401 11.3737 36.2438C11.8246 35.811 12.7947 35.0769 14.4457 33.9956C20.7854 29.8432 20.1533 27.1735 19.3575 26.1081C18.1263 23.7095 18.1412 23.2869 18.2224 20.9879C18.2613 19.8843 18.3156 18.3485 18.2546 15.9542C18.2258 14.825 18.8513 15.5739 18.9703 16.0642C18.9973 16.1567 19.012 16.5988 19.0328 17.2264C19.0824 18.722 19.167 21.2714 19.5365 22.6555C19.8646 23.3251 20.0048 23.0339 20.1628 22.7058C20.1875 22.6546 20.2126 22.6024 20.2389 22.5529C20.2167 20.9891 20.2013 17.4925 20.3175 16.0156C20.4194 14.7212 20.7045 15.1671 20.883 15.6869C22.3561 11.5577 26.3581 8.06935 31.9292 5.44235Z" fill="#F27127"/>
<path d="M14.2979 13.6515L14.4328 13.7109L14.4328 13.7109L14.2979 13.6515ZM31.9292 5.44235L31.9891 5.58239L31.9203 5.28909L31.9292 5.44235ZM14.4234 21.5022L14.2831 21.5461L14.2831 21.5461L14.4234 21.5022ZM8.72339 36.8995L8.62715 36.784L8.25748 37.1229L8.74349 37.0516L8.72339 36.8995ZM11.3737 36.2438L11.4203 36.3893L11.4496 36.3789L11.4724 36.357L11.3737 36.2438ZM14.4457 33.9956L14.5231 34.1258L14.5231 34.1258L14.4457 33.9956ZM19.3575 26.1081L19.2286 26.181L19.2345 26.1925L19.2422 26.2029L19.3575 26.1081ZM18.2224 20.9879L18.3686 20.9934L18.3686 20.9934L18.2224 20.9879ZM18.2546 15.9542L18.4009 15.9499L18.4009 15.9499L18.2546 15.9542ZM18.9703 16.0642L18.8283 16.1023L18.8304 16.1093L18.9703 16.0642ZM19.0328 17.2264L19.1791 17.2209L19.1791 17.2209L19.0328 17.2264ZM19.5365 22.6555L19.3956 22.6971L19.3996 22.712L19.4064 22.7258L19.5365 22.6555ZM20.1628 22.7058L20.0322 22.6367L20.0322 22.6367L20.1628 22.7058ZM20.2389 22.5529L20.3667 22.6275L20.3858 22.5916L20.3853 22.5504L20.2389 22.5529ZM20.3175 16.0156L20.4634 16.028L20.4634 16.028L20.3175 16.0156ZM20.883 15.6869L20.7453 15.7391L20.8803 16.1323L21.0201 15.7406L20.883 15.6869ZM14.4328 13.7109C15.5367 10.9537 18.5806 9.00535 22.045 7.70315C25.4999 6.40448 29.329 5.76493 31.9381 5.59561L31.9203 5.28909C29.2896 5.45981 25.4325 6.10371 21.9465 7.41406C18.4699 8.72087 15.3181 10.7071 14.163 13.5922L14.4328 13.7109ZM14.5637 21.4583C13.8862 19.0666 13.2259 16.7256 14.4328 13.7109L14.163 13.5922C12.9121 16.7165 13.6054 19.154 14.2831 21.5461L14.5637 21.4583ZM8.81963 37.0151C12.8237 33.3441 14.5595 30.4774 15.1392 28.0038C15.7192 25.5286 15.1342 23.4723 14.5637 21.4583L14.2831 21.5461C14.8551 23.5655 15.4137 25.5463 14.8549 27.9308C14.2958 30.3166 12.6104 33.132 8.62715 36.784L8.81963 37.0151ZM11.327 36.0983C10.498 36.3916 9.62234 36.6127 8.70329 36.7475L8.74349 37.0516C9.68083 36.9141 10.5743 36.6886 11.4203 36.3893L11.327 36.0983ZM11.4724 36.357C11.9125 35.9347 12.8724 35.207 14.5231 34.1258L14.3683 33.8653C12.717 34.9469 11.7367 35.6874 11.2749 36.1306L11.4724 36.357ZM14.5231 34.1258C17.7021 32.0436 19.1596 30.3172 19.7121 28.9542C20.2705 27.5766 19.8992 26.5842 19.4727 26.0133L19.2422 26.2029C19.6116 26.6974 19.9542 27.5726 19.4427 28.8343C18.9253 30.1106 17.529 31.7951 14.3683 33.8653L14.5231 34.1258ZM19.4864 26.0351C18.8709 24.8362 18.5762 24.1479 18.441 23.4786C18.3054 22.8081 18.3278 22.1485 18.3686 20.9934L18.0761 20.9824C18.0357 22.1262 18.01 22.8274 18.1546 23.5426C18.2994 24.2591 18.6128 24.9814 19.2286 26.181L19.4864 26.0351ZM18.3686 20.9934C18.4077 19.8886 18.462 18.349 18.4009 15.9499L18.1083 15.9585C18.1692 18.348 18.115 19.8801 18.0761 20.9824L18.3686 20.9934ZM18.4009 15.9499C18.3975 15.8151 18.404 15.7143 18.4163 15.6412C18.429 15.5662 18.4459 15.5306 18.4556 15.5167C18.4618 15.5078 18.4582 15.5159 18.4467 15.5167C18.4425 15.517 18.4527 15.5151 18.4807 15.533C18.5374 15.5693 18.6115 15.6516 18.6813 15.7649C18.7496 15.8756 18.8035 15.9991 18.8285 16.1023L19.1122 16.0262C19.0777 15.8842 19.0088 15.7302 18.9272 15.5979C18.8472 15.4681 18.7444 15.3419 18.6334 15.2708C18.5776 15.235 18.5063 15.2047 18.4274 15.2103C18.3413 15.2164 18.2698 15.2634 18.2195 15.3355C18.1727 15.4025 18.1446 15.4898 18.1281 15.5881C18.1112 15.6882 18.1045 15.811 18.1083 15.9585L18.4009 15.9499ZM18.8304 16.1093C18.8304 16.1092 18.8323 16.1168 18.835 16.1369C18.8376 16.1554 18.8402 16.1798 18.8428 16.2105C18.848 16.2718 18.8529 16.353 18.8577 16.4526C18.8673 16.6516 18.8761 16.9176 18.8865 17.2319L19.1791 17.2209C19.1687 16.9076 19.1598 16.6388 19.1501 16.4367C19.1452 16.3358 19.1401 16.2499 19.1343 16.1827C19.129 16.1209 19.1222 16.06 19.1103 16.0191L18.8304 16.1093ZM18.8865 17.2319C18.9113 17.9794 18.945 18.9938 19.0188 19.9948C19.0924 20.9932 19.2067 21.9894 19.3956 22.6971L19.6775 22.6139C19.4969 21.9375 19.3841 20.967 19.3107 19.9708C19.2374 18.9772 19.2039 17.9691 19.1791 17.2209L18.8865 17.2319ZM19.4064 22.7258C19.4906 22.8978 19.5698 23.0235 19.6495 23.1032C19.7316 23.1852 19.8373 23.239 19.9553 23.2019C20.0552 23.1705 20.1223 23.0839 20.1657 23.0163C20.2124 22.9437 20.2551 22.8544 20.2934 22.7749L20.0322 22.6367C19.9914 22.7213 19.9574 22.7915 19.9231 22.8448C19.8856 22.9031 19.8675 22.909 19.8716 22.9077C19.8938 22.9007 19.8931 22.9222 19.8516 22.8808C19.8078 22.837 19.7465 22.748 19.6667 22.5852L19.4064 22.7258ZM20.2934 22.7749C20.3183 22.7232 20.3421 22.6738 20.3667 22.6275L20.1111 22.4782C20.0831 22.5309 20.0566 22.586 20.0322 22.6367L20.2934 22.7749ZM20.3853 22.5504C20.363 20.9845 20.3478 17.496 20.4634 16.028L20.1716 16.0031C20.0547 17.489 20.0704 20.9937 20.0926 22.5553L20.3853 22.5504ZM20.4634 16.028C20.4886 15.7076 20.5244 15.5086 20.5619 15.3954C20.581 15.338 20.5964 15.3157 20.6011 15.3103C20.6016 15.3098 20.583 15.3274 20.5523 15.3232C20.5322 15.3204 20.531 15.311 20.5485 15.3294C20.564 15.3458 20.5842 15.3737 20.6077 15.4153C20.6544 15.4981 20.702 15.6132 20.7453 15.7391L21.0207 15.6347C20.9747 15.5007 20.9198 15.3652 20.8596 15.2586C20.8297 15.2056 20.7954 15.1541 20.7564 15.1129C20.7195 15.0739 20.6639 15.0288 20.5907 15.0187C20.5068 15.0071 20.4363 15.0457 20.3871 15.1011C20.3422 15.1516 20.3103 15.2201 20.2855 15.2947C20.2354 15.4457 20.1973 15.6763 20.1716 16.0031L20.4634 16.028ZM31.8693 5.3023C26.2846 7.93576 22.2393 11.4471 20.7459 15.6332L21.0201 15.7406C22.4728 11.6684 26.4317 8.20293 31.9891 5.58239L31.8693 5.3023Z" fill="white"/>
</svg>
